<svg id="AdaptInfoSvg" width="367.0333333333333" height="264.2033333333333" xmlns="http://www.w3.org/2000/svg"><defs><linearGradient id="WhiteBlack" y1="0%" y2="0%" x1="0%" x2="100%"><stop offset="10%" stop-color="white"></stop><stop offset="90%" stop-color="black"></stop></linearGradient><linearGradient id="FeatureUI" y1="0%" y2="0%" x1="0%" x2="100%"><stop offset="10%" stop-color="#33CC66"></stop><stop offset="90%" stop-color="#99FF99"></stop></linearGradient><linearGradient id="FeatureServices" y1="0%" y2="0%" x1="0%" x2="100%"><stop offset="10%" stop-color="#33CC66"></stop><stop offset="90%" stop-color="#FFFF99"></stop></linearGradient><linearGradient id="FeatureCloud" y1="0%" y2="0%" x1="0%" x2="100%"><stop offset="10%" stop-color="#33CC66"></stop><stop offset="90%" stop-color="#FFCC99"></stop></linearGradient><linearGradient id="FeatureDatabase" y1="0%" y2="0%" x1="0%" x2="100%"><stop offset="10%" stop-color="#33CC66"></stop><stop offset="90%" stop-color="#FF9999"></stop></linearGradient><linearGradient id="TraceUI" y1="0%" y2="0%" x1="0%" x2="100%"><stop offset="10%" stop-color="#99FFCC"></stop><stop offset="90%" stop-color="#99FF99"></stop></linearGradient><linearGradient id="TraceServices" y1="0%" y2="0%" x1="0%" x2="100%"><stop offset="10%" stop-color="#99FFCC"></stop><stop offset="90%" stop-color="#FFFF99"></stop></linearGradient><linearGradient id="TraceCloud" y1="0%" y2="0%" x1="0%" x2="100%"><stop offset="10%" stop-color="#99FFCC"></stop><stop offset="90%" stop-color="#FFCC99"></stop></linearGradient><linearGradient id="TraceDatabase" y1="0%" y2="0%" x1="0%" x2="100%"><stop offset="10%" stop-color="#99FFCC"></stop><stop offset="90%" stop-color="#FF9999"></stop></linearGradient><linearGradient id="ComponentUI" y1="0%" y2="0%" x1="0%" x2="100%"><stop offset="10%" stop-color="#339966"></stop><stop offset="90%" stop-color="#99FF99"></stop></linearGradient><linearGradient id="ComponentServices" y1="0%" y2="0%" x1="0%" x2="100%"><stop offset="10%" stop-color="#339966"></stop><stop offset="90%" stop-color="#FFFF99"></stop></linearGradient><linearGradient id="ComponentCloud" y1="0%" y2="0%" x1="0%" x2="100%"><stop offset="10%" stop-color="#339966"></stop><stop offset="90%" stop-color="#FFCC99"></stop></linearGradient><linearGradient id="ComponentDatabase" y1="0%" y2="0%" x1="0%" x2="100%"><stop offset="10%" stop-color="#339966"></stop><stop offset="90%" stop-color="#FF9999"></stop></linearGradient><linearGradient id="AcceptanceUI" y1="0%" y2="0%" x1="0%" x2="100%"><stop offset="10%" stop-color="#33FF99"></stop><stop offset="90%" stop-color="#99FF99"></stop></linearGradient><linearGradient id="AcceptanceServices" y1="0%" y2="0%" x1="0%" x2="100%"><stop offset="10%" stop-color="#33FF99"></stop><stop offset="90%" stop-color="#FFFF99"></stop></linearGradient><linearGradient id="AcceptanceCloud" y1="0%" y2="0%" x1="0%" x2="100%"><stop offset="10%" stop-color="#33FF99"></stop><stop offset="90%" stop-color="#FFCC99"></stop></linearGradient><linearGradient id="AcceptanceDatabase" y1="0%" y2="0%" x1="0%" x2="100%"><stop offset="10%" stop-color="#33FF99"></stop><stop offset="90%" stop-color="#FF9999"></stop></linearGradient></defs><g id="AdaptInfoG" style=""><path d="M367.0333333333333,   100.5L256.6050378347259,100.5 A80.39999999999999,80.39999999999999 0, 1,0 256.6050378347259,167.5L367.0333333333333,   167.5 L367.0333333333333,100.5M217.01666666666665,134 A33.5,33.5 0, 1,1 217.01666666666665,133.999" stroke-linejoin="round" fill="#66CC99"></path><path d="M56.94999999999992,-98.6402934910476A113.89999999999999,113.89999999999999,0,0,0,-56.950000000000045,-98.64029349104753L-40.20000000000003,-69.62844246426884A80.39999999999999,80.39999999999999,0,0,1,40.19999999999994,-69.62844246426889Z" fill="#33CC66" stroke="none" transform="translate(183.51666666666665,134)"></path><text x="183.51666666666662" y="43.85000000000001" transform="rotate(0 183.51666666666662 43.85000000000001)" text-anchor="middle" font-size="14px" font-family="Arial" fill="#000000" style="z-index: 4;">Feature</text><path d="M220.64125517076332,62.684329012470954 C216.7741105349199,70.11304474033857 183.51666666666665,98.73776041666667 256.46666666666664,98.73776041666667" stroke-linejoin="round" fill="none" stroke="#33CC66" stroke-width="1"></path><path d="M214.2844146288199,59.720085586092566 C211.07944088276224,67.45757667087459 183.51666666666665,100.23828125000001 256.46666666666664,100.23828125000001" stroke-linejoin="round" fill="none" stroke="#33CC66" stroke-width="1"></path><path d="M207.69341294681016,57.321157159842556 C205.1750018759619,65.30853662235896 183.51666666666665,101.73880208333335 256.46666666666664,101.73880208333335" stroke-linejoin="round" fill="none" stroke="#33CC66" stroke-width="1"></path><path d="M200.91841162729008,55.505801027557354 C199.10572986055848,63.6822800871868 183.51666666666665,103.2393229166667 256.46666666666664,103.2393229166667" stroke-linejoin="round" fill="none" stroke="#33CC66" stroke-width="1"></path><path d="M194.01097252115883,54.28783314554565 C192.9178156613159,62.59118385955132 183.51666666666665,104.73984375000003 256.46666666666664,104.73984375000003" stroke-linejoin="round" fill="none" stroke="#33CC66" stroke-width="1"></path><path d="M187.02366541083964,53.67652298481865 C186.65835304165495,62.04355184056671 183.51666666666665,106.24036458333337 256.46666666666664,106.24036458333337" stroke-linejoin="round" fill="none" stroke="#33CC66" stroke-width="1"></path><path d="M180.00966792249363,53.67652298481865 C180.37498029167833,62.04355184056671 183.51666666666665,107.74088541666671 256.46666666666664,107.74088541666671" stroke-linejoin="round" fill="none" stroke="#33CC66" stroke-width="1"></path><path d="M173.0223608121745,54.28783314554565 C174.11551767201743,62.59118385955132 183.51666666666665,109.24140625000005 256.46666666666664,109.24140625000005" stroke-linejoin="round" fill="none" stroke="#33CC66" stroke-width="1"></path><path d="M166.1149217060432,55.50580102755737 C167.9276034727748,63.68228008718681 183.51666666666665,110.7419270833334 256.46666666666664,110.7419270833334" stroke-linejoin="round" fill="none" stroke="#33CC66" stroke-width="1"></path><path d="M159.33992038652303,57.321157159842585 C161.85833145737132,65.30853662235899 183.51666666666665,112.24244791666673 256.46666666666664,112.24244791666673" stroke-linejoin="round" fill="none" stroke="#33CC66" stroke-width="1"></path><path d="M152.74891870451347,59.72008558609255 C155.9538924505711,67.45757667087457 183.51666666666665,113.74296875000007 256.46666666666664,113.74296875000007" stroke-linejoin="round" fill="none" stroke="#33CC66" stroke-width="1"></path><path d="M146.39207816256987,62.684329012471 C150.2592227984133,70.11304474033861 183.51666666666665,115.24348958333341 256.46666666666664,115.24348958333341" stroke-linejoin="round" fill="none" stroke="#33CC66" stroke-width="1"></path><path d="M-56.950000000000045,-98.64029349104753A113.89999999999999,113.89999999999999,0,0,0,-113.89999999999999,1.3948727042288352e-14L-80.39999999999999,9.84616026514472e-15A80.39999999999999,80.39999999999999,0,0,1,-40.20000000000003,-69.62844246426884Z" fill="#99FFCC" stroke="none" transform="translate(183.51666666666665,134)"></path><text x="105.44447651549952" y="88.925" transform="rotate(-60 105.44447651549952 88.925)" text-anchor="middle" font-size="14px" font-family="Arial" fill="#000000" style="z-index: 4;">Trace</text><path d="M140.317778155582,66.19132775664401 C144.81766237548663,73.25473111532693 183.51666666666665,116.74401041666675 256.46666666666664,116.74401041666675" stroke-linejoin="round" fill="none" stroke="#99FFCC" stroke-width="1"></path><path d="M134.5722477743655,70.21439144058472 C139.67062474231352,76.8587256655238 183.51666666666665,118.2445312500001 256.46666666666664,118.2445312500001" stroke-linejoin="round" fill="none" stroke="#99FFCC" stroke-width="1"></path><path d="M129.19921397436758,74.72290212046605 C134.85728196314872,80.89759981625082 183.51666666666665,119.74505208333343 256.46666666666664,119.74505208333343" stroke-linejoin="round" fill="none" stroke="#99FFCC" stroke-width="1"></path><path d="M124.23956878713265,79.68254730770096 C130.41426648291744,85.3406152964821 183.51666666666665,121.24557291666677 256.46666666666664,121.24557291666677" stroke-linejoin="round" fill="none" stroke="#99FFCC" stroke-width="1"></path><path d="M119.73105810725136,85.05558110769886 C126.37539233219044,90.1539580756469 183.51666666666665,122.74609375000011 256.46666666666664,122.74609375000011" stroke-linejoin="round" fill="none" stroke="#99FFCC" stroke-width="1"></path><path d="M115.70799442331064,90.80111148891538 C122.77139778199356,95.30099570882004 183.51666666666665,124.24661458333345 256.46666666666664,124.24661458333345" stroke-linejoin="round" fill="none" stroke="#99FFCC" stroke-width="1"></path><path d="M112.20099567913762,96.8754114959033 C119.62971140700523,100.7425561317467 183.51666666666665,125.7471354166668 256.46666666666664,125.7471354166668" stroke-linejoin="round" fill="none" stroke="#99FFCC" stroke-width="1"></path><path d="M109.23675225275919,103.23225203784683 C116.97424333754121,106.43722578390445 183.51666666666665,127.24765625000013 256.46666666666664,127.24765625000013" stroke-linejoin="round" fill="none" stroke="#99FFCC" stroke-width="1"></path><path d="M106.83782382650921,109.82325371985645 C114.82520328902561,112.34166479070473 183.51666666666665,128.74817708333347 256.46666666666664,128.74817708333347" stroke-linejoin="round" fill="none" stroke="#99FFCC" stroke-width="1"></path><path d="M105.02246769422402,116.59825503937653 C113.19894675385346,118.41093680610814 183.51666666666665,130.2486979166668 256.46666666666664,130.2486979166668" stroke-linejoin="round" fill="none" stroke="#99FFCC" stroke-width="1"></path><path d="M103.8044998122123,123.50569414550787 C112.10785052621796,124.59885100535081 183.51666666666665,131.74921875000013 256.46666666666664,131.74921875000013" stroke-linejoin="round" fill="none" stroke="#99FFCC" stroke-width="1"></path><path d="M103.1931896514853,130.49300125582695 C111.56021850723336,130.85831362501165 183.51666666666665,133.24973958333345 256.46666666666664,133.24973958333345" stroke-linejoin="round" fill="none" stroke="#99FFCC" stroke-width="1"></path><path d="M-113.89999999999999,1.3948727042288352e-14A113.89999999999999,113.89999999999999,0,0,0,-56.950000000000024,98.64029349104754L-40.20000000000002,69.62844246426886A80.39999999999999,80.39999999999999,0,0,1,-80.39999999999999,9.84616026514472e-15Z" fill="#339966" stroke="none" transform="translate(183.51666666666665,134)"></path><text x="96.3512097757629" y="184.325" transform="rotate(60 96.3512097757629 184.325)" text-anchor="middle" font-size="14px" font-family="Arial" fill="#000000" style="z-index: 4;">Component</text><path d="M103.1931896514853,137.50699874417302 C111.56021850723336,137.14168637498832 183.51666666666665,134.75026041666678 256.46666666666664,134.75026041666678" stroke-linejoin="round" fill="none" stroke="#339966" stroke-width="1"></path><path d="M103.8044998122123,144.49430585449215 C112.10785052621797,143.40114899464922 183.51666666666665,136.2507812500001 256.46666666666664,136.2507812500001" stroke-linejoin="round" fill="none" stroke="#339966" stroke-width="1"></path><path d="M105.02246769422402,151.4017449606235 C113.19894675385346,149.5890631938919 183.51666666666665,137.75130208333343 256.46666666666664,137.75130208333343" stroke-linejoin="round" fill="none" stroke="#339966" stroke-width="1"></path><path d="M106.83782382650922,158.17674628014356 C114.82520328902562,155.65833520929527 183.51666666666665,139.25182291666675 256.46666666666664,139.25182291666675" stroke-linejoin="round" fill="none" stroke="#339966" stroke-width="1"></path><path d="M109.2367522527592,164.76774796215324 C116.97424333754124,161.5627742160956 183.51666666666665,140.75234375000008 256.46666666666664,140.75234375000008" stroke-linejoin="round" fill="none" stroke="#339966" stroke-width="1"></path><path d="M112.20099567913763,171.12458850409672 C119.62971140700523,167.25744386825332 183.51666666666665,142.2528645833334 256.46666666666664,142.2528645833334" stroke-linejoin="round" fill="none" stroke="#339966" stroke-width="1"></path><path d="M115.70799442331065,177.19888851108462 C122.77139778199356,172.69900429117996 183.51666666666665,143.75338541666673 256.46666666666664,143.75338541666673" stroke-linejoin="round" fill="none" stroke="#339966" stroke-width="1"></path><path d="M119.73105810725134,182.94441889230112 C126.37539233219044,177.84604192435307 183.51666666666665,145.25390625000006 256.46666666666664,145.25390625000006" stroke-linejoin="round" fill="none" stroke="#339966" stroke-width="1"></path><path d="M124.2395687871327,188.31745269229907 C130.41426648291747,182.65938470351793 183.51666666666665,146.75442708333338 256.46666666666664,146.75442708333338" stroke-linejoin="round" fill="none" stroke="#339966" stroke-width="1"></path><path d="M129.19921397436758,193.27709787953398 C134.85728196314872,187.10240018374918 183.51666666666665,148.2549479166667 256.46666666666664,148.2549479166667" stroke-linejoin="round" fill="none" stroke="#339966" stroke-width="1"></path><path d="M134.5722477743655,197.7856085594153 C139.67062474231355,191.1412743344762 183.51666666666665,149.75546875000003 256.46666666666664,149.75546875000003" stroke-linejoin="round" fill="none" stroke="#339966" stroke-width="1"></path><path d="M140.31777815558203,201.808672243356 C144.8176623754867,194.7452688846731 183.51666666666665,151.25598958333336 256.46666666666664,151.25598958333336" stroke-linejoin="round" fill="none" stroke="#339966" stroke-width="1"></path><path d="M-56.950000000000024,98.64029349104754A113.89999999999999,113.89999999999999,0,0,0,56.94999999999998,98.64029349104756L40.19999999999999,69.62844246426886A80.39999999999999,80.39999999999999,0,0,1,-40.20000000000002,69.62844246426886Z" fill="#33FF99" stroke="none" transform="translate(183.51666666666665,134)"></path><text x="183.51666666666665" y="234.64999999999998" transform="rotate(0 183.51666666666665 234.64999999999998)" text-anchor="middle" font-size="14px" font-family="Arial" fill="#000000" style="z-index: 4;">Acceptance</text><path d="M146.39207816256993,205.31567098752902 C150.25922279841336,197.88695525966142 183.51666666666665,152.75651041666669 256.46666666666664,152.75651041666669" stroke-linejoin="round" fill="none" stroke="#33FF99" stroke-width="1"></path><path d="M152.74891870451344,208.27991441390745 C155.95389245057106,200.54242332912543 183.51666666666665,154.25703125 256.46666666666664,154.25703125" stroke-linejoin="round" fill="none" stroke="#33FF99" stroke-width="1"></path><path d="M159.33992038652312,210.67884284015744 C161.8583314573714,202.69146337764104 183.51666666666665,155.75755208333334 256.46666666666664,155.75755208333334" stroke-linejoin="round" fill="none" stroke="#33FF99" stroke-width="1"></path><path d="M166.1149217060432,212.49419897244263 C167.9276034727748,204.31771991281317 183.51666666666665,157.25807291666666 256.46666666666664,157.25807291666666" stroke-linejoin="round" fill="none" stroke="#33FF99" stroke-width="1"></path><path d="M173.02236081217453,213.71216685445435 C174.11551767201746,205.4088161404487 183.51666666666665,158.75859375 256.46666666666664,158.75859375" stroke-linejoin="round" fill="none" stroke="#33FF99" stroke-width="1"></path><path d="M180.00966792249363,214.32347701518137 C180.37498029167833,205.9564481594333 183.51666666666665,160.25911458333331 256.46666666666664,160.25911458333331" stroke-linejoin="round" fill="none" stroke="#33FF99" stroke-width="1"></path><path d="M187.0236654108397,214.32347701518137 C186.658353041655,205.9564481594333 183.51666666666665,161.75963541666664 256.46666666666664,161.75963541666664" stroke-linejoin="round" fill="none" stroke="#33FF99" stroke-width="1"></path><path d="M194.0109725211588,213.71216685445435 C192.91781566131587,205.40881614044866 183.51666666666665,163.26015624999997 256.46666666666664,163.26015624999997" stroke-linejoin="round" fill="none" stroke="#33FF99" stroke-width="1"></path><path d="M200.9184116272901,212.49419897244263 C199.1057298605585,204.31771991281317 183.51666666666665,164.7606770833333 256.46666666666664,164.7606770833333" stroke-linejoin="round" fill="none" stroke="#33FF99" stroke-width="1"></path><path d="M207.6934129468102,210.67884284015742 C205.17500187596193,202.691463377641 183.51666666666665,166.26119791666662 256.46666666666664,166.26119791666662" stroke-linejoin="round" fill="none" stroke="#33FF99" stroke-width="1"></path><path d="M214.28441462881986,208.27991441390745 C211.07944088276224,200.54242332912543 183.51666666666665,167.76171874999994 256.46666666666664,167.76171874999994" stroke-linejoin="round" fill="none" stroke="#33FF99" stroke-width="1"></path><path d="M220.64125517076337,205.31567098752902 C216.77411053491997,197.88695525966142 183.51666666666665,169.26223958333327 256.46666666666664,169.26223958333327" stroke-linejoin="round" fill="none" stroke="#33FF99" stroke-width="1"></path><g transform="translate(256.46666666666664,97.98750000000001)"><g><g stroke="url(#FeatureUI)" fill="none"><path class="link" d="M24,2.2507812500000033C55.28333333333333,2.2507812500000033 55.28333333333333,2.3507812500000034 86.56666666666666,2.3507812500000034" style="stroke-width: 3.50156;"><title>Feature → UI</title></path></g><g stroke="url(#FeatureServices)" fill="none"><path class="link" d="M24,6.752343750000003C55.28333333333333,6.752343750000003 55.28333333333333,20.357031250000002 86.56666666666666,20.357031250000002" style="stroke-width: 3.50156;"><title>Feature → Services</title></path></g><g stroke="url(#FeatureCloud)" fill="none"><path class="link" d="M24,11.253906250000002C55.28333333333333,11.253906250000002 55.28333333333333,38.36328125000001 86.56666666666666,38.36328125000001" style="stroke-width: 3.50156;"><title>Feature → Cloud</title></path></g><g stroke="url(#FeatureDatabase)" fill="none"><path class="link" d="M24,15.755468750000002C55.28333333333333,15.755468750000002 55.28333333333333,56.36953125 86.56666666666666,56.36953125" style="stroke-width: 3.50156;"><title>Feature → Database</title></path></g><g stroke="url(#TraceUI)" fill="none"><path class="link" d="M24,20.25703125C55.28333333333333,20.25703125 55.28333333333333,6.852343750000003 86.56666666666666,6.852343750000003" style="stroke-width: 3.50156;"><title>Trace → UI</title></path></g><g stroke="url(#TraceServices)" fill="none"><path class="link" d="M24,24.75859375C55.28333333333333,24.75859375 55.28333333333333,24.85859375 86.56666666666666,24.85859375" style="stroke-width: 3.50156;"><title>Trace → Services</title></path></g><g stroke="url(#TraceCloud)" fill="none"><path class="link" d="M24,29.260156249999998C55.28333333333333,29.260156249999998 55.28333333333333,42.864843750000006 86.56666666666666,42.864843750000006" style="stroke-width: 3.50156;"><title>Trace → Cloud</title></path></g><g stroke="url(#TraceDatabase)" fill="none"><path class="link" d="M24,33.76171875C55.28333333333333,33.76171875 55.28333333333333,60.87109375 86.56666666666666,60.87109375" style="stroke-width: 3.50156;"><title>Trace → Database</title></path></g><g stroke="url(#ComponentUI)" fill="none"><path class="link" d="M24,38.263281250000006C55.28333333333333,38.263281250000006 55.28333333333333,11.353906250000001 86.56666666666666,11.353906250000001" style="stroke-width: 3.50156;"><title>Component → UI</title></path></g><g stroke="url(#ComponentServices)" fill="none"><path class="link" d="M24,42.764843750000004C55.28333333333333,42.764843750000004 55.28333333333333,29.36015625 86.56666666666666,29.36015625" style="stroke-width: 3.50156;"><title>Component → Services</title></path></g><g stroke="url(#ComponentCloud)" fill="none"><path class="link" d="M24,47.26640625C55.28333333333333,47.26640625 55.28333333333333,47.366406250000004 86.56666666666666,47.366406250000004" style="stroke-width: 3.50156;"><title>Component → Cloud</title></path></g><g stroke="url(#ComponentDatabase)" fill="none"><path class="link" d="M24,51.76796875000001C55.28333333333333,51.76796875000001 55.28333333333333,65.37265624999999 86.56666666666666,65.37265624999999" style="stroke-width: 3.50156;"><title>Component → Database</title></path></g><g stroke="url(#AcceptanceUI)" fill="none"><path class="link" d="M24,56.26953125C55.28333333333333,56.26953125 55.28333333333333,15.855468750000002 86.56666666666666,15.855468750000002" style="stroke-width: 3.50156;"><title>Acceptance → UI</title></path></g><g stroke="url(#AcceptanceServices)" fill="none"><path class="link" d="M24,60.77109375C55.28333333333333,60.77109375 55.28333333333333,33.86171875 86.56666666666666,33.86171875" style="stroke-width: 3.50156;"><title>Acceptance → Services</title></path></g><g stroke="url(#AcceptanceCloud)" fill="none"><path class="link" d="M24,65.27265625C55.28333333333333,65.27265625 55.28333333333333,51.86796875000001 86.56666666666666,51.86796875000001" style="stroke-width: 3.50156;"><title>Acceptance → Cloud</title></path></g><g stroke="url(#AcceptanceDatabase)" fill="none"><path class="link" d="M24,69.77421875C55.28333333333333,69.77421875 55.28333333333333,69.87421875 86.56666666666666,69.87421875" style="stroke-width: 3.50156;"><title>Acceptance → Database</title></path></g></g><g><g class="node" transform="translate(0,3.552713678800501e-15)" style="-webkit-tap-highlight-color: rgba(0, 0, 0, 0);"><rect height="18.006249999999998" width="24" fill="#33CC66"><title>Feature</title></rect></g><g class="node" transform="translate(0,18.00625)" style="-webkit-tap-highlight-color: rgba(0, 0, 0, 0);"><rect height="18.006249999999998" width="24" fill="#99FFCC"><title>Trace</title></rect></g><g class="node" transform="translate(0,36.0125)" style="-webkit-tap-highlight-color: rgba(0, 0, 0, 0);"><rect height="18.006249999999998" width="24" fill="#339966"><title>Component</title></rect></g><g class="node" transform="translate(0,54.01875)" style="-webkit-tap-highlight-color: rgba(0, 0, 0, 0);"><rect height="18.006249999999998" width="24" fill="#33FF99"><title>Acceptance</title></rect></g><g class="node" transform="translate(86.56666666666666,3.552713678800501e-15)" style="-webkit-tap-highlight-color: rgba(0, 0, 0, 0);"><rect height="18.006249999999998" width="24" fill="#99FF99"><title>UI</title></rect></g><g class="node" transform="translate(86.56666666666666,18.00625)" style="-webkit-tap-highlight-color: rgba(0, 0, 0, 0);"><rect height="18.006249999999998" width="24" fill="#FFFF99"><title>Services</title></rect></g><g class="node" transform="translate(86.56666666666666,36.0125)" style="-webkit-tap-highlight-color: rgba(0, 0, 0, 0);"><rect height="18.006249999999998" width="24" fill="#FFCC99"><title>Cloud</title></rect></g><g class="node" transform="translate(86.56666666666666,54.01875)" style="-webkit-tap-highlight-color: rgba(0, 0, 0, 0);"><rect height="18.006249999999998" width="24" fill="#FF9999"><title>Database</title></rect></g></g></g><text x="183.51666666666665" y="146" id="AdaptInfoIconSvg" text-anchor="middle" font-size="2em" font-family="FontAwesome" style="z-index: 4;"></text><text x="183.51666666666665" y="246.56" id="AdaptInfoTextSvg" fill="wheat" text-anchor="middle" font-size="1.4em" font-family="Arial" style="z-index: 4;">Adapt</text></g></svg>