<svg id="BenefitInfoSvg" width="367.0333333333333" height="264.2033333333333" xmlns="http://www.w3.org/2000/svg"><defs><linearGradient id="WhiteBlack" y1="0%" y2="0%" x1="0%" x2="100%"><stop offset="10%" stop-color="white"></stop><stop offset="90%" stop-color="black"></stop></linearGradient><linearGradient id="UIQuantify" y1="0%" y2="0%" x1="0%" x2="100%"><stop offset="10%" stop-color="#99FF99"></stop><stop offset="90%" stop-color="#CC33CC"></stop></linearGradient><linearGradient id="UIArchitect" y1="0%" y2="0%" x1="0%" x2="100%"><stop offset="10%" stop-color="#99FF99"></stop><stop offset="90%" stop-color="#CC66CC"></stop></linearGradient><linearGradient id="UIReview" y1="0%" y2="0%" x1="0%" x2="100%"><stop offset="10%" stop-color="#99FF99"></stop><stop offset="90%" stop-color="#FFCCFF"></stop></linearGradient><linearGradient id="UIPatterns" y1="0%" y2="0%" x1="0%" x2="100%"><stop offset="10%" stop-color="#99FF99"></stop><stop offset="90%" stop-color="#CC99CC"></stop></linearGradient><linearGradient id="ServicesQuantify" y1="0%" y2="0%" x1="0%" x2="100%"><stop offset="10%" stop-color="#FFFF99"></stop><stop offset="90%" stop-color="#CC33CC"></stop></linearGradient><linearGradient id="ServicesArchitect" y1="0%" y2="0%" x1="0%" x2="100%"><stop offset="10%" stop-color="#FFFF99"></stop><stop offset="90%" stop-color="#CC66CC"></stop></linearGradient><linearGradient id="ServicesReview" y1="0%" y2="0%" x1="0%" x2="100%"><stop offset="10%" stop-color="#FFFF99"></stop><stop offset="90%" stop-color="#FFCCFF"></stop></linearGradient><linearGradient id="ServicesPatterns" y1="0%" y2="0%" x1="0%" x2="100%"><stop offset="10%" stop-color="#FFFF99"></stop><stop offset="90%" stop-color="#CC99CC"></stop></linearGradient><linearGradient id="CloudQuantify" y1="0%" y2="0%" x1="0%" x2="100%"><stop offset="10%" stop-color="#FFCC99"></stop><stop offset="90%" stop-color="#CC33CC"></stop></linearGradient><linearGradient id="CloudArchitect" y1="0%" y2="0%" x1="0%" x2="100%"><stop offset="10%" stop-color="#FFCC99"></stop><stop offset="90%" stop-color="#CC66CC"></stop></linearGradient><linearGradient id="CloudReview" y1="0%" y2="0%" x1="0%" x2="100%"><stop offset="10%" stop-color="#FFCC99"></stop><stop offset="90%" stop-color="#FFCCFF"></stop></linearGradient><linearGradient id="CloudPatterns" y1="0%" y2="0%" x1="0%" x2="100%"><stop offset="10%" stop-color="#FFCC99"></stop><stop offset="90%" stop-color="#CC99CC"></stop></linearGradient><linearGradient id="DatabaseQuantify" y1="0%" y2="0%" x1="0%" x2="100%"><stop offset="10%" stop-color="#FF9999"></stop><stop offset="90%" stop-color="#CC33CC"></stop></linearGradient><linearGradient id="DatabaseArchitect" y1="0%" y2="0%" x1="0%" x2="100%"><stop offset="10%" stop-color="#FF9999"></stop><stop offset="90%" stop-color="#CC66CC"></stop></linearGradient><linearGradient id="DatabaseReview" y1="0%" y2="0%" x1="0%" x2="100%"><stop offset="10%" stop-color="#FF9999"></stop><stop offset="90%" stop-color="#FFCCFF"></stop></linearGradient><linearGradient id="DatabasePatterns" y1="0%" y2="0%" x1="0%" x2="100%"><stop offset="10%" stop-color="#FF9999"></stop><stop offset="90%" stop-color="#CC99CC"></stop></linearGradient></defs><g id="BenefitInfoG" style=""><path d="M0,   100.5L110.42829549860737,100.5 A80.39999999999999,80.39999999999999 0, 1,1 110.42829549860737,167.5L0,   167.5 L0,100.5M150.01666666666665,134 A33.5,33.5 0, 1,0 150.01666666666665,133.999" stroke-linejoin="round" fill="#996699"></path><path d="M-56.950000000000045,-98.64029349104753A113.89999999999999,113.89999999999999,0,0,1,56.94999999999992,-98.6402934910476L40.19999999999994,-69.62844246426889A80.39999999999999,80.39999999999999,0,0,0,-40.20000000000003,-69.62844246426884Z" fill="#CC33CC" stroke="none" transform="translate(183.51666666666665,134)"></path><text x="183.51666666666662" y="43.85000000000001" transform="rotate(0 183.51666666666662 43.85000000000001)" text-anchor="middle" font-size="14px" font-family="Arial" fill="#000000" style="z-index: 4;">Quantify</text><path d="M146.39207816256987,62.684329012471 C150.2592227984133,70.11304474033861 183.51666666666665,98.73776041666667 126.56666666666666,98.73776041666667" stroke-linejoin="round" fill="none" stroke="#CC33CC" stroke-width="1"></path><path d="M152.74891870451347,59.72008558609255 C155.9538924505711,67.45757667087457 183.51666666666665,100.23828125000001 126.56666666666666,100.23828125000001" stroke-linejoin="round" fill="none" stroke="#CC33CC" stroke-width="1"></path><path d="M159.33992038652303,57.321157159842585 C161.85833145737132,65.30853662235899 183.51666666666665,101.73880208333335 126.56666666666666,101.73880208333335" stroke-linejoin="round" fill="none" stroke="#CC33CC" stroke-width="1"></path><path d="M166.1149217060432,55.50580102755737 C167.9276034727748,63.68228008718681 183.51666666666665,103.2393229166667 126.56666666666666,103.2393229166667" stroke-linejoin="round" fill="none" stroke="#CC33CC" stroke-width="1"></path><path d="M173.0223608121745,54.28783314554565 C174.11551767201743,62.59118385955132 183.51666666666665,104.73984375000003 126.56666666666666,104.73984375000003" stroke-linejoin="round" fill="none" stroke="#CC33CC" stroke-width="1"></path><path d="M180.00966792249363,53.67652298481865 C180.37498029167833,62.04355184056671 183.51666666666665,106.24036458333337 126.56666666666666,106.24036458333337" stroke-linejoin="round" fill="none" stroke="#CC33CC" stroke-width="1"></path><path d="M187.02366541083964,53.67652298481865 C186.65835304165495,62.04355184056671 183.51666666666665,107.74088541666671 126.56666666666666,107.74088541666671" stroke-linejoin="round" fill="none" stroke="#CC33CC" stroke-width="1"></path><path d="M194.01097252115883,54.28783314554565 C192.9178156613159,62.59118385955132 183.51666666666665,109.24140625000005 126.56666666666666,109.24140625000005" stroke-linejoin="round" fill="none" stroke="#CC33CC" stroke-width="1"></path><path d="M200.91841162729008,55.505801027557354 C199.10572986055848,63.6822800871868 183.51666666666665,110.7419270833334 126.56666666666666,110.7419270833334" stroke-linejoin="round" fill="none" stroke="#CC33CC" stroke-width="1"></path><path d="M207.69341294681016,57.321157159842556 C205.1750018759619,65.30853662235896 183.51666666666665,112.24244791666673 126.56666666666666,112.24244791666673" stroke-linejoin="round" fill="none" stroke="#CC33CC" stroke-width="1"></path><path d="M214.2844146288199,59.720085586092566 C211.07944088276224,67.45757667087459 183.51666666666665,113.74296875000007 126.56666666666666,113.74296875000007" stroke-linejoin="round" fill="none" stroke="#CC33CC" stroke-width="1"></path><path d="M220.64125517076332,62.684329012470954 C216.7741105349199,70.11304474033857 183.51666666666665,115.24348958333341 126.56666666666666,115.24348958333341" stroke-linejoin="round" fill="none" stroke="#CC33CC" stroke-width="1"></path><path d="M56.94999999999992,-98.6402934910476A113.89999999999999,113.89999999999999,0,0,1,113.89999999999999,-2.7897454084576703e-14L80.39999999999999,-1.969232053028944e-14A80.39999999999999,80.39999999999999,0,0,0,40.19999999999994,-69.62844246426889Z" fill="#CC66CC" stroke="none" transform="translate(183.51666666666665,134)"></path><text x="261.58885681783374" y="88.92499999999995" transform="rotate(60 261.58885681783374 88.92499999999995)" text-anchor="middle" font-size="14px" font-family="Arial" fill="#000000" style="z-index: 4;">Architect</text><path d="M226.7155551777513,66.191327756644 C222.21567095784664,73.2547311153269 183.51666666666665,116.74401041666675 126.56666666666666,116.74401041666675" stroke-linejoin="round" fill="none" stroke="#CC66CC" stroke-width="1"></path><path d="M232.4610855589678,70.2143914405847 C227.36270859101975,76.85872566552379 183.51666666666665,118.2445312500001 126.56666666666666,118.2445312500001" stroke-linejoin="round" fill="none" stroke="#CC66CC" stroke-width="1"></path><path d="M237.83411935896572,74.72290212046602 C232.17605137018455,80.89759981625082 183.51666666666665,119.74505208333343 126.56666666666666,119.74505208333343" stroke-linejoin="round" fill="none" stroke="#CC66CC" stroke-width="1"></path><path d="M242.7937645462006,79.6825473077009 C236.61906685041583,85.34061529648207 183.51666666666665,121.24557291666677 126.56666666666666,121.24557291666677" stroke-linejoin="round" fill="none" stroke="#CC66CC" stroke-width="1"></path><path d="M247.30227522608192,85.05558110769886 C240.65794100114283,90.15395807564688 183.51666666666665,122.74609375000011 126.56666666666666,122.74609375000011" stroke-linejoin="round" fill="none" stroke="#CC66CC" stroke-width="1"></path><path d="M251.32533891002265,90.80111148891534 C244.26193555133972,95.30099570881998 183.51666666666665,124.24661458333345 126.56666666666666,124.24661458333345" stroke-linejoin="round" fill="none" stroke="#CC66CC" stroke-width="1"></path><path d="M254.83233765419567,96.87541149590331 C247.40362192632807,100.74255613174671 183.51666666666665,125.7471354166668 126.56666666666666,125.7471354166668" stroke-linejoin="round" fill="none" stroke="#CC66CC" stroke-width="1"></path><path d="M257.79658108057413,103.2322520378468 C250.05908999579208,106.43722578390442 183.51666666666665,127.24765625000013 126.56666666666666,127.24765625000013" stroke-linejoin="round" fill="none" stroke="#CC66CC" stroke-width="1"></path><path d="M260.19550950682407,109.82325371985638 C252.20813004430767,112.34166479070468 183.51666666666665,128.74817708333347 126.56666666666666,128.74817708333347" stroke-linejoin="round" fill="none" stroke="#CC66CC" stroke-width="1"></path><path d="M262.0108656391093,116.59825503937654 C253.83438657947983,118.41093680610814 183.51666666666665,130.2486979166668 126.56666666666666,130.2486979166668" stroke-linejoin="round" fill="none" stroke="#CC66CC" stroke-width="1"></path><path d="M263.22883352112103,123.50569414550785 C254.92548280711532,124.59885100535078 183.51666666666665,131.74921875000013 126.56666666666666,131.74921875000013" stroke-linejoin="round" fill="none" stroke="#CC66CC" stroke-width="1"></path><path d="M263.840143681848,130.49300125582704 C255.47311482609996,130.85831362501173 183.51666666666665,133.24973958333345 126.56666666666666,133.24973958333345" stroke-linejoin="round" fill="none" stroke="#CC66CC" stroke-width="1"></path><path d="M113.89999999999999,-2.7897454084576703e-14A113.89999999999999,113.89999999999999,0,0,1,56.94999999999997,98.64029349104757L40.199999999999974,69.62844246426887A80.39999999999999,80.39999999999999,0,0,0,80.39999999999999,-1.969232053028944e-14Z" fill="#FFCCFF" stroke="none" transform="translate(183.51666666666665,134)"></path><text x="270.68212355757043" y="184.32499999999993" transform="rotate(300 270.68212355757043 184.32499999999993)" text-anchor="middle" font-size="14px" font-family="Arial" fill="#000000" style="z-index: 4;">Review</text><path d="M263.840143681848,137.506998744173 C255.47311482609996,137.1416863749883 183.51666666666665,134.75026041666678 126.56666666666666,134.75026041666678" stroke-linejoin="round" fill="none" stroke="#FFCCFF" stroke-width="1"></path><path d="M263.22883352112103,144.49430585449213 C254.92548280711534,143.4011489946492 183.51666666666665,136.2507812500001 126.56666666666666,136.2507812500001" stroke-linejoin="round" fill="none" stroke="#FFCCFF" stroke-width="1"></path><path d="M262.0108656391093,151.4017449606235 C253.83438657947983,149.5890631938919 183.51666666666665,137.75130208333343 126.56666666666666,137.75130208333343" stroke-linejoin="round" fill="none" stroke="#FFCCFF" stroke-width="1"></path><path d="M260.1955095068241,158.1767462801435 C252.20813004430772,155.65833520929522 183.51666666666665,139.25182291666675 126.56666666666666,139.25182291666675" stroke-linejoin="round" fill="none" stroke="#FFCCFF" stroke-width="1"></path><path d="M257.79658108057413,164.76774796215315 C250.05908999579208,161.56277421609553 183.51666666666665,140.75234375000008 126.56666666666666,140.75234375000008" stroke-linejoin="round" fill="none" stroke="#FFCCFF" stroke-width="1"></path><path d="M254.83233765419567,171.12458850409672 C247.40362192632807,167.25744386825332 183.51666666666665,142.2528645833334 126.56666666666666,142.2528645833334" stroke-linejoin="round" fill="none" stroke="#FFCCFF" stroke-width="1"></path><path d="M251.32533891002265,177.19888851108462 C244.26193555133975,172.69900429117996 183.51666666666665,143.75338541666673 126.56666666666666,143.75338541666673" stroke-linejoin="round" fill="none" stroke="#FFCCFF" stroke-width="1"></path><path d="M247.302275226082,182.9444188923011 C240.65794100114292,177.84604192435305 183.51666666666665,145.25390625000006 126.56666666666666,145.25390625000006" stroke-linejoin="round" fill="none" stroke="#FFCCFF" stroke-width="1"></path><path d="M242.79376454620063,188.31745269229907 C236.61906685041583,182.6593847035179 183.51666666666665,146.75442708333338 126.56666666666666,146.75442708333338" stroke-linejoin="round" fill="none" stroke="#FFCCFF" stroke-width="1"></path><path d="M237.83411935896575,193.27709787953393 C232.17605137018458,187.10240018374915 183.51666666666665,148.2549479166667 126.56666666666666,148.2549479166667" stroke-linejoin="round" fill="none" stroke="#FFCCFF" stroke-width="1"></path><path d="M232.46108555896774,197.78560855941532 C227.36270859101973,191.14127433447624 183.51666666666665,149.75546875000003 126.56666666666666,149.75546875000003" stroke-linejoin="round" fill="none" stroke="#FFCCFF" stroke-width="1"></path><path d="M226.7155551777513,201.808672243356 C222.21567095784667,194.74526888467307 183.51666666666665,151.25598958333336 126.56666666666666,151.25598958333336" stroke-linejoin="round" fill="none" stroke="#FFCCFF" stroke-width="1"></path><path d="M56.94999999999997,98.64029349104757A113.89999999999999,113.89999999999999,0,0,1,-56.95000000000008,98.64029349104752L-40.20000000000006,69.62844246426883A80.39999999999999,80.39999999999999,0,0,0,40.199999999999974,69.62844246426887Z" fill="#CC99CC" stroke="none" transform="translate(183.51666666666665,134)"></path><text x="183.51666666666668" y="234.64999999999998" transform="rotate(360 183.51666666666668 234.64999999999998)" text-anchor="middle" font-size="14px" font-family="Arial" fill="#000000" style="z-index: 4;">Patterns</text><path d="M220.64125517076343,205.315670987529 C216.77411053492,197.8869552596614 183.51666666666665,152.75651041666669 126.56666666666666,152.75651041666669" stroke-linejoin="round" fill="none" stroke="#CC99CC" stroke-width="1"></path><path d="M214.28441462881986,208.27991441390745 C211.07944088276224,200.54242332912543 183.51666666666665,154.25703125 126.56666666666666,154.25703125" stroke-linejoin="round" fill="none" stroke="#CC99CC" stroke-width="1"></path><path d="M207.6934129468102,210.67884284015744 C205.17500187596193,202.69146337764104 183.51666666666665,155.75755208333334 126.56666666666666,155.75755208333334" stroke-linejoin="round" fill="none" stroke="#CC99CC" stroke-width="1"></path><path d="M200.9184116272902,212.49419897244263 C199.10572986055857,204.31771991281317 183.51666666666665,157.25807291666666 126.56666666666666,157.25807291666666" stroke-linejoin="round" fill="none" stroke="#CC99CC" stroke-width="1"></path><path d="M194.0109725211588,213.71216685445435 C192.91781566131587,205.40881614044866 183.51666666666665,158.75859375 126.56666666666666,158.75859375" stroke-linejoin="round" fill="none" stroke="#CC99CC" stroke-width="1"></path><path d="M187.0236654108397,214.32347701518137 C186.658353041655,205.9564481594333 183.51666666666665,160.25911458333331 126.56666666666666,160.25911458333331" stroke-linejoin="round" fill="none" stroke="#CC99CC" stroke-width="1"></path><path d="M180.00966792249375,214.32347701518137 C180.3749802916784,205.9564481594333 183.51666666666665,161.75963541666664 126.56666666666666,161.75963541666664" stroke-linejoin="round" fill="none" stroke="#CC99CC" stroke-width="1"></path><path d="M173.02236081217455,213.71216685445435 C174.11551767201746,205.4088161404487 183.51666666666665,163.26015624999997 126.56666666666666,163.26015624999997" stroke-linejoin="round" fill="none" stroke="#CC99CC" stroke-width="1"></path><path d="M166.11492170604316,212.49419897244263 C167.92760347277476,204.31771991281317 183.51666666666665,164.7606770833333 126.56666666666666,164.7606770833333" stroke-linejoin="round" fill="none" stroke="#CC99CC" stroke-width="1"></path><path d="M159.3399203865231,210.67884284015742 C161.85833145737138,202.691463377641 183.51666666666665,166.26119791666662 126.56666666666666,166.26119791666662" stroke-linejoin="round" fill="none" stroke="#CC99CC" stroke-width="1"></path><path d="M152.74891870451356,208.2799144139075 C155.95389245057117,200.54242332912548 183.51666666666665,167.76171874999994 126.56666666666666,167.76171874999994" stroke-linejoin="round" fill="none" stroke="#CC99CC" stroke-width="1"></path><path d="M146.39207816256993,205.31567098752902 C150.25922279841333,197.88695525966142 183.51666666666665,169.26223958333327 126.56666666666666,169.26223958333327" stroke-linejoin="round" fill="none" stroke="#CC99CC" stroke-width="1"></path><g transform="translate(0,97.98750000000001)"><g><g stroke="url(#UIQuantify)" fill="none"><path class="link" d="M24,2.2507812500000033C63.28333333333333,2.2507812500000033 63.28333333333333,2.3507812500000034 102.56666666666666,2.3507812500000034" style="stroke-width: 3.50156;"><title>UI → Quantify</title></path></g><g stroke="url(#UIArchitect)" fill="none"><path class="link" d="M24,6.752343750000003C63.28333333333333,6.752343750000003 63.28333333333333,20.357031250000002 102.56666666666666,20.357031250000002" style="stroke-width: 3.50156;"><title>UI → Architect</title></path></g><g stroke="url(#UIReview)" fill="none"><path class="link" d="M24,11.253906250000002C63.28333333333333,11.253906250000002 63.28333333333333,38.36328125000001 102.56666666666666,38.36328125000001" style="stroke-width: 3.50156;"><title>UI → Review</title></path></g><g stroke="url(#UIPatterns)" fill="none"><path class="link" d="M24,15.755468750000002C63.28333333333333,15.755468750000002 63.28333333333333,56.36953125 102.56666666666666,56.36953125" style="stroke-width: 3.50156;"><title>UI → Patterns</title></path></g><g stroke="url(#ServicesQuantify)" fill="none"><path class="link" d="M24,20.25703125C63.28333333333333,20.25703125 63.28333333333333,6.852343750000003 102.56666666666666,6.852343750000003" style="stroke-width: 3.50156;"><title>Services → Quantify</title></path></g><g stroke="url(#ServicesArchitect)" fill="none"><path class="link" d="M24,24.75859375C63.28333333333333,24.75859375 63.28333333333333,24.85859375 102.56666666666666,24.85859375" style="stroke-width: 3.50156;"><title>Services → Architect</title></path></g><g stroke="url(#ServicesReview)" fill="none"><path class="link" d="M24,29.260156249999998C63.28333333333333,29.260156249999998 63.28333333333333,42.864843750000006 102.56666666666666,42.864843750000006" style="stroke-width: 3.50156;"><title>Services → Review</title></path></g><g stroke="url(#ServicesPatterns)" fill="none"><path class="link" d="M24,33.76171875C63.28333333333333,33.76171875 63.28333333333333,60.87109375 102.56666666666666,60.87109375" style="stroke-width: 3.50156;"><title>Services → Patterns</title></path></g><g stroke="url(#CloudQuantify)" fill="none"><path class="link" d="M24,38.263281250000006C63.28333333333333,38.263281250000006 63.28333333333333,11.353906250000001 102.56666666666666,11.353906250000001" style="stroke-width: 3.50156;"><title>Cloud → Quantify</title></path></g><g stroke="url(#CloudArchitect)" fill="none"><path class="link" d="M24,42.764843750000004C63.28333333333333,42.764843750000004 63.28333333333333,29.36015625 102.56666666666666,29.36015625" style="stroke-width: 3.50156;"><title>Cloud → Architect</title></path></g><g stroke="url(#CloudReview)" fill="none"><path class="link" d="M24,47.26640625C63.28333333333333,47.26640625 63.28333333333333,47.366406250000004 102.56666666666666,47.366406250000004" style="stroke-width: 3.50156;"><title>Cloud → Review</title></path></g><g stroke="url(#CloudPatterns)" fill="none"><path class="link" d="M24,51.76796875000001C63.28333333333333,51.76796875000001 63.28333333333333,65.37265624999999 102.56666666666666,65.37265624999999" style="stroke-width: 3.50156;"><title>Cloud → Patterns</title></path></g><g stroke="url(#DatabaseQuantify)" fill="none"><path class="link" d="M24,56.26953125C63.28333333333333,56.26953125 63.28333333333333,15.855468750000002 102.56666666666666,15.855468750000002" style="stroke-width: 3.50156;"><title>Database → Quantify</title></path></g><g stroke="url(#DatabaseArchitect)" fill="none"><path class="link" d="M24,60.77109375C63.28333333333333,60.77109375 63.28333333333333,33.86171875 102.56666666666666,33.86171875" style="stroke-width: 3.50156;"><title>Database → Architect</title></path></g><g stroke="url(#DatabaseReview)" fill="none"><path class="link" d="M24,65.27265625C63.28333333333333,65.27265625 63.28333333333333,51.86796875000001 102.56666666666666,51.86796875000001" style="stroke-width: 3.50156;"><title>Database → Review</title></path></g><g stroke="url(#DatabasePatterns)" fill="none"><path class="link" d="M24,69.77421875C63.28333333333333,69.77421875 63.28333333333333,69.87421875 102.56666666666666,69.87421875" style="stroke-width: 3.50156;"><title>Database → Patterns</title></path></g></g><g><g class="node" transform="translate(0,3.552713678800501e-15)" style="-webkit-tap-highlight-color: rgba(0, 0, 0, 0);"><rect height="18.006249999999998" width="24" fill="#99FF99"><title>UI</title></rect></g><g class="node" transform="translate(0,18.00625)" style="-webkit-tap-highlight-color: rgba(0, 0, 0, 0);"><rect height="18.006249999999998" width="24" fill="#FFFF99"><title>Services</title></rect></g><g class="node" transform="translate(0,36.0125)" style="-webkit-tap-highlight-color: rgba(0, 0, 0, 0);"><rect height="18.006249999999998" width="24" fill="#FFCC99"><title>Cloud</title></rect></g><g class="node" transform="translate(0,54.01875)" style="-webkit-tap-highlight-color: rgba(0, 0, 0, 0);"><rect height="18.006249999999998" width="24" fill="#FF9999"><title>Database</title></rect></g><g class="node" transform="translate(102.56666666666666,3.552713678800501e-15)" style="-webkit-tap-highlight-color: rgba(0, 0, 0, 0);"><rect height="18.006249999999998" width="24" fill="#CC33CC"><title>Quantify</title></rect></g><g class="node" transform="translate(102.56666666666666,18.00625)" style="-webkit-tap-highlight-color: rgba(0, 0, 0, 0);"><rect height="18.006249999999998" width="24" fill="#CC66CC"><title>Architect</title></rect></g><g class="node" transform="translate(102.56666666666666,36.0125)" style="-webkit-tap-highlight-color: rgba(0, 0, 0, 0);"><rect height="18.006249999999998" width="24" fill="#FFCCFF"><title>Review</title></rect></g><g class="node" transform="translate(102.56666666666666,54.01875)" style="-webkit-tap-highlight-color: rgba(0, 0, 0, 0);"><rect height="18.006249999999998" width="24" fill="#CC99CC"><title>Patterns</title></rect></g></g></g><text x="183.51666666666665" y="146" id="BenefitInfoIconSvg" text-anchor="middle" font-size="2em" font-family="FontAwesome" style="z-index: 4;"></text><text x="183.51666666666665" y="246.56" id="BenefitInfoTextSvg" fill="wheat" text-anchor="middle" font-size="1.4em" font-family="Arial" style="z-index: 4;">Benefit</text></g></svg>