<svg id="ChangeInfoSvg" width="367.0333333333333" height="264.2033333333333" xmlns="http://www.w3.org/2000/svg"><defs><linearGradient id="WhiteBlack" y1="0%" y2="0%" x1="0%" x2="100%"><stop offset="10%" stop-color="white"></stop><stop offset="90%" stop-color="black"></stop></linearGradient><linearGradient id="TestSupport" y1="0%" y2="0%" x1="0%" x2="100%"><stop offset="10%" stop-color="#339966"></stop><stop offset="90%" stop-color="#99FF99"></stop></linearGradient><linearGradient id="TestNetwork" y1="0%" y2="0%" x1="0%" x2="100%"><stop offset="10%" stop-color="#339966"></stop><stop offset="90%" stop-color="#FFCC99"></stop></linearGradient><linearGradient id="TestSecurity" y1="0%" y2="0%" x1="0%" x2="100%"><stop offset="10%" stop-color="#339966"></stop><stop offset="90%" stop-color="#CC6666"></stop></linearGradient><linearGradient id="TestWarehouse" y1="0%" y2="0%" x1="0%" x2="100%"><stop offset="10%" stop-color="#339966"></stop><stop offset="90%" stop-color="#FF9999"></stop></linearGradient><linearGradient id="TransitionSupport" y1="0%" y2="0%" x1="0%" x2="100%"><stop offset="10%" stop-color="#99FFCC"></stop><stop offset="90%" stop-color="#99FF99"></stop></linearGradient><linearGradient id="TransitionNetwork" y1="0%" y2="0%" x1="0%" x2="100%"><stop offset="10%" stop-color="#99FFCC"></stop><stop offset="90%" stop-color="#FFCC99"></stop></linearGradient><linearGradient id="TransitionSecurity" y1="0%" y2="0%" x1="0%" x2="100%"><stop offset="10%" stop-color="#99FFCC"></stop><stop offset="90%" stop-color="#CC6666"></stop></linearGradient><linearGradient id="TransitionWarehouse" y1="0%" y2="0%" x1="0%" x2="100%"><stop offset="10%" stop-color="#99FFCC"></stop><stop offset="90%" stop-color="#FF9999"></stop></linearGradient><linearGradient id="AutomateSupport" y1="0%" y2="0%" x1="0%" x2="100%"><stop offset="10%" stop-color="#33CC66"></stop><stop offset="90%" stop-color="#99FF99"></stop></linearGradient><linearGradient id="AutomateNetwork" y1="0%" y2="0%" x1="0%" x2="100%"><stop offset="10%" stop-color="#33CC66"></stop><stop offset="90%" stop-color="#FFCC99"></stop></linearGradient><linearGradient id="AutomateSecurity" y1="0%" y2="0%" x1="0%" x2="100%"><stop offset="10%" stop-color="#33CC66"></stop><stop offset="90%" stop-color="#CC6666"></stop></linearGradient><linearGradient id="AutomateWarehouse" y1="0%" y2="0%" x1="0%" x2="100%"><stop offset="10%" stop-color="#33CC66"></stop><stop offset="90%" stop-color="#FF9999"></stop></linearGradient></defs><g id="ChangeInfoG" style=""><path d="M367.0333333333333,   100.5L256.6050378347259,100.5 A80.39999999999999,80.39999999999999 0, 1,0 256.6050378347259,167.5L367.0333333333333,   167.5 L367.0333333333333,100.5M217.01666666666665,134 A33.5,33.5 0, 1,1 217.01666666666665,133.999" stroke-linejoin="round" fill="#66CC99"></path><path d="M56.94999999999992,-98.6402934910476A113.89999999999999,113.89999999999999,0,0,0,-87.2524620712516,-73.21350874329681L-61.589973226765835,-51.68012381879775A80.39999999999999,80.39999999999999,0,0,1,40.19999999999994,-69.62844246426889Z" fill="#339966" stroke="none" transform="translate(183.51666666666665,134)"></path><text x="167.86228344999287" y="45.219581065949455" transform="rotate(-10 167.86228344999287 45.219581065949455)" text-anchor="middle" font-size="14px" font-family="Arial" fill="#000000" style="z-index: 4;">Test</text><path d="M219.60012075478386,62.15193571799769 C215.84142762060497,69.63610908070626 183.51666666666665,98.98784722222223 256.46666666666664,98.98784722222223" stroke-linejoin="round" fill="none" stroke="#339966" stroke-width="1"></path><path d="M211.01508619005037,58.44871328881297 C208.1506674896979,66.31863898789494 183.51666666666665,100.98854166666668 256.46666666666664,100.98854166666668" stroke-linejoin="round" fill="none" stroke="#339966" stroke-width="1"></path><path d="M202.05818267435882,55.76719240538216 C200.12677475689088,63.91644319648819 183.51666666666665,102.98923611111113 256.46666666666664,102.98923611111113" stroke-linejoin="round" fill="none" stroke="#339966" stroke-width="1"></path><path d="M192.85053696233513,54.14363603754779 C191.8782588065363,62.46200728363657 183.51666666666665,104.98993055555557 256.46666666666664,104.98993055555557" stroke-linejoin="round" fill="none" stroke="#339966" stroke-width="1"></path><path d="M183.51666666666662,53.60000000000001 C183.51666666666665,61.97500000000001 183.51666666666665,106.99062500000002 256.46666666666664,106.99062500000002" stroke-linejoin="round" fill="none" stroke="#339966" stroke-width="1"></path><path d="M174.1827963709981,54.14363603754779 C175.1550745267969,62.46200728363657 183.51666666666665,108.99131944444447 256.46666666666664,108.99131944444447" stroke-linejoin="round" fill="none" stroke="#339966" stroke-width="1"></path><path d="M164.97515065897437,55.76719240538219 C166.9065585764423,63.91644319648822 183.51666666666665,110.99201388888892 256.46666666666664,110.99201388888892" stroke-linejoin="round" fill="none" stroke="#339966" stroke-width="1"></path><path d="M156.01824714328285,58.44871328881298 C158.88266584363532,66.31863898789497 183.51666666666665,112.99270833333337 256.46666666666664,112.99270833333337" stroke-linejoin="round" fill="none" stroke="#339966" stroke-width="1"></path><path d="M147.43321257854947,62.151935717997674 C151.19190571272836,69.63610908070625 183.51666666666665,114.99340277777782 256.46666666666664,114.99340277777782" stroke-linejoin="round" fill="none" stroke="#339966" stroke-width="1"></path><path d="M139.33614482977381,66.82677996239995 C143.9382825211168,73.82399038298328 183.51666666666665,116.99409722222227 256.46666666666664,116.99409722222227" stroke-linejoin="round" fill="none" stroke="#339966" stroke-width="1"></path><path d="M131.83654284786888,72.4100267732342 C137.21988907899365,78.82564898435562 183.51666666666665,118.99479166666671 256.46666666666664,118.99479166666671" stroke-linejoin="round" fill="none" stroke="#339966" stroke-width="1"></path><path d="M125.03582588419351,78.82617231535387 C131.1275801323678,84.5734460325045 183.51666666666665,120.99548611111116 256.46666666666664,120.99548611111116" stroke-linejoin="round" fill="none" stroke="#339966" stroke-width="1"></path><path d="M-87.2524620712516,-73.21350874329681A113.89999999999999,113.89999999999999,0,0,0,-87.25246207125157,73.21350874329684L-61.589973226765814,51.68012381879777A80.39999999999999,80.39999999999999,0,0,1,-61.589973226765835,-51.68012381879775Z" fill="#99FFCC" stroke="none" transform="translate(183.51666666666665,134)"></path><text x="93.36666666666666" y="134" transform="rotate(-90 93.36666666666666 134)" text-anchor="middle" font-size="14px" font-family="Arial" fill="#000000" style="z-index: 4;">Transition</text><path d="M119.0259619691611,85.98844922709604 C125.7437437084846,90.98965243260687 183.51666666666665,122.99618055555561 256.46666666666664,122.99618055555561" stroke-linejoin="round" fill="none" stroke="#99FFCC" stroke-width="1"></path><path d="M113.8882242023978,93.8 C121.14118695909247,97.9875 183.51666666666665,124.99687500000006 256.46666666666664,124.99687500000006" stroke-linejoin="round" fill="none" stroke="#99FFCC" stroke-width="1"></path><path d="M109.69209167349263,102.15518681045178 C117.38215156861493,105.47235485102972 183.51666666666665,126.99756944444451 256.46666666666664,126.99756944444451" stroke-linejoin="round" fill="none" stroke="#99FFCC" stroke-width="1"></path><path d="M106.49430987650136,110.94102009002833 C114.51747204214358,113.34299716398371 183.51666666666665,128.99826388888894 256.46666666666664,128.99826388888894" stroke-linejoin="round" fill="none" stroke="#99FFCC" stroke-width="1"></path><path d="M104.33812332448514,120.03868651557876 C112.58588825596239,121.4929900035393 183.51666666666665,130.99895833333338 256.46666666666664,130.99895833333338" stroke-linejoin="round" fill="none" stroke="#99FFCC" stroke-width="1"></path><path d="M103.25269074165669,129.3251557555977 C111.61352156717857,129.81211869772295 183.51666666666665,132.9996527777778 256.46666666666664,132.9996527777778" stroke-linejoin="round" fill="none" stroke="#99FFCC" stroke-width="1"></path><path d="M103.25269074165669,138.6748442444022 C111.61352156717857,138.187881302277 183.51666666666665,135.00034722222225 256.46666666666664,135.00034722222225" stroke-linejoin="round" fill="none" stroke="#99FFCC" stroke-width="1"></path><path d="M104.33812332448511,147.9613134844211 C112.58588825596236,146.5070099964606 183.51666666666665,137.00104166666668 256.46666666666664,137.00104166666668" stroke-linejoin="round" fill="none" stroke="#99FFCC" stroke-width="1"></path><path d="M106.49430987650133,157.05897990997158 C114.51747204214355,154.6570028360162 183.51666666666665,139.00173611111111 256.46666666666664,139.00173611111111" stroke-linejoin="round" fill="none" stroke="#99FFCC" stroke-width="1"></path><path d="M109.6920916734926,165.84481318954812 C117.3821515686149,162.5276451489702 183.51666666666665,141.00243055555555 256.46666666666664,141.00243055555555" stroke-linejoin="round" fill="none" stroke="#99FFCC" stroke-width="1"></path><path d="M113.88822420239774,174.1999999999999 C121.14118695909242,170.0124999999999 183.51666666666665,143.00312499999998 256.46666666666664,143.00312499999998" stroke-linejoin="round" fill="none" stroke="#99FFCC" stroke-width="1"></path><path d="M119.02596196916107,182.01155077290392 C125.74374370848457,177.0103475673931 183.51666666666665,145.00381944444442 256.46666666666664,145.00381944444442" stroke-linejoin="round" fill="none" stroke="#99FFCC" stroke-width="1"></path><path d="M-87.25246207125157,73.21350874329684A113.89999999999999,113.89999999999999,0,0,0,56.94999999999998,98.64029349104756L40.19999999999999,69.62844246426886A80.39999999999999,80.39999999999999,0,0,1,-61.589973226765814,51.68012381879777Z" fill="#33CC66" stroke="none" transform="translate(183.51666666666665,134)"></path><text x="166.0389775844901" y="233.12090034067873" transform="rotate(10 166.0389775844901 233.12090034067873)" text-anchor="middle" font-size="14px" font-family="Arial" fill="#000000" style="z-index: 4;">Automate</text><path d="M125.03582588419354,189.17382768464617 C131.12758013236783,183.42655396749552 183.51666666666665,147.00451388888885 256.46666666666664,147.00451388888885" stroke-linejoin="round" fill="none" stroke="#33CC66" stroke-width="1"></path><path d="M131.83654284786888,195.58997322676584 C137.21988907899367,189.1743510156444 183.51666666666665,149.0052083333333 256.46666666666664,149.0052083333333" stroke-linejoin="round" fill="none" stroke="#33CC66" stroke-width="1"></path><path d="M139.33614482977384,201.17322003760006 C143.93828252111686,194.17600961701675 183.51666666666665,151.00590277777772 256.46666666666664,151.00590277777772" stroke-linejoin="round" fill="none" stroke="#33CC66" stroke-width="1"></path><path d="M147.43321257854947,205.84806428200233 C151.19190571272833,198.36389091929374 183.51666666666665,153.00659722222215 256.46666666666664,153.00659722222215" stroke-linejoin="round" fill="none" stroke="#33CC66" stroke-width="1"></path><path d="M156.01824714328285,209.551286711187 C158.88266584363532,201.68136101210501 183.51666666666665,155.0072916666666 256.46666666666664,155.0072916666666" stroke-linejoin="round" fill="none" stroke="#33CC66" stroke-width="1"></path><path d="M164.97515065897443,212.2328075946178 C166.90655857644236,204.08355680351178 183.51666666666665,157.00798611111102 256.46666666666664,157.00798611111102" stroke-linejoin="round" fill="none" stroke="#33CC66" stroke-width="1"></path><path d="M174.18279637099812,213.8563639624522 C175.1550745267969,205.53799271636342 183.51666666666665,159.00868055555546 256.46666666666664,159.00868055555546" stroke-linejoin="round" fill="none" stroke="#33CC66" stroke-width="1"></path><path d="M183.51666666666665,214.39999999999998 C183.51666666666665,206.02499999999998 183.51666666666665,161.0093749999999 256.46666666666664,161.0093749999999" stroke-linejoin="round" fill="none" stroke="#33CC66" stroke-width="1"></path><path d="M192.85053696233518,213.8563639624522 C191.8782588065364,205.53799271636342 183.51666666666665,163.01006944444433 256.46666666666664,163.01006944444433" stroke-linejoin="round" fill="none" stroke="#33CC66" stroke-width="1"></path><path d="M202.0581826743589,212.2328075946178 C200.12677475689097,204.08355680351178 183.51666666666665,165.01076388888876 256.46666666666664,165.01076388888876" stroke-linejoin="round" fill="none" stroke="#33CC66" stroke-width="1"></path><path d="M211.01508619005048,209.551286711187 C208.150667489698,201.68136101210501 183.51666666666665,167.0114583333332 256.46666666666664,167.0114583333332" stroke-linejoin="round" fill="none" stroke="#33CC66" stroke-width="1"></path><path d="M219.60012075478392,205.84806428200227 C215.84142762060503,198.3638909192937 183.51666666666665,169.01215277777763 256.46666666666664,169.01215277777763" stroke-linejoin="round" fill="none" stroke="#33CC66" stroke-width="1"></path><g transform="translate(256.46666666666664,97.98750000000001)"><g><g stroke="url(#TestSupport)" fill="none"><path class="link" d="M24,3.0010416666666733C55.28333333333333,3.0010416666666733 55.28333333333333,3.1010416666666805 86.56666666666666,3.1010416666666805" style="stroke-width: 5.00208;"><title>Test → Support</title></path></g><g stroke="url(#TestNetwork)" fill="none"><path class="link" d="M24,9.003125000000006C55.28333333333333,9.003125000000006 55.28333333333333,21.107291666666676 86.56666666666666,21.107291666666676" style="stroke-width: 5.00208;"><title>Test → Network</title></path></g><g stroke="url(#TestSecurity)" fill="none"><path class="link" d="M24,15.005208333333337C55.28333333333333,15.005208333333337 55.28333333333333,39.11354166666667 86.56666666666666,39.11354166666667" style="stroke-width: 5.00208;"><title>Test → Security</title></path></g><g stroke="url(#TestWarehouse)" fill="none"><path class="link" d="M24,21.00729166666667C55.28333333333333,21.00729166666667 55.28333333333333,57.119791666666664 86.56666666666666,57.119791666666664" style="stroke-width: 5.00208;"><title>Test → Warehouse</title></path></g><g stroke="url(#TransitionSupport)" fill="none"><path class="link" d="M24,27.009375000000006C55.28333333333333,27.009375000000006 55.28333333333333,9.103125000000013 86.56666666666666,9.103125000000013" style="stroke-width: 5.00208;"><title>Transition → Support</title></path></g><g stroke="url(#TransitionNetwork)" fill="none"><path class="link" d="M24,33.01145833333334C55.28333333333333,33.01145833333334 55.28333333333333,27.109375000000007 86.56666666666666,27.109375000000007" style="stroke-width: 5.00208;"><title>Transition → Network</title></path></g><g stroke="url(#TransitionSecurity)" fill="none"><path class="link" d="M24,39.01354166666667C55.28333333333333,39.01354166666667 55.28333333333333,45.115625 86.56666666666666,45.115625" style="stroke-width: 5.00208;"><title>Transition → Security</title></path></g><g stroke="url(#TransitionWarehouse)" fill="none"><path class="link" d="M24,45.015625C55.28333333333333,45.015625 55.28333333333333,63.121874999999996 86.56666666666666,63.121874999999996" style="stroke-width: 5.00208;"><title>Transition → Warehouse</title></path></g><g stroke="url(#AutomateSupport)" fill="none"><path class="link" d="M24,51.01770833333333C55.28333333333333,51.01770833333333 55.28333333333333,15.105208333333344 86.56666666666666,15.105208333333344" style="stroke-width: 5.00208;"><title>Automate → Support</title></path></g><g stroke="url(#AutomateNetwork)" fill="none"><path class="link" d="M24,57.01979166666666C55.28333333333333,57.01979166666666 55.28333333333333,33.11145833333334 86.56666666666666,33.11145833333334" style="stroke-width: 5.00208;"><title>Automate → Network</title></path></g><g stroke="url(#AutomateSecurity)" fill="none"><path class="link" d="M24,63.021874999999994C55.28333333333333,63.021874999999994 55.28333333333333,51.11770833333333 86.56666666666666,51.11770833333333" style="stroke-width: 5.00208;"><title>Automate → Security</title></path></g><g stroke="url(#AutomateWarehouse)" fill="none"><path class="link" d="M24,69.02395833333333C55.28333333333333,69.02395833333333 55.28333333333333,69.12395833333332 86.56666666666666,69.12395833333332" style="stroke-width: 5.00208;"><title>Automate → Warehouse</title></path></g></g><g><g class="node" transform="translate(0,7.105427357601002e-15)" style="-webkit-tap-highlight-color: rgba(0, 0, 0, 0);"><rect height="24.00833333333333" width="24" fill="#339966"><title>Test</title></rect></g><g class="node" transform="translate(0,24.00833333333334)" style="-webkit-tap-highlight-color: rgba(0, 0, 0, 0);"><rect height="24.00833333333333" width="24" fill="#99FFCC"><title>Transition</title></rect></g><g class="node" transform="translate(0,48.016666666666666)" style="-webkit-tap-highlight-color: rgba(0, 0, 0, 0);"><rect height="24.00833333333333" width="24" fill="#33CC66"><title>Automate</title></rect></g><g class="node" transform="translate(86.56666666666666,1.4210854715202004e-14)" style="-webkit-tap-highlight-color: rgba(0, 0, 0, 0);"><rect height="18.006249999999998" width="24" fill="#99FF99"><title>Support</title></rect></g><g class="node" transform="translate(86.56666666666666,18.00625000000001)" style="-webkit-tap-highlight-color: rgba(0, 0, 0, 0);"><rect height="18.006249999999998" width="24" fill="#FFCC99"><title>Network</title></rect></g><g class="node" transform="translate(86.56666666666666,36.0125)" style="-webkit-tap-highlight-color: rgba(0, 0, 0, 0);"><rect height="18.006249999999998" width="24" fill="#CC6666"><title>Security</title></rect></g><g class="node" transform="translate(86.56666666666666,54.01875)" style="-webkit-tap-highlight-color: rgba(0, 0, 0, 0);"><rect height="18.006249999999998" width="24" fill="#FF9999"><title>Warehouse</title></rect></g></g></g><text x="183.51666666666665" y="146" id="ChangeInfoIconSvg" text-anchor="middle" font-size="2em" font-family="FontAwesome" style="z-index: 4;"></text><text x="183.51666666666665" y="246.56" id="ChangeInfoTextSvg" fill="wheat" text-anchor="middle" font-size="1.4em" font-family="Arial" style="z-index: 4;">Change</text></g></svg>