<svg id="DiscoverInfoSvg" width="367.0333333333333" height="264.2033333333333" xmlns="http://www.w3.org/2000/svg"><defs><linearGradient id="WhiteBlack" y1="0%" y2="0%" x1="0%" x2="100%"><stop offset="10%" stop-color="white"></stop><stop offset="90%" stop-color="black"></stop></linearGradient><linearGradient id="EntitlementCustomer" y1="0%" y2="0%" x1="0%" x2="100%"><stop offset="10%" stop-color="#99FF99"></stop><stop offset="90%" stop-color="#CC66CC"></stop></linearGradient><linearGradient id="EntitlementRelationship" y1="0%" y2="0%" x1="0%" x2="100%"><stop offset="10%" stop-color="#99FF99"></stop><stop offset="90%" stop-color="#FFCCFF"></stop></linearGradient><linearGradient id="EntitlementChannel" y1="0%" y2="0%" x1="0%" x2="100%"><stop offset="10%" stop-color="#99FF99"></stop><stop offset="90%" stop-color="#CC99CC"></stop></linearGradient><linearGradient id="PropositionCustomer" y1="0%" y2="0%" x1="0%" x2="100%"><stop offset="10%" stop-color="#FFCC99"></stop><stop offset="90%" stop-color="#CC66CC"></stop></linearGradient><linearGradient id="PropositionRelationship" y1="0%" y2="0%" x1="0%" x2="100%"><stop offset="10%" stop-color="#FFCC99"></stop><stop offset="90%" stop-color="#FFCCFF"></stop></linearGradient><linearGradient id="PropositionChannel" y1="0%" y2="0%" x1="0%" x2="100%"><stop offset="10%" stop-color="#FFCC99"></stop><stop offset="90%" stop-color="#CC99CC"></stop></linearGradient><linearGradient id="PortfolioCustomer" y1="0%" y2="0%" x1="0%" x2="100%"><stop offset="10%" stop-color="#FFFF99"></stop><stop offset="90%" stop-color="#CC66CC"></stop></linearGradient><linearGradient id="PortfolioRelationship" y1="0%" y2="0%" x1="0%" x2="100%"><stop offset="10%" stop-color="#FFFF99"></stop><stop offset="90%" stop-color="#FFCCFF"></stop></linearGradient><linearGradient id="PortfolioChannel" y1="0%" y2="0%" x1="0%" x2="100%"><stop offset="10%" stop-color="#FFFF99"></stop><stop offset="90%" stop-color="#CC99CC"></stop></linearGradient><linearGradient id="IntelligenceCustomer" y1="0%" y2="0%" x1="0%" x2="100%"><stop offset="10%" stop-color="#FF9999"></stop><stop offset="90%" stop-color="#CC66CC"></stop></linearGradient><linearGradient id="IntelligenceRelationship" y1="0%" y2="0%" x1="0%" x2="100%"><stop offset="10%" stop-color="#FF9999"></stop><stop offset="90%" stop-color="#FFCCFF"></stop></linearGradient><linearGradient id="IntelligenceChannel" y1="0%" y2="0%" x1="0%" x2="100%"><stop offset="10%" stop-color="#FF9999"></stop><stop offset="90%" stop-color="#CC99CC"></stop></linearGradient></defs><g id="DiscoverInfoG" style=""><path d="M0,   100.5L110.42829549860737,100.5 A80.39999999999999,80.39999999999999 0, 1,1 110.42829549860737,167.5L0,   167.5 L0,100.5M150.01666666666665,134 A33.5,33.5 0, 1,0 150.01666666666665,133.999" stroke-linejoin="round" fill="#996699"></path><path d="M-56.950000000000045,-98.64029349104753A113.89999999999999,113.89999999999999,0,0,1,87.25246207125157,-73.21350874329686L61.589973226765814,-51.680123818797775A80.39999999999999,80.39999999999999,0,0,0,-40.20000000000003,-69.62844246426884Z" fill="#CC66CC" stroke="none" transform="translate(183.51666666666665,134)"></path><text x="199.1710498833404" y="45.21958106594944" transform="rotate(10 199.1710498833404 45.21958106594944)" text-anchor="middle" font-size="14px" font-family="Arial" fill="#000000" style="z-index: 4;">Customer</text><path d="M147.43321257854947,62.151935717997674 C151.19190571272836,69.63610908070625 183.51666666666665,98.98784722222223 126.56666666666666,98.98784722222223" stroke-linejoin="round" fill="none" stroke="#CC66CC" stroke-width="1"></path><path d="M156.01824714328285,58.44871328881298 C158.88266584363532,66.31863898789497 183.51666666666665,100.98854166666668 126.56666666666666,100.98854166666668" stroke-linejoin="round" fill="none" stroke="#CC66CC" stroke-width="1"></path><path d="M164.97515065897446,55.767192405382175 C166.9065585764424,63.9164431964882 183.51666666666665,102.98923611111113 126.56666666666666,102.98923611111113" stroke-linejoin="round" fill="none" stroke="#CC66CC" stroke-width="1"></path><path d="M174.18279637099818,54.14363603754779 C175.15507452679697,62.46200728363657 183.51666666666665,104.98993055555557 126.56666666666666,104.98993055555557" stroke-linejoin="round" fill="none" stroke="#CC66CC" stroke-width="1"></path><path d="M183.51666666666662,53.60000000000001 C183.51666666666665,61.97500000000001 183.51666666666665,106.99062500000002 126.56666666666666,106.99062500000002" stroke-linejoin="round" fill="none" stroke="#CC66CC" stroke-width="1"></path><path d="M192.85053696233518,54.14363603754779 C191.87825880653637,62.46200728363657 183.51666666666665,108.99131944444447 126.56666666666666,108.99131944444447" stroke-linejoin="round" fill="none" stroke="#CC66CC" stroke-width="1"></path><path d="M202.0581826743589,55.76719240538219 C200.12677475689094,63.9164431964882 183.51666666666665,110.99201388888892 126.56666666666666,110.99201388888892" stroke-linejoin="round" fill="none" stroke="#CC66CC" stroke-width="1"></path><path d="M211.01508619005037,58.44871328881297 C208.1506674896979,66.31863898789494 183.51666666666665,112.99270833333337 126.56666666666666,112.99270833333337" stroke-linejoin="round" fill="none" stroke="#CC66CC" stroke-width="1"></path><path d="M219.60012075478386,62.15193571799769 C215.84142762060497,69.63610908070626 183.51666666666665,114.99340277777782 126.56666666666666,114.99340277777782" stroke-linejoin="round" fill="none" stroke="#CC66CC" stroke-width="1"></path><path d="M227.69718850355946,66.82677996239993 C223.09505081221647,73.82399038298328 183.51666666666665,116.99409722222227 126.56666666666666,116.99409722222227" stroke-linejoin="round" fill="none" stroke="#CC66CC" stroke-width="1"></path><path d="M235.19679048546442,72.41002677323416 C229.81344425433963,78.82564898435561 183.51666666666665,118.99479166666671 126.56666666666666,118.99479166666671" stroke-linejoin="round" fill="none" stroke="#CC66CC" stroke-width="1"></path><path d="M241.9975074491398,78.82617231535384 C235.9057532009655,84.57344603250448 183.51666666666665,120.99548611111116 126.56666666666666,120.99548611111116" stroke-linejoin="round" fill="none" stroke="#CC66CC" stroke-width="1"></path><path d="M87.25246207125157,-73.21350874329686A113.89999999999999,113.89999999999999,0,0,1,87.25246207125167,73.21350874329673L61.58997322676588,51.68012381879769A80.39999999999999,80.39999999999999,0,0,0,61.589973226765814,-51.680123818797775Z" fill="#FFCCFF" stroke="none" transform="translate(183.51666666666665,134)"></path><text x="273.66666666666663" y="133.99999999999997" transform="rotate(90 273.66666666666663 133.99999999999997)" text-anchor="middle" font-size="14px" font-family="Arial" fill="#000000" style="z-index: 4;">Relationship</text><path d="M248.00737136417212,85.98844922709594 C241.28958962484865,90.98965243260677 183.51666666666665,122.99618055555561 126.56666666666666,122.99618055555561" stroke-linejoin="round" fill="none" stroke="#FFCCFF" stroke-width="1"></path><path d="M253.1451091309355,93.79999999999997 C245.8921463742408,97.98749999999997 183.51666666666665,124.99687500000006 126.56666666666666,124.99687500000006" stroke-linejoin="round" fill="none" stroke="#FFCCFF" stroke-width="1"></path><path d="M257.3412416598407,102.15518681045185 C249.6511817647184,105.47235485102979 183.51666666666665,126.99756944444451 126.56666666666666,126.99756944444451" stroke-linejoin="round" fill="none" stroke="#FFCCFF" stroke-width="1"></path><path d="M260.53902345683196,110.9410200900283 C252.5158612911897,113.3429971639837 183.51666666666665,128.99826388888894 126.56666666666666,128.99826388888894" stroke-linejoin="round" fill="none" stroke="#FFCCFF" stroke-width="1"></path><path d="M262.69521000884816,120.03868651557873 C254.4474450773709,121.49299000353928 183.51666666666665,130.99895833333338 126.56666666666666,130.99895833333338" stroke-linejoin="round" fill="none" stroke="#FFCCFF" stroke-width="1"></path><path d="M263.7806425916766,129.3251557555978 C255.41981176615474,129.812118697723 183.51666666666665,132.9996527777778 126.56666666666666,132.9996527777778" stroke-linejoin="round" fill="none" stroke="#FFCCFF" stroke-width="1"></path><path d="M263.7806425916766,138.67484424440218 C255.41981176615474,138.18788130227696 183.51666666666665,135.00034722222225 126.56666666666666,135.00034722222225" stroke-linejoin="round" fill="none" stroke="#FFCCFF" stroke-width="1"></path><path d="M262.69521000884816,147.96131348442117 C254.44744507737093,146.50700999646062 183.51666666666665,137.00104166666668 126.56666666666666,137.00104166666668" stroke-linejoin="round" fill="none" stroke="#FFCCFF" stroke-width="1"></path><path d="M260.53902345683196,157.05897990997173 C252.5158612911897,154.65700283601632 183.51666666666665,139.00173611111111 126.56666666666666,139.00173611111111" stroke-linejoin="round" fill="none" stroke="#FFCCFF" stroke-width="1"></path><path d="M257.34124165984065,165.84481318954823 C249.6511817647184,162.5276451489703 183.51666666666665,141.00243055555555 126.56666666666666,141.00243055555555" stroke-linejoin="round" fill="none" stroke="#FFCCFF" stroke-width="1"></path><path d="M253.14510913093554,174.19999999999993 C245.89214637424087,170.01249999999993 183.51666666666665,143.00312499999998 126.56666666666666,143.00312499999998" stroke-linejoin="round" fill="none" stroke="#FFCCFF" stroke-width="1"></path><path d="M248.00737136417214,182.01155077290403 C241.28958962484865,177.01034756739318 183.51666666666665,145.00381944444442 126.56666666666666,145.00381944444442" stroke-linejoin="round" fill="none" stroke="#FFCCFF" stroke-width="1"></path><path d="M87.25246207125167,73.21350874329673A113.89999999999999,113.89999999999999,0,0,1,-56.95000000000008,98.64029349104752L-40.20000000000006,69.62844246426883A80.39999999999999,80.39999999999999,0,0,0,61.58997322676588,51.68012381879769Z" fill="#CC99CC" stroke="none" transform="translate(183.51666666666665,134)"></path><text x="200.9943557488432" y="233.12090034067873" transform="rotate(350 200.9943557488432 233.12090034067873)" text-anchor="middle" font-size="14px" font-family="Arial" fill="#000000" style="z-index: 4;">Channel</text><path d="M241.99750744913982,189.1738276846461 C235.90575320096553,183.4265539674955 183.51666666666665,147.00451388888885 126.56666666666666,147.00451388888885" stroke-linejoin="round" fill="none" stroke="#CC99CC" stroke-width="1"></path><path d="M235.19679048546442,195.5899732267658 C229.81344425433966,189.17435101564436 183.51666666666665,149.0052083333333 126.56666666666666,149.0052083333333" stroke-linejoin="round" fill="none" stroke="#CC99CC" stroke-width="1"></path><path d="M227.69718850355952,201.17322003760006 C223.0950508122165,194.17600961701672 183.51666666666665,151.00590277777772 126.56666666666666,151.00590277777772" stroke-linejoin="round" fill="none" stroke="#CC99CC" stroke-width="1"></path><path d="M219.60012075478383,205.84806428200233 C215.84142762060497,198.36389091929374 183.51666666666665,153.00659722222215 126.56666666666666,153.00659722222215" stroke-linejoin="round" fill="none" stroke="#CC99CC" stroke-width="1"></path><path d="M211.01508619005048,209.551286711187 C208.15066748969798,201.68136101210501 183.51666666666665,155.0072916666666 126.56666666666666,155.0072916666666" stroke-linejoin="round" fill="none" stroke="#CC99CC" stroke-width="1"></path><path d="M202.05818267435887,212.23280759461784 C200.12677475689094,204.08355680351178 183.51666666666665,157.00798611111102 126.56666666666666,157.00798611111102" stroke-linejoin="round" fill="none" stroke="#CC99CC" stroke-width="1"></path><path d="M192.85053696233507,213.85636396245224 C191.87825880653628,205.53799271636345 183.51666666666665,159.00868055555546 126.56666666666666,159.00868055555546" stroke-linejoin="round" fill="none" stroke="#CC99CC" stroke-width="1"></path><path d="M183.51666666666668,214.39999999999998 C183.51666666666668,206.02499999999998 183.51666666666665,161.0093749999999 126.56666666666666,161.0093749999999" stroke-linejoin="round" fill="none" stroke="#CC99CC" stroke-width="1"></path><path d="M174.1827963709982,213.8563639624522 C175.155074526797,205.53799271636342 183.51666666666665,163.01006944444433 126.56666666666666,163.01006944444433" stroke-linejoin="round" fill="none" stroke="#CC99CC" stroke-width="1"></path><path d="M164.97515065897443,212.2328075946178 C166.90655857644236,204.08355680351178 183.51666666666665,165.01076388888876 126.56666666666666,165.01076388888876" stroke-linejoin="round" fill="none" stroke="#CC99CC" stroke-width="1"></path><path d="M156.01824714328293,209.55128671118706 C158.8826658436354,201.68136101210507 183.51666666666665,167.0114583333332 126.56666666666666,167.0114583333332" stroke-linejoin="round" fill="none" stroke="#CC99CC" stroke-width="1"></path><path d="M147.4332125785495,205.84806428200235 C151.19190571272838,198.36389091929377 183.51666666666665,169.01215277777763 126.56666666666666,169.01215277777763" stroke-linejoin="round" fill="none" stroke="#CC99CC" stroke-width="1"></path><g transform="translate(0,97.98750000000001)"><g><g stroke="url(#EntitlementCustomer)" fill="none"><path class="link" d="M24,3.001041666666666C63.28333333333333,3.001041666666666 63.28333333333333,3.1010416666666734 102.56666666666666,3.1010416666666734" style="stroke-width: 5.00208;"><title>Entitlement → Customer</title></path></g><g stroke="url(#EntitlementRelationship)" fill="none"><path class="link" d="M24,9.003124999999999C63.28333333333333,9.003124999999999 63.28333333333333,27.109375000000007 102.56666666666666,27.109375000000007" style="stroke-width: 5.00208;"><title>Entitlement → Relationship</title></path></g><g stroke="url(#EntitlementChannel)" fill="none"><path class="link" d="M24,15.00520833333333C63.28333333333333,15.00520833333333 63.28333333333333,51.11770833333333 102.56666666666666,51.11770833333333" style="stroke-width: 5.00208;"><title>Entitlement → Channel</title></path></g><g stroke="url(#PropositionCustomer)" fill="none"><path class="link" d="M24,21.007291666666664C63.28333333333333,21.007291666666664 63.28333333333333,9.103125000000006 102.56666666666666,9.103125000000006" style="stroke-width: 5.00208;"><title>Proposition → Customer</title></path></g><g stroke="url(#PropositionRelationship)" fill="none"><path class="link" d="M24,27.009374999999995C63.28333333333333,27.009374999999995 63.28333333333333,33.11145833333334 102.56666666666666,33.11145833333334" style="stroke-width: 5.00208;"><title>Proposition → Relationship</title></path></g><g stroke="url(#PropositionChannel)" fill="none"><path class="link" d="M24,33.01145833333333C63.28333333333333,33.01145833333333 63.28333333333333,57.119791666666664 102.56666666666666,57.119791666666664" style="stroke-width: 5.00208;"><title>Proposition → Channel</title></path></g><g stroke="url(#PortfolioCustomer)" fill="none"><path class="link" d="M24,39.01354166666666C63.28333333333333,39.01354166666666 63.28333333333333,15.105208333333337 102.56666666666666,15.105208333333337" style="stroke-width: 5.00208;"><title>Portfolio → Customer</title></path></g><g stroke="url(#PortfolioRelationship)" fill="none"><path class="link" d="M24,45.01562499999999C63.28333333333333,45.01562499999999 63.28333333333333,39.11354166666667 102.56666666666666,39.11354166666667" style="stroke-width: 5.00208;"><title>Portfolio → Relationship</title></path></g><g stroke="url(#PortfolioChannel)" fill="none"><path class="link" d="M24,51.017708333333324C63.28333333333333,51.017708333333324 63.28333333333333,63.121874999999996 102.56666666666666,63.121874999999996" style="stroke-width: 5.00208;"><title>Portfolio → Channel</title></path></g><g stroke="url(#IntelligenceCustomer)" fill="none"><path class="link" d="M24,57.01979166666666C63.28333333333333,57.01979166666666 63.28333333333333,21.107291666666672 102.56666666666666,21.107291666666672" style="stroke-width: 5.00208;"><title>Intelligence → Customer</title></path></g><g stroke="url(#IntelligenceRelationship)" fill="none"><path class="link" d="M24,63.021874999999994C63.28333333333333,63.021874999999994 63.28333333333333,45.115625 102.56666666666666,45.115625" style="stroke-width: 5.00208;"><title>Intelligence → Relationship</title></path></g><g stroke="url(#IntelligenceChannel)" fill="none"><path class="link" d="M24,69.02395833333333C63.28333333333333,69.02395833333333 63.28333333333333,69.12395833333332 102.56666666666666,69.12395833333332" style="stroke-width: 5.00208;"><title>Intelligence → Channel</title></path></g></g><g><g class="node" transform="translate(0,0)" style="-webkit-tap-highlight-color: rgba(0, 0, 0, 0);"><rect height="18.006249999999998" width="24" fill="#99FF99"><title>Entitlement</title></rect></g><g class="node" transform="translate(0,18.006249999999998)" style="-webkit-tap-highlight-color: rgba(0, 0, 0, 0);"><rect height="18.006249999999998" width="24" fill="#FFCC99"><title>Proposition</title></rect></g><g class="node" transform="translate(0,36.012499999999996)" style="-webkit-tap-highlight-color: rgba(0, 0, 0, 0);"><rect height="18.006249999999998" width="24" fill="#FFFF99"><title>Portfolio</title></rect></g><g class="node" transform="translate(0,54.01875)" style="-webkit-tap-highlight-color: rgba(0, 0, 0, 0);"><rect height="18.006249999999998" width="24" fill="#FF9999"><title>Intelligence</title></rect></g><g class="node" transform="translate(102.56666666666666,7.105427357601002e-15)" style="-webkit-tap-highlight-color: rgba(0, 0, 0, 0);"><rect height="24.00833333333333" width="24" fill="#CC66CC"><title>Customer</title></rect></g><g class="node" transform="translate(102.56666666666666,24.00833333333334)" style="-webkit-tap-highlight-color: rgba(0, 0, 0, 0);"><rect height="24.00833333333333" width="24" fill="#FFCCFF"><title>Relationship</title></rect></g><g class="node" transform="translate(102.56666666666666,48.016666666666666)" style="-webkit-tap-highlight-color: rgba(0, 0, 0, 0);"><rect height="24.00833333333333" width="24" fill="#CC99CC"><title>Channel</title></rect></g></g></g><text x="183.51666666666665" y="146" id="DiscoverInfoIconSvg" text-anchor="middle" font-size="2em" font-family="FontAwesome" style="z-index: 4;"></text><text x="183.51666666666665" y="246.56" id="DiscoverInfoTextSvg" fill="wheat" text-anchor="middle" font-size="1.4em" font-family="Arial" style="z-index: 4;">Discover</text></g></svg>