<svg id="ConceptInfoSvg" width="367.0333333333333" height="264.2033333333333" xmlns="http://www.w3.org/2000/svg"><defs></defs><g id="ConceptInfoG" style=""><rect x="24" y="24" width="319.0333333333333" height="220" rx="24" ry="24" fill="#FFFFCC" stroke="none"></rect><rect x="48" y="48" width="271.0333333333333" height="172" rx="24" ry="24" fill="rgba(97, 56, 77, 1.0 )" stroke="none"></rect><rect x="0" y="97.98750000000001" width="24" height="18.006249999999998" fill="#99FF99" stroke="none"></rect><rect x="0" y="115.99375" width="24" height="18.006249999999998" fill="#FFCC99" stroke="none"></rect><rect x="0" y="134" width="24" height="18.006249999999998" fill="#FFFF99" stroke="none"></rect><rect x="0" y="152.00625" width="24" height="18.006249999999998" fill="#FF9999" stroke="none"></rect><rect x="343.0333333333333" y="97.98750000000001" width="24" height="18.006249999999998" fill="#99FF99" stroke="none"></rect><rect x="343.0333333333333" y="115.99375" width="24" height="18.006249999999998" fill="#FFCC99" stroke="none"></rect><rect x="343.0333333333333" y="134" width="24" height="18.006249999999998" fill="#FFFF99" stroke="none"></rect><rect x="343.0333333333333" y="152.00625" width="24" height="18.006249999999998" fill="#FF9999" stroke="none"></rect><rect x="94.11666666666665" y="244" width="18" height="24" fill="#99FF99" stroke="none"></rect><rect x="174.51666666666665" y="244" width="18" height="24" fill="#FFFF99" stroke="none"></rect><rect x="254.91666666666666" y="244" width="18" height="24" fill="#FF9999" stroke="none"></rect><path d="M156.71666666666664,134L129.91666666666666,87.58103835715409L76.31666666666662,87.5810383571541L49.516666666666644,134L76.31666666666666,180.41896164284591L129.91666666666666,180.41896164284591L156.71666666666664,134Z" id="EntitlementInfoHexPath" stroke-width="1" stroke="black" fill="#99FF99"></path><text id="EntitlementInfoHexText" x="103.11666666666665" y="150" text-anchor="middle" font-size="14px" font-family="Arial" style="z-index: 4;">Entitlement</text><text x="103.11666666666665" y="132" id="EntitlementInfoHexIcon" text-anchor="middle" font-size="1.6em" font-family="FontAwesome"></text><path d="M237.11666666666665,87.58103835739199L210.31666666666666,41.162076714546096L156.71666666666664,41.1620767145461L129.91666666666666,87.581038357392L156.71666666666667,134.00000000023792L210.31666666666666,134.00000000023792L237.11666666666665,87.581038357392Z" id="PropositionInfoHexPath" stroke-width="1" stroke="black" fill="#FFCC99"></path><text id="PropositionInfoHexText" x="183.51666666666665" y="103.581038357392" text-anchor="middle" font-size="14px" font-family="Arial" style="z-index: 4;">Proposition</text><text x="183.51666666666665" y="85.581038357392" id="PropositionInfoHexIcon" text-anchor="middle" font-size="1.6em" font-family="FontAwesome"></text><path d="M237.11666666666665,180.418961642608L210.31666666666666,133.99999999976208L156.71666666666664,133.9999999997621L129.91666666666666,180.418961642608L156.71666666666667,226.8379232854539L210.31666666666666,226.8379232854539L237.11666666666665,180.418961642608Z" id="PortfolioInfoHexPath" stroke-width="1" stroke="black" fill="#FFFF99"></path><text id="PortfolioInfoHexText" x="183.51666666666665" y="196.418961642608" text-anchor="middle" font-size="14px" font-family="Arial" style="z-index: 4;">Portfolio</text><text x="183.51666666666665" y="178.418961642608" id="PortfolioInfoHexIcon" text-anchor="middle" font-size="1.6em" font-family="FontAwesome"></text><path d="M317.51666666666665,134L290.71666666666664,87.58103835715409L237.11666666666662,87.5810383571541L210.31666666666663,134L237.11666666666665,180.41896164284591L290.71666666666664,180.41896164284591L317.51666666666665,134Z" id="IntelligenceInfoHexPath" stroke-width="1" stroke="black" fill="#FF9999"></path><text id="IntelligenceInfoHexText" x="263.91666666666663" y="150" text-anchor="middle" font-size="14px" font-family="Arial" style="z-index: 4;">Intelligence</text><text x="263.91666666666663" y="132" id="IntelligenceInfoHexIcon" text-anchor="middle" font-size="1.6em" font-family="FontAwesome"></text><rect x="108.51666666666665" y="214.39999999999998" width="150" height="24" fill="none" stroke="none"></rect><text x="183.51666666666665" y="240.39999999999998" fill="black" text-anchor="middle" font-size="1.2em" font-family="Arial">Concept</text></g></svg>