<svg id="ActualizeWiseSvg" width="293.02" height="264.2033333333333" xmlns="http://www.w3.org/2000/svg"><defs><linearGradient id="WhiteBlack" y1="0%" y2="0%" x1="0%" x2="100%"><stop offset="10%" stop-color="white"></stop><stop offset="90%" stop-color="black"></stop></linearGradient><linearGradient id="ReachPeaks" y1="0%" y2="0%" x1="0%" x2="100%"><stop offset="10%" stop-color="#99FF99"></stop><stop offset="90%" stop-color="#CC66CC"></stop></linearGradient><linearGradient id="ReachHumanistic" y1="0%" y2="0%" x1="0%" x2="100%"><stop offset="10%" stop-color="#99FF99"></stop><stop offset="90%" stop-color="#FFCCFF"></stop></linearGradient><linearGradient id="ReachRealistic" y1="0%" y2="0%" x1="0%" x2="100%"><stop offset="10%" stop-color="#99FF99"></stop><stop offset="90%" stop-color="#CC99CC"></stop></linearGradient><linearGradient id="ConnectPeaks" y1="0%" y2="0%" x1="0%" x2="100%"><stop offset="10%" stop-color="#FFCC99"></stop><stop offset="90%" stop-color="#CC66CC"></stop></linearGradient><linearGradient id="ConnectHumanistic" y1="0%" y2="0%" x1="0%" x2="100%"><stop offset="10%" stop-color="#FFCC99"></stop><stop offset="90%" stop-color="#FFCCFF"></stop></linearGradient><linearGradient id="ConnectRealistic" y1="0%" y2="0%" x1="0%" x2="100%"><stop offset="10%" stop-color="#FFCC99"></stop><stop offset="90%" stop-color="#CC99CC"></stop></linearGradient><linearGradient id="NurturePeaks" y1="0%" y2="0%" x1="0%" x2="100%"><stop offset="10%" stop-color="#CC6666"></stop><stop offset="90%" stop-color="#CC66CC"></stop></linearGradient><linearGradient id="NurtureHumanistic" y1="0%" y2="0%" x1="0%" x2="100%"><stop offset="10%" stop-color="#CC6666"></stop><stop offset="90%" stop-color="#FFCCFF"></stop></linearGradient><linearGradient id="NurtureRealistic" y1="0%" y2="0%" x1="0%" x2="100%"><stop offset="10%" stop-color="#CC6666"></stop><stop offset="90%" stop-color="#CC99CC"></stop></linearGradient><linearGradient id="RevealPeaks" y1="0%" y2="0%" x1="0%" x2="100%"><stop offset="10%" stop-color="#FF9999"></stop><stop offset="90%" stop-color="#CC66CC"></stop></linearGradient><linearGradient id="RevealHumanistic" y1="0%" y2="0%" x1="0%" x2="100%"><stop offset="10%" stop-color="#FF9999"></stop><stop offset="90%" stop-color="#FFCCFF"></stop></linearGradient><linearGradient id="RevealRealistic" y1="0%" y2="0%" x1="0%" x2="100%"><stop offset="10%" stop-color="#FF9999"></stop><stop offset="90%" stop-color="#CC99CC"></stop></linearGradient></defs><g id="ActualizeWiseG" style=""><path d="M0,   100.5L73.42162883194071,100.5 A80.39999999999999,80.39999999999999 0, 1,1 73.42162883194071,167.5L0,   167.5 L0,100.5M113.00999999999999,134 A33.5,33.5 0, 1,0 113.00999999999999,133.999" stroke-linejoin="round" fill="#996699"></path><path d="M-56.950000000000045,-98.64029349104753A113.89999999999999,113.89999999999999,0,0,1,87.25246207125157,-73.21350874329686L61.589973226765814,-51.680123818797775A80.39999999999999,80.39999999999999,0,0,0,-40.20000000000003,-69.62844246426884Z" fill="#CC66CC" stroke="none" transform="translate(146.51,134)"></path><text x="162.16438321667374" y="45.21958106594944" transform="rotate(10 162.16438321667374 45.21958106594944)" text-anchor="middle" font-size="14px" font-family="Arial" fill="#000000" style="z-index: 4;">Peaks</text><path d="M110.42654591188281,62.151935717997674 C114.1852390460617,69.63610908070625 146.51,98.98784722222223 89.56,98.98784722222223" stroke-linejoin="round" fill="none" stroke="#CC66CC" stroke-width="1"></path><path d="M119.01158047661617,58.44871328881298 C121.87599917696866,66.31863898789497 146.51,100.98854166666668 89.56,100.98854166666668" stroke-linejoin="round" fill="none" stroke="#CC66CC" stroke-width="1"></path><path d="M127.96848399230778,55.767192405382175 C129.89989190977573,63.9164431964882 146.51,102.98923611111113 89.56,102.98923611111113" stroke-linejoin="round" fill="none" stroke="#CC66CC" stroke-width="1"></path><path d="M137.17612970433152,54.14363603754779 C138.1484078601303,62.46200728363657 146.51,104.98993055555557 89.56,104.98993055555557" stroke-linejoin="round" fill="none" stroke="#CC66CC" stroke-width="1"></path><path d="M146.50999999999996,53.60000000000001 C146.51,61.97500000000001 146.51,106.99062500000002 89.56,106.99062500000002" stroke-linejoin="round" fill="none" stroke="#CC66CC" stroke-width="1"></path><path d="M155.84387029566852,54.14363603754779 C154.8715921398697,62.46200728363657 146.51,108.99131944444447 89.56,108.99131944444447" stroke-linejoin="round" fill="none" stroke="#CC66CC" stroke-width="1"></path><path d="M165.05151600769224,55.76719240538219 C163.12010809022428,63.9164431964882 146.51,110.99201388888892 89.56,110.99201388888892" stroke-linejoin="round" fill="none" stroke="#CC66CC" stroke-width="1"></path><path d="M174.0084195233837,58.44871328881297 C171.14400082303123,66.31863898789494 146.51,112.99270833333337 89.56,112.99270833333337" stroke-linejoin="round" fill="none" stroke="#CC66CC" stroke-width="1"></path><path d="M182.5934540881172,62.15193571799769 C178.83476095393831,69.63610908070626 146.51,114.99340277777782 89.56,114.99340277777782" stroke-linejoin="round" fill="none" stroke="#CC66CC" stroke-width="1"></path><path d="M190.6905218368928,66.82677996239993 C186.0883841455498,73.82399038298328 146.51,116.99409722222227 89.56,116.99409722222227" stroke-linejoin="round" fill="none" stroke="#CC66CC" stroke-width="1"></path><path d="M198.19012381879776,72.41002677323416 C192.80677758767297,78.82564898435561 146.51,118.99479166666671 89.56,118.99479166666671" stroke-linejoin="round" fill="none" stroke="#CC66CC" stroke-width="1"></path><path d="M204.99084078247313,78.82617231535384 C198.89908653429885,84.57344603250448 146.51,120.99548611111116 89.56,120.99548611111116" stroke-linejoin="round" fill="none" stroke="#CC66CC" stroke-width="1"></path><path d="M87.25246207125157,-73.21350874329686A113.89999999999999,113.89999999999999,0,0,1,87.25246207125167,73.21350874329673L61.58997322676588,51.68012381879769A80.39999999999999,80.39999999999999,0,0,0,61.589973226765814,-51.680123818797775Z" fill="#FFCCFF" stroke="none" transform="translate(146.51,134)"></path><text x="236.65999999999997" y="133.99999999999997" transform="rotate(90 236.65999999999997 133.99999999999997)" text-anchor="middle" font-size="14px" font-family="Arial" fill="#000000" style="z-index: 4;">Humanistic</text><path d="M211.00070469750545,85.98844922709594 C204.28292295818198,90.98965243260677 146.51,122.99618055555561 89.56,122.99618055555561" stroke-linejoin="round" fill="none" stroke="#FFCCFF" stroke-width="1"></path><path d="M216.13844246426885,93.79999999999997 C208.88547970757415,97.98749999999997 146.51,124.99687500000006 89.56,124.99687500000006" stroke-linejoin="round" fill="none" stroke="#FFCCFF" stroke-width="1"></path><path d="M220.33457499317404,102.15518681045185 C212.64451509805173,105.47235485102979 146.51,126.99756944444451 89.56,126.99756944444451" stroke-linejoin="round" fill="none" stroke="#FFCCFF" stroke-width="1"></path><path d="M223.53235679016527,110.9410200900283 C215.50919462452305,113.3429971639837 146.51,128.99826388888894 89.56,128.99826388888894" stroke-linejoin="round" fill="none" stroke="#FFCCFF" stroke-width="1"></path><path d="M225.6885433421815,120.03868651557873 C217.44077841070424,121.49299000353928 146.51,130.99895833333338 89.56,130.99895833333338" stroke-linejoin="round" fill="none" stroke="#FFCCFF" stroke-width="1"></path><path d="M226.77397592500995,129.3251557555978 C218.41314509948808,129.812118697723 146.51,132.9996527777778 89.56,132.9996527777778" stroke-linejoin="round" fill="none" stroke="#FFCCFF" stroke-width="1"></path><path d="M226.77397592500995,138.67484424440218 C218.41314509948808,138.18788130227696 146.51,135.00034722222225 89.56,135.00034722222225" stroke-linejoin="round" fill="none" stroke="#FFCCFF" stroke-width="1"></path><path d="M225.6885433421815,147.96131348442117 C217.44077841070427,146.50700999646062 146.51,137.00104166666668 89.56,137.00104166666668" stroke-linejoin="round" fill="none" stroke="#FFCCFF" stroke-width="1"></path><path d="M223.53235679016527,157.05897990997173 C215.50919462452305,154.65700283601632 146.51,139.00173611111111 89.56,139.00173611111111" stroke-linejoin="round" fill="none" stroke="#FFCCFF" stroke-width="1"></path><path d="M220.334574993174,165.84481318954823 C212.64451509805173,162.5276451489703 146.51,141.00243055555555 89.56,141.00243055555555" stroke-linejoin="round" fill="none" stroke="#FFCCFF" stroke-width="1"></path><path d="M216.13844246426888,174.19999999999993 C208.8854797075742,170.01249999999993 146.51,143.00312499999998 89.56,143.00312499999998" stroke-linejoin="round" fill="none" stroke="#FFCCFF" stroke-width="1"></path><path d="M211.00070469750548,182.01155077290403 C204.28292295818198,177.01034756739318 146.51,145.00381944444442 89.56,145.00381944444442" stroke-linejoin="round" fill="none" stroke="#FFCCFF" stroke-width="1"></path><path d="M87.25246207125167,73.21350874329673A113.89999999999999,113.89999999999999,0,0,1,-56.95000000000008,98.64029349104752L-40.20000000000006,69.62844246426883A80.39999999999999,80.39999999999999,0,0,0,61.58997322676588,51.68012381879769Z" fill="#CC99CC" stroke="none" transform="translate(146.51,134)"></path><text x="163.98768908217653" y="233.12090034067873" transform="rotate(350 163.98768908217653 233.12090034067873)" text-anchor="middle" font-size="14px" font-family="Arial" fill="#000000" style="z-index: 4;">Realistic</text><path d="M204.99084078247316,189.1738276846461 C198.89908653429887,183.4265539674955 146.51,147.00451388888885 89.56,147.00451388888885" stroke-linejoin="round" fill="none" stroke="#CC99CC" stroke-width="1"></path><path d="M198.19012381879776,195.5899732267658 C192.806777587673,189.17435101564436 146.51,149.0052083333333 89.56,149.0052083333333" stroke-linejoin="round" fill="none" stroke="#CC99CC" stroke-width="1"></path><path d="M190.69052183689286,201.17322003760006 C186.08838414554984,194.17600961701672 146.51,151.00590277777772 89.56,151.00590277777772" stroke-linejoin="round" fill="none" stroke="#CC99CC" stroke-width="1"></path><path d="M182.59345408811717,205.84806428200233 C178.83476095393831,198.36389091929374 146.51,153.00659722222215 89.56,153.00659722222215" stroke-linejoin="round" fill="none" stroke="#CC99CC" stroke-width="1"></path><path d="M174.00841952338382,209.551286711187 C171.14400082303132,201.68136101210501 146.51,155.0072916666666 89.56,155.0072916666666" stroke-linejoin="round" fill="none" stroke="#CC99CC" stroke-width="1"></path><path d="M165.05151600769221,212.23280759461784 C163.12010809022428,204.08355680351178 146.51,157.00798611111102 89.56,157.00798611111102" stroke-linejoin="round" fill="none" stroke="#CC99CC" stroke-width="1"></path><path d="M155.8438702956684,213.85636396245224 C154.87159213986962,205.53799271636345 146.51,159.00868055555546 89.56,159.00868055555546" stroke-linejoin="round" fill="none" stroke="#CC99CC" stroke-width="1"></path><path d="M146.51000000000002,214.39999999999998 C146.51000000000002,206.02499999999998 146.51,161.0093749999999 89.56,161.0093749999999" stroke-linejoin="round" fill="none" stroke="#CC99CC" stroke-width="1"></path><path d="M137.17612970433154,213.8563639624522 C138.14840786013033,205.53799271636342 146.51,163.01006944444433 89.56,163.01006944444433" stroke-linejoin="round" fill="none" stroke="#CC99CC" stroke-width="1"></path><path d="M127.96848399230775,212.2328075946178 C129.8998919097757,204.08355680351178 146.51,165.01076388888876 89.56,165.01076388888876" stroke-linejoin="round" fill="none" stroke="#CC99CC" stroke-width="1"></path><path d="M119.01158047661629,209.55128671118706 C121.87599917696875,201.68136101210507 146.51,167.0114583333332 89.56,167.0114583333332" stroke-linejoin="round" fill="none" stroke="#CC99CC" stroke-width="1"></path><path d="M110.42654591188285,205.84806428200235 C114.18523904606172,198.36389091929377 146.51,169.01215277777763 89.56,169.01215277777763" stroke-linejoin="round" fill="none" stroke="#CC99CC" stroke-width="1"></path><g transform="translate(0,97.98750000000001)"><g><g stroke="url(#ReachPeaks)" fill="none"><path class="link" d="M24,3.001041666666666C44.78,3.001041666666666 44.78,3.1010416666666734 65.56,3.1010416666666734" style="stroke-width: 5.00208;"><title>Reach → Peaks</title></path></g><g stroke="url(#ReachHumanistic)" fill="none"><path class="link" d="M24,9.003124999999999C44.78,9.003124999999999 44.78,27.109375000000007 65.56,27.109375000000007" style="stroke-width: 5.00208;"><title>Reach → Humanistic</title></path></g><g stroke="url(#ReachRealistic)" fill="none"><path class="link" d="M24,15.00520833333333C44.78,15.00520833333333 44.78,51.11770833333333 65.56,51.11770833333333" style="stroke-width: 5.00208;"><title>Reach → Realistic</title></path></g><g stroke="url(#ConnectPeaks)" fill="none"><path class="link" d="M24,21.007291666666664C44.78,21.007291666666664 44.78,9.103125000000006 65.56,9.103125000000006" style="stroke-width: 5.00208;"><title>Connect → Peaks</title></path></g><g stroke="url(#ConnectHumanistic)" fill="none"><path class="link" d="M24,27.009374999999995C44.78,27.009374999999995 44.78,33.11145833333334 65.56,33.11145833333334" style="stroke-width: 5.00208;"><title>Connect → Humanistic</title></path></g><g stroke="url(#ConnectRealistic)" fill="none"><path class="link" d="M24,33.01145833333333C44.78,33.01145833333333 44.78,57.119791666666664 65.56,57.119791666666664" style="stroke-width: 5.00208;"><title>Connect → Realistic</title></path></g><g stroke="url(#NurturePeaks)" fill="none"><path class="link" d="M24,39.01354166666666C44.78,39.01354166666666 44.78,15.105208333333337 65.56,15.105208333333337" style="stroke-width: 5.00208;"><title>Nurture → Peaks</title></path></g><g stroke="url(#NurtureHumanistic)" fill="none"><path class="link" d="M24,45.01562499999999C44.78,45.01562499999999 44.78,39.11354166666667 65.56,39.11354166666667" style="stroke-width: 5.00208;"><title>Nurture → Humanistic</title></path></g><g stroke="url(#NurtureRealistic)" fill="none"><path class="link" d="M24,51.017708333333324C44.78,51.017708333333324 44.78,63.121874999999996 65.56,63.121874999999996" style="stroke-width: 5.00208;"><title>Nurture → Realistic</title></path></g><g stroke="url(#RevealPeaks)" fill="none"><path class="link" d="M24,57.01979166666666C44.78,57.01979166666666 44.78,21.107291666666672 65.56,21.107291666666672" style="stroke-width: 5.00208;"><title>Reveal → Peaks</title></path></g><g stroke="url(#RevealHumanistic)" fill="none"><path class="link" d="M24,63.021874999999994C44.78,63.021874999999994 44.78,45.115625 65.56,45.115625" style="stroke-width: 5.00208;"><title>Reveal → Humanistic</title></path></g><g stroke="url(#RevealRealistic)" fill="none"><path class="link" d="M24,69.02395833333333C44.78,69.02395833333333 44.78,69.12395833333332 65.56,69.12395833333332" style="stroke-width: 5.00208;"><title>Reveal → Realistic</title></path></g></g><g><g class="node" transform="translate(0,0)" style="-webkit-tap-highlight-color: rgba(0, 0, 0, 0);"><rect height="18.006249999999998" width="24" fill="#99FF99"><title>Reach</title></rect></g><g class="node" transform="translate(0,18.006249999999998)" style="-webkit-tap-highlight-color: rgba(0, 0, 0, 0);"><rect height="18.006249999999998" width="24" fill="#FFCC99"><title>Connect</title></rect></g><g class="node" transform="translate(0,36.012499999999996)" style="-webkit-tap-highlight-color: rgba(0, 0, 0, 0);"><rect height="18.006249999999998" width="24" fill="#CC6666"><title>Nurture</title></rect></g><g class="node" transform="translate(0,54.01875)" style="-webkit-tap-highlight-color: rgba(0, 0, 0, 0);"><rect height="18.006249999999998" width="24" fill="#FF9999"><title>Reveal</title></rect></g><g class="node" transform="translate(65.56,7.105427357601002e-15)" style="-webkit-tap-highlight-color: rgba(0, 0, 0, 0);"><rect height="24.00833333333333" width="24" fill="#CC66CC"><title>Peaks</title></rect></g><g class="node" transform="translate(65.56,24.00833333333334)" style="-webkit-tap-highlight-color: rgba(0, 0, 0, 0);"><rect height="24.00833333333333" width="24" fill="#FFCCFF"><title>Humanistic</title></rect></g><g class="node" transform="translate(65.56,48.016666666666666)" style="-webkit-tap-highlight-color: rgba(0, 0, 0, 0);"><rect height="24.00833333333333" width="24" fill="#CC99CC"><title>Realistic</title></rect></g></g></g><text x="146.51" y="146" id="ActualizeWiseIconSvg" text-anchor="middle" font-size="2em" font-family="FontAwesome" style="z-index: 4;"></text><text x="146.51" y="246.56" id="ActualizeWiseTextSvg" fill="wheat" text-anchor="middle" font-size="1.4em" font-family="Arial" style="z-index: 4;">Actualize</text></g></svg>