<svg id="ConscienceWiseSvg" width="293.02" height="264.2033333333333" xmlns="http://www.w3.org/2000/svg"><defs></defs><g id="ConscienceWiseG" style=""><rect x="24" y="24" width="245.01999999999998" height="220" rx="24" ry="24" fill="#FFFFCC" stroke="none"></rect><rect x="48" y="48" width="197.01999999999998" height="172" rx="24" ry="24" fill="rgba(97, 56, 77, 1.0 )" stroke="none"></rect><rect x="0" y="97.98750000000001" width="24" height="18.006249999999998" fill="#99FF99" stroke="none"></rect><rect x="0" y="115.99375" width="24" height="18.006249999999998" fill="#FFFF99" stroke="none"></rect><rect x="0" y="134" width="24" height="18.006249999999998" fill="#FFCC99" stroke="none"></rect><rect x="0" y="152.00625" width="24" height="18.006249999999998" fill="#FF9999" stroke="none"></rect><rect x="269.02" y="97.98750000000001" width="24" height="18.006249999999998" fill="#99FF99" stroke="none"></rect><rect x="269.02" y="115.99375" width="24" height="18.006249999999998" fill="#FFFF99" stroke="none"></rect><rect x="269.02" y="134" width="24" height="18.006249999999998" fill="#FFCC99" stroke="none"></rect><rect x="269.02" y="152.00625" width="24" height="18.006249999999998" fill="#FF9999" stroke="none"></rect><rect x="57.109999999999985" y="0" width="18" height="24" fill="#99FF99" stroke="none"></rect><rect x="137.51" y="0" width="18" height="24" fill="#FFFF99" stroke="none"></rect><rect x="217.91" y="0" width="18" height="24" fill="#FF9999" stroke="none"></rect><rect x="57.109999999999985" y="244" width="18" height="24" fill="#99FF99" stroke="none"></rect><rect x="137.51" y="244" width="18" height="24" fill="#FFCC99" stroke="none"></rect><rect x="217.91" y="244" width="18" height="24" fill="#FF9999" stroke="none"></rect><path d="M119.70999999999998,134L92.91,87.58103835715409L39.30999999999996,87.5810383571541L12.509999999999984,134L39.309999999999995,180.41896164284591L92.91,180.41896164284591L119.70999999999998,134Z" id="EmotionWiseHexPath" stroke-width="1" stroke="black" fill="#99FF99"></path><text id="EmotionWiseHexText" x="66.10999999999999" y="150" text-anchor="middle" font-size="14px" font-family="Arial" style="z-index: 4;">Emotion</text><text x="66.10999999999999" y="132" id="EmotionWiseHexIcon" text-anchor="middle" font-size="1.6em" font-family="FontAwesome"></text><path d="M200.10999999999999,87.58103835739199L173.31,41.162076714546096L119.70999999999997,41.1620767145461L92.91,87.581038357392L119.71000000000001,134.00000000023792L173.31,134.00000000023792L200.10999999999999,87.581038357392Z" id="TranscendWiseHexPath" stroke-width="1" stroke="black" fill="#FFFF99"></path><text id="TranscendWiseHexText" x="146.51" y="103.581038357392" text-anchor="middle" font-size="14px" font-family="Arial" style="z-index: 4;">Transcend</text><text x="146.51" y="85.581038357392" id="TranscendWiseHexIcon" text-anchor="middle" font-size="1.6em" font-family="FontAwesome"></text><path d="M200.10999999999999,180.418961642608L173.31,133.99999999976208L119.70999999999997,133.9999999997621L92.91,180.418961642608L119.71000000000001,226.8379232854539L173.31,226.8379232854539L200.10999999999999,180.418961642608Z" id="ExpandWiseHexPath" stroke-width="1" stroke="black" fill="#FFCC99"></path><text id="ExpandWiseHexText" x="146.51" y="196.418961642608" text-anchor="middle" font-size="14px" font-family="Arial" style="z-index: 4;">Expand</text><text x="146.51" y="178.418961642608" id="ExpandWiseHexIcon" text-anchor="middle" font-size="1.6em" font-family="FontAwesome"></text><path d="M280.51,134L253.71,87.58103835715409L200.10999999999996,87.5810383571541L173.31,134L200.11,180.41896164284591L253.71,180.41896164284591L280.51,134Z" id="MemoryWiseHexPath" stroke-width="1" stroke="black" fill="#FF9999"></path><text id="MemoryWiseHexText" x="226.91" y="150" text-anchor="middle" font-size="14px" font-family="Arial" style="z-index: 4;">Memory</text><text x="226.91" y="132" id="MemoryWiseHexIcon" text-anchor="middle" font-size="1.6em" font-family="FontAwesome"></text><rect x="71.50999999999999" y="214.39999999999998" width="150" height="24" fill="none" stroke="none"></rect><text x="146.51" y="240.39999999999998" fill="black" text-anchor="middle" font-size="1.2em" font-family="Arial">Conscience</text></g></svg>