<svg id="BenefitInformationSvg" width="306.3666666666666" height="264.2033333333333" xmlns="http://www.w3.org/2000/svg" style=""><defs><linearGradient id="WhiteBlack" y1="0%" y2="0%" x1="0%" x2="100%"><stop offset="10%" stop-color="white"></stop><stop offset="90%" stop-color="black"></stop></linearGradient><linearGradient id="UIQuantify" y1="0%" y2="0%" x1="0%" x2="100%"><stop offset="10%" stop-color="rgba(49,230,109,1)"></stop><stop offset="90%" stop-color="rgba(230,230,49,1)"></stop></linearGradient><linearGradient id="UIRisk" y1="0%" y2="0%" x1="0%" x2="100%"><stop offset="10%" stop-color="rgba(49,230,109,1)"></stop><stop offset="90%" stop-color="rgba(230,79,49,1)"></stop></linearGradient><linearGradient id="UIPatterns" y1="0%" y2="0%" x1="0%" x2="100%"><stop offset="10%" stop-color="rgba(49,230,109,1)"></stop><stop offset="90%" stop-color="rgba(230,139,49,1)"></stop></linearGradient><linearGradient id="UIReview" y1="0%" y2="0%" x1="0%" x2="100%"><stop offset="10%" stop-color="rgba(49,230,109,1)"></stop><stop offset="90%" stop-color="rgba(230,169,49,1)"></stop></linearGradient><linearGradient id="ServiceQuantify" y1="0%" y2="0%" x1="0%" x2="100%"><stop offset="10%" stop-color="rgba(230,230,49,1)"></stop><stop offset="90%" stop-color="rgba(230,230,49,1)"></stop></linearGradient><linearGradient id="ServiceRisk" y1="0%" y2="0%" x1="0%" x2="100%"><stop offset="10%" stop-color="rgba(230,230,49,1)"></stop><stop offset="90%" stop-color="rgba(230,79,49,1)"></stop></linearGradient><linearGradient id="ServicePatterns" y1="0%" y2="0%" x1="0%" x2="100%"><stop offset="10%" stop-color="rgba(230,230,49,1)"></stop><stop offset="90%" stop-color="rgba(230,139,49,1)"></stop></linearGradient><linearGradient id="ServiceReview" y1="0%" y2="0%" x1="0%" x2="100%"><stop offset="10%" stop-color="rgba(230,230,49,1)"></stop><stop offset="90%" stop-color="rgba(230,169,49,1)"></stop></linearGradient><linearGradient id="CloudQuantify" y1="0%" y2="0%" x1="0%" x2="100%"><stop offset="10%" stop-color="rgba(230,169,49,1)"></stop><stop offset="90%" stop-color="rgba(230,230,49,1)"></stop></linearGradient><linearGradient id="CloudRisk" y1="0%" y2="0%" x1="0%" x2="100%"><stop offset="10%" stop-color="rgba(230,169,49,1)"></stop><stop offset="90%" stop-color="rgba(230,79,49,1)"></stop></linearGradient><linearGradient id="CloudPatterns" y1="0%" y2="0%" x1="0%" x2="100%"><stop offset="10%" stop-color="rgba(230,169,49,1)"></stop><stop offset="90%" stop-color="rgba(230,139,49,1)"></stop></linearGradient><linearGradient id="CloudReview" y1="0%" y2="0%" x1="0%" x2="100%"><stop offset="10%" stop-color="rgba(230,169,49,1)"></stop><stop offset="90%" stop-color="rgba(230,169,49,1)"></stop></linearGradient><linearGradient id="DatabaseQuantify" y1="0%" y2="0%" x1="0%" x2="100%"><stop offset="10%" stop-color="rgba(230,109,49,1)"></stop><stop offset="90%" stop-color="rgba(230,230,49,1)"></stop></linearGradient><linearGradient id="DatabaseRisk" y1="0%" y2="0%" x1="0%" x2="100%"><stop offset="10%" stop-color="rgba(230,109,49,1)"></stop><stop offset="90%" stop-color="rgba(230,79,49,1)"></stop></linearGradient><linearGradient id="DatabasePatterns" y1="0%" y2="0%" x1="0%" x2="100%"><stop offset="10%" stop-color="rgba(230,109,49,1)"></stop><stop offset="90%" stop-color="rgba(230,139,49,1)"></stop></linearGradient><linearGradient id="DatabaseReview" y1="0%" y2="0%" x1="0%" x2="100%"><stop offset="10%" stop-color="rgba(230,109,49,1)"></stop><stop offset="90%" stop-color="rgba(230,169,49,1)"></stop></linearGradient></defs><g id="BenefitInformationSvgG" transform="scale(1,1)" style=""><path d="M0,   99.07624999999999L81.13038075682154,99.07624999999999 A79.261,79.261 0, 1,1 81.13038075682154,165.12708333333333L0,   165.12708333333333 L0,99.07624999999999M120.15791666666664,132.10166666666666 A33.025416666666665,33.025416666666665 0, 1,0 120.15791666666664,132.10066666666665" stroke-linejoin="round" fill="rgba(230,120,120,1)"></path><path d="M-56.14320833333338,-97.2428893332577A112.28641666666665,112.28641666666665,0,0,1,56.14320833333325,-97.24288933325775L39.63049999999995,-68.64203952935841A79.261,79.261,0,0,0,-39.63050000000003,-68.64203952935837Z" fill="rgba(230,230,49,1)" stroke="none" transform="translate(153.1833333333333,132.10166666666666)"></path><text x="153.18333333333328" y="43.32795833333333" transform="rotate(0 153.18333333333328 43.32795833333333)" text-anchor="middle" font-size="14px" font-family="FontAwesome" fill="#000000" style="z-index: 4;">Quantify</text><path d="M116.58467649971125,61.79630101812765 C120.39703658654688,69.11977660651712 153.1833333333333,97.33897547743055 97.04012499999999,97.33897547743055" stroke-linejoin="round" fill="none" stroke="rgba(230,230,49,1)" stroke-width="1"></path><path d="M122.85146180064395,58.87405104028956 C126.01103175196576,66.50192766803717 153.1833333333333,98.81823893229166 97.04012499999999,98.81823893229166" stroke-linejoin="round" fill="none" stroke="rgba(230,230,49,1)" stroke-width="1"></path><path d="M129.34909095882506,56.50910743341147 C131.831824539503,64.38333235354222 153.1833333333333,100.29750238715278 97.04012499999999,100.29750238715278" stroke-linejoin="round" fill="none" stroke="rgba(230,230,49,1)" stroke-width="1"></path><path d="M136.02811309298534,54.719468846333626 C137.81511520135493,62.78011445261832 153.1833333333333,101.77676584201389 97.04012499999999,101.77676584201389" stroke-linejoin="round" fill="none" stroke="rgba(230,230,49,1)" stroke-width="1"></path><path d="M142.8376968117798,53.518755509317074 C143.91536728277495,61.70447542154099 153.1833333333333,103.256029296875 97.04012499999999,103.256029296875" stroke-linejoin="round" fill="none" stroke="rgba(230,230,49,1)" stroke-width="1"></path><path d="M149.7260170713694,52.916105575867036 C150.08615418199065,61.164601522825336 153.1833333333333,104.73529275173611 97.04012499999999,104.73529275173611" stroke-linejoin="round" fill="none" stroke="rgba(230,230,49,1)" stroke-width="1"></path><path d="M156.6406495952972,52.916105575867036 C156.28051248467594,61.164601522825336 153.1833333333333,106.21455620659722 97.04012499999999,106.21455620659722" stroke-linejoin="round" fill="none" stroke="rgba(230,230,49,1)" stroke-width="1"></path><path d="M163.52896985488687,53.518755509317074 C162.4512993838917,61.70447542154099 153.1833333333333,107.69381966145833 97.04012499999999,107.69381966145833" stroke-linejoin="round" fill="none" stroke="rgba(230,230,49,1)" stroke-width="1"></path><path d="M170.33855357368125,54.71946884633361 C168.55155146531166,62.78011445261831 153.1833333333333,109.17308311631945 97.04012499999999,109.17308311631945" stroke-linejoin="round" fill="none" stroke="rgba(230,230,49,1)" stroke-width="1"></path><path d="M177.01757570784144,56.509107433411444 C174.53484212716353,64.38333235354219 153.1833333333333,110.65234657118056 97.04012499999999,110.65234657118056" stroke-linejoin="round" fill="none" stroke="rgba(230,230,49,1)" stroke-width="1"></path><path d="M183.5152048660227,58.87405104028957 C180.3556349147009,66.50192766803718 153.1833333333333,112.13161002604167 97.04012499999999,112.13161002604167" stroke-linejoin="round" fill="none" stroke="rgba(230,230,49,1)" stroke-width="1"></path><path d="M189.78199016695527,61.79630101812761 C185.96963008011966,69.11977660651709 153.1833333333333,113.61087348090278 97.04012499999999,113.61087348090278" stroke-linejoin="round" fill="none" stroke="rgba(230,230,49,1)" stroke-width="1"></path><path d="M56.14320833333325,-97.24288933325775A112.28641666666665,112.28641666666665,0,0,1,112.28641666666665,-2.7502240151711865e-14L79.261,-1.941334598944367e-14A79.261,79.261,0,0,0,39.63049999999995,-68.64203952935841Z" fill="rgba(230,79,49,1)" stroke="none" transform="translate(153.1833333333333,132.10166666666666)"></path><text x="230.06361993815028" y="87.71481249999995" transform="rotate(60 230.06361993815028 87.71481249999995)" text-anchor="middle" font-size="14px" font-family="FontAwesome" fill="#000000" style="z-index: 4;">Risk</text><path d="M195.77023759051093,65.25361728009153 C191.33410173038826,72.21695575785978 153.1833333333333,115.0901369357639 97.04012499999999,115.0901369357639" stroke-linejoin="round" fill="none" stroke="rgba(230,79,49,1)" stroke-width="1"></path><path d="M201.4343729579935,69.21968756184307 C196.4082229970914,75.76989371859554 153.1833333333333,116.569400390625 97.04012499999999,116.569400390625" stroke-linejoin="round" fill="none" stroke="rgba(230,79,49,1)" stroke-width="1"></path><path d="M206.73128877915815,73.6643276737594 C201.15337675355138,79.75155048552058 153.1833333333333,118.04866384548612 97.04012499999999,118.04866384548612" stroke-linejoin="round" fill="none" stroke="rgba(230,79,49,1)" stroke-width="1"></path><path d="M211.62067232624054,78.55371122084179 C205.53344951447937,84.13162324644856 153.1833333333333,119.52792730034723 97.04012499999999,119.52792730034723" stroke-linejoin="round" fill="none" stroke="rgba(230,79,49,1)" stroke-width="1"></path><path d="M216.06531243815687,83.85062704200644 C209.51510628140443,88.87677700290854 153.1833333333333,121.00719075520834 97.04012499999999,121.00719075520834" stroke-linejoin="round" fill="none" stroke="rgba(230,79,49,1)" stroke-width="1"></path><path d="M220.03138271990844,89.51476240948904 C213.0680442421402,93.9508982696117 153.1833333333333,122.48645421006945 97.04012499999999,122.48645421006945" stroke-linejoin="round" fill="none" stroke="rgba(230,79,49,1)" stroke-width="1"></path><path d="M223.48869898187235,95.50300983304466 C216.16522339348285,99.31536991988028 153.1833333333333,123.96571766493057 97.04012499999999,123.96571766493057" stroke-linejoin="round" fill="none" stroke="rgba(230,79,49,1)" stroke-width="1"></path><path d="M226.41094895971042,101.7697951339773 C218.78307233196279,104.92936508529911 153.1833333333333,125.44498111979168 97.04012499999999,125.44498111979168" stroke-linejoin="round" fill="none" stroke="rgba(230,79,49,1)" stroke-width="1"></path><path d="M228.77589256658848,108.26742429215841 C220.90166764645775,110.75015787283635 153.1833333333333,126.92424457465279 97.04012499999999,126.92424457465279" stroke-linejoin="round" fill="none" stroke="rgba(230,79,49,1)" stroke-width="1"></path><path d="M230.56553115366634,114.94644642631869 C222.50488554738166,116.73344853468826 153.1833333333333,128.4035080295139 97.04012499999999,128.4035080295139" stroke-linejoin="round" fill="none" stroke="rgba(230,79,49,1)" stroke-width="1"></path><path d="M231.76624449068288,121.75603014511314 C223.58052457845898,122.8337006161083 153.1833333333333,129.88277148437498 97.04012499999999,129.88277148437498" stroke-linejoin="round" fill="none" stroke="rgba(230,79,49,1)" stroke-width="1"></path><path d="M232.36889442413292,128.6443504047028 C224.12039847717463,129.00448751532406 153.1833333333333,131.36203493923608 97.04012499999999,131.36203493923608" stroke-linejoin="round" fill="none" stroke="rgba(230,79,49,1)" stroke-width="1"></path><path d="M112.28641666666665,-2.7502240151711865e-14A112.28641666666665,112.28641666666665,0,0,1,56.1432083333333,97.24288933325774L39.63049999999998,68.6420395293584A79.261,79.261,0,0,0,79.261,-1.941334598944367e-14Z" fill="rgba(230,139,49,1)" stroke="none" transform="translate(153.1833333333333,132.10166666666666)"></path><text x="239.15688667788694" y="181.73852083333327" transform="rotate(300 239.15688667788694 181.73852083333327)" text-anchor="middle" font-size="14px" font-family="FontAwesome" fill="#000000" style="z-index: 4;">Patterns</text><path d="M232.36889442413292,135.55898292863054 C224.12039847717463,135.1988458180093 153.1833333333333,132.84129839409718 97.04012499999999,132.84129839409718" stroke-linejoin="round" fill="none" stroke="rgba(230,139,49,1)" stroke-width="1"></path><path d="M231.76624449068288,142.44730318822013 C223.58052457845898,141.369632717225 153.1833333333333,134.32056184895828 97.04012499999999,134.32056184895828" stroke-linejoin="round" fill="none" stroke="rgba(230,139,49,1)" stroke-width="1"></path><path d="M230.5655311536663,149.25688690701466 C222.50488554738166,147.46988479864507 153.1833333333333,135.79982530381938 97.04012499999999,135.79982530381938" stroke-linejoin="round" fill="none" stroke="rgba(230,139,49,1)" stroke-width="1"></path><path d="M228.77589256658854,155.9359090411748 C220.90166764645778,153.45317546049688 153.1833333333333,137.27908875868047 97.04012499999999,137.27908875868047" stroke-linejoin="round" fill="none" stroke="rgba(230,139,49,1)" stroke-width="1"></path><path d="M226.41094895971042,162.43353819935598 C218.7830723319628,159.27396824803418 153.1833333333333,138.75835221354157 97.04012499999999,138.75835221354157" stroke-linejoin="round" fill="none" stroke="rgba(230,139,49,1)" stroke-width="1"></path><path d="M223.48869898187235,168.70032350028868 C216.16522339348285,164.88796341345306 153.1833333333333,140.23761566840267 97.04012499999999,140.23761566840267" stroke-linejoin="round" fill="none" stroke="rgba(230,139,49,1)" stroke-width="1"></path><path d="M220.03138271990844,174.68857092384425 C213.0680442421402,170.25243506372158 153.1833333333333,141.71687912326377 97.04012499999999,141.71687912326377" stroke-linejoin="round" fill="none" stroke="rgba(230,139,49,1)" stroke-width="1"></path><path d="M216.06531243815695,180.3527062913268 C209.51510628140448,175.3265563304247 153.1833333333333,143.19614257812486 97.04012499999999,143.19614257812486" stroke-linejoin="round" fill="none" stroke="rgba(230,139,49,1)" stroke-width="1"></path><path d="M211.62067232624057,185.6496221124915 C205.5334495144794,180.07171008688474 153.1833333333333,144.67540603298596 97.04012499999999,144.67540603298596" stroke-linejoin="round" fill="none" stroke="rgba(230,139,49,1)" stroke-width="1"></path><path d="M206.73128877915818,190.5390056595739 C201.1533767535514,184.4517828478127 153.1833333333333,146.15466948784706 97.04012499999999,146.15466948784706" stroke-linejoin="round" fill="none" stroke="rgba(230,139,49,1)" stroke-width="1"></path><path d="M201.43437295799347,194.98364577149027 C196.40822299709137,188.4334396147378 153.1833333333333,147.63393294270816 97.04012499999999,147.63393294270816" stroke-linejoin="round" fill="none" stroke="rgba(230,139,49,1)" stroke-width="1"></path><path d="M195.77023759051093,198.94971605324176 C191.33410173038828,191.9863775754735 153.1833333333333,149.11319639756925 97.04012499999999,149.11319639756925" stroke-linejoin="round" fill="none" stroke="rgba(230,139,49,1)" stroke-width="1"></path><path d="M56.1432083333333,97.24288933325774A112.28641666666665,112.28641666666665,0,0,1,-56.14320833333341,97.24288933325766L-39.63050000000006,68.64203952935836A79.261,79.261,0,0,0,39.63049999999998,68.6420395293584Z" fill="rgba(230,169,49,1)" stroke="none" transform="translate(153.1833333333333,132.10166666666666)"></path><text x="153.18333333333334" y="231.375375" transform="rotate(360 153.18333333333334 231.375375)" text-anchor="middle" font-size="14px" font-family="FontAwesome" fill="#000000" style="z-index: 4;">Review</text><path d="M189.78199016695538,202.40703231520564 C185.96963008011974,195.08355672681617 153.1833333333333,150.59245985243035 97.04012499999999,150.59245985243035" stroke-linejoin="round" fill="none" stroke="rgba(230,169,49,1)" stroke-width="1"></path><path d="M183.51520486602269,205.32928229304378 C180.35563491470086,197.70140566529614 153.1833333333333,152.07172330729145 97.04012499999999,152.07172330729145" stroke-linejoin="round" fill="none" stroke="rgba(230,169,49,1)" stroke-width="1"></path><path d="M177.0175757078415,207.6942258999219 C174.53484212716356,199.82000097979113 153.1833333333333,153.55098676215255 97.04012499999999,153.55098676215255" stroke-linejoin="round" fill="none" stroke="rgba(230,169,49,1)" stroke-width="1"></path><path d="M170.33855357368134,209.48386448699966 C168.55155146531177,201.42321888071498 153.1833333333333,155.03025021701364 97.04012499999999,155.03025021701364" stroke-linejoin="round" fill="none" stroke="rgba(230,169,49,1)" stroke-width="1"></path><path d="M163.52896985488684,210.68457782401623 C162.45129938389167,202.49885791179233 153.1833333333333,156.50951367187474 97.04012499999999,156.50951367187474" stroke-linejoin="round" fill="none" stroke="rgba(230,169,49,1)" stroke-width="1"></path><path d="M156.64064959529722,211.28722775746627 C156.280512484676,203.03873181050798 153.1833333333333,157.98877712673584 97.04012499999999,157.98877712673584" stroke-linejoin="round" fill="none" stroke="rgba(230,169,49,1)" stroke-width="1"></path><path d="M149.7260170713695,211.28722775746627 C150.08615418199074,203.03873181050798 153.1833333333333,159.46804058159694 97.04012499999999,159.46804058159694" stroke-linejoin="round" fill="none" stroke="rgba(230,169,49,1)" stroke-width="1"></path><path d="M142.83769681177984,210.68457782401623 C143.91536728277498,202.49885791179233 153.1833333333333,160.94730403645804 97.04012499999999,160.94730403645804" stroke-linejoin="round" fill="none" stroke="rgba(230,169,49,1)" stroke-width="1"></path><path d="M136.0281130929853,209.48386448699966 C137.8151152013549,201.423218880715 153.1833333333333,162.42656749131913 97.04012499999999,162.42656749131913" stroke-linejoin="round" fill="none" stroke="rgba(230,169,49,1)" stroke-width="1"></path><path d="M129.34909095882512,207.69422589992186 C131.83182453950303,199.8200009797911 153.1833333333333,163.90583094618023 97.04012499999999,163.90583094618023" stroke-linejoin="round" fill="none" stroke="rgba(230,169,49,1)" stroke-width="1"></path><path d="M122.85146180064405,205.3292822930438 C126.01103175196585,197.7014056652962 153.1833333333333,165.38509440104133 97.04012499999999,165.38509440104133" stroke-linejoin="round" fill="none" stroke="rgba(230,169,49,1)" stroke-width="1"></path><path d="M116.58467649971129,202.4070323152057 C120.3970365865469,195.0835567268162 153.1833333333333,166.86435785590243 97.04012499999999,166.86435785590243" stroke-linejoin="round" fill="none" stroke="rgba(230,169,49,1)" stroke-width="1"></path><g transform="translate(0,96.59934375)"><g><g stroke="url(#UIQuantify)" fill="none"><path d="M24,2.2188951822916736C48.520062499999995,2.2188951822916736 48.520062499999995,2.3188951822916737 73.04012499999999,2.3188951822916737" style="stroke-width: 3.43779;"><title>UI → Quantify</title></path></g><g stroke="url(#UIRisk)" fill="none"><path d="M24,6.656685546875007C48.520062499999995,6.656685546875007 48.520062499999995,20.070056640625012 73.04012499999999,20.070056640625012" style="stroke-width: 3.43779;"><title>UI → Risk</title></path></g><g stroke="url(#UIPatterns)" fill="none"><path d="M24,11.09447591145834C48.520062499999995,11.09447591145834 48.520062499999995,37.82121809895834 73.04012499999999,37.82121809895834" style="stroke-width: 3.43779;"><title>UI → Patterns</title></path></g><g stroke="url(#UIReview)" fill="none"><path d="M24,15.532266276041673C48.520062499999995,15.532266276041673 48.520062499999995,55.57237955729167 73.04012499999999,55.57237955729167" style="stroke-width: 3.43779;"><title>UI → Review</title></path></g><g stroke="url(#ServiceQuantify)" fill="none"><path d="M24,19.97005664062501C48.520062499999995,19.97005664062501 48.520062499999995,6.756685546875007 73.04012499999999,6.756685546875007" style="stroke-width: 3.43779;"><title>Service → Quantify</title></path></g><g stroke="url(#ServiceRisk)" fill="none"><path d="M24,24.407847005208342C48.520062499999995,24.407847005208342 48.520062499999995,24.507847005208344 73.04012499999999,24.507847005208344" style="stroke-width: 3.43779;"><title>Service → Risk</title></path></g><g stroke="url(#ServicePatterns)" fill="none"><path d="M24,28.845637369791675C48.520062499999995,28.845637369791675 48.520062499999995,42.259008463541676 73.04012499999999,42.259008463541676" style="stroke-width: 3.43779;"><title>Service → Patterns</title></path></g><g stroke="url(#ServiceReview)" fill="none"><path d="M24,33.28342773437501C48.520062499999995,33.28342773437501 48.520062499999995,60.010169921875004 73.04012499999999,60.010169921875004" style="stroke-width: 3.43779;"><title>Service → Review</title></path></g><g stroke="url(#CloudQuantify)" fill="none"><path d="M24,37.72121809895834C48.520062499999995,37.72121809895834 48.520062499999995,11.194475911458339 73.04012499999999,11.194475911458339" style="stroke-width: 3.43779;"><title>Cloud → Quantify</title></path></g><g stroke="url(#CloudRisk)" fill="none"><path d="M24,42.159008463541674C48.520062499999995,42.159008463541674 48.520062499999995,28.945637369791676 73.04012499999999,28.945637369791676" style="stroke-width: 3.43779;"><title>Cloud → Risk</title></path></g><g stroke="url(#CloudPatterns)" fill="none"><path d="M24,46.596798828125C48.520062499999995,46.596798828125 48.520062499999995,46.696798828125004 73.04012499999999,46.696798828125004" style="stroke-width: 3.43779;"><title>Cloud → Patterns</title></path></g><g stroke="url(#CloudReview)" fill="none"><path d="M24,51.03458919270834C48.520062499999995,51.03458919270834 48.520062499999995,64.44796028645833 73.04012499999999,64.44796028645833" style="stroke-width: 3.43779;"><title>Cloud → Review</title></path></g><g stroke="url(#DatabaseQuantify)" fill="none"><path d="M24,55.47237955729167C48.520062499999995,55.47237955729167 48.520062499999995,15.632266276041673 73.04012499999999,15.632266276041673" style="stroke-width: 3.43779;"><title>Database → Quantify</title></path></g><g stroke="url(#DatabaseRisk)" fill="none"><path d="M24,59.910169921875C48.520062499999995,59.910169921875 48.520062499999995,33.38342773437501 73.04012499999999,33.38342773437501" style="stroke-width: 3.43779;"><title>Database → Risk</title></path></g><g stroke="url(#DatabasePatterns)" fill="none"><path d="M24,64.34796028645833C48.520062499999995,64.34796028645833 48.520062499999995,51.13458919270834 73.04012499999999,51.13458919270834" style="stroke-width: 3.43779;"><title>Database → Patterns</title></path></g><g stroke="url(#DatabaseReview)" fill="none"><path d="M24,68.78575065104165C48.520062499999995,68.78575065104165 48.520062499999995,68.88575065104165 73.04012499999999,68.88575065104165" style="stroke-width: 3.43779;"><title>Database → Review</title></path></g></g><g><g class="node" transform="translate(0,7.105427357601002e-15)" style="-webkit-tap-highlight-color: rgba(0, 0, 0, 0);"><rect height="17.751161458333332" width="24" fill="rgba(49,230,109,1)"><title>UI</title></rect></g><g class="node" transform="translate(0,17.751161458333343)" style="-webkit-tap-highlight-color: rgba(0, 0, 0, 0);"><rect height="17.751161458333332" width="24" fill="rgba(230,230,49,1)"><title>Service</title></rect></g><g class="node" transform="translate(0,35.50232291666667)" style="-webkit-tap-highlight-color: rgba(0, 0, 0, 0);"><rect height="17.751161458333332" width="24" fill="rgba(230,169,49,1)"><title>Cloud</title></rect></g><g class="node" transform="translate(0,53.253484375)" style="-webkit-tap-highlight-color: rgba(0, 0, 0, 0);"><rect height="17.751161458333332" width="24" fill="rgba(230,109,49,1)"><title>Database</title></rect></g><g class="node" transform="translate(73.04012499999999,7.105427357601002e-15)" style="-webkit-tap-highlight-color: rgba(0, 0, 0, 0);"><rect height="17.751161458333332" width="24" fill="rgba(230,230,49,1)"><title>Quantify</title></rect></g><g class="node" transform="translate(73.04012499999999,17.751161458333343)" style="-webkit-tap-highlight-color: rgba(0, 0, 0, 0);"><rect height="17.751161458333332" width="24" fill="rgba(230,79,49,1)"><title>Risk</title></rect></g><g class="node" transform="translate(73.04012499999999,35.50232291666667)" style="-webkit-tap-highlight-color: rgba(0, 0, 0, 0);"><rect height="17.751161458333332" width="24" fill="rgba(230,139,49,1)"><title>Patterns</title></rect></g><g class="node" transform="translate(73.04012499999999,53.253484375)" style="-webkit-tap-highlight-color: rgba(0, 0, 0, 0);"><rect height="17.751161458333332" width="24" fill="rgba(230,169,49,1)"><title>Review</title></rect></g></g></g><text x="153.1833333333333" y="144.10166666666666" id="BenefitInfoIconSvg" text-anchor="middle" font-size="2em" font-family="FontAwesome" style="z-index: 4;"></text><text x="85.04012499999999" y="264.2033333333333" id="BenefitInfoTextSvg" fill="black" text-anchor="middle" font-size="1.4em" font-family="FontAwesome" style="z-index: 4;">Benefit</text><rect x="144.1833333333333" y="0" width="18" height="24" fill="rgba(230,230,49,1)" stroke="none"></rect><rect x="144.1833333333333" y="240.20333333333332" width="18" height="24" fill="rgba(230,169,49,1)" stroke="none"></rect></g></svg>