<svg id="CollaborateInformationSvg" width="306.3666666666666" height="264.2033333333333" xmlns="http://www.w3.org/2000/svg" style=""><defs><linearGradient id="WhiteBlack" y1="0%" y2="0%" x1="0%" x2="100%"><stop offset="10%" stop-color="white"></stop><stop offset="90%" stop-color="black"></stop></linearGradient><linearGradient id="TeamEntitlement" y1="0%" y2="0%" x1="0%" x2="100%"><stop offset="10%" stop-color="rgba(49,230,109,1)"></stop><stop offset="90%" stop-color="rgba(49,230,109,1)"></stop></linearGradient><linearGradient id="TeamProposition" y1="0%" y2="0%" x1="0%" x2="100%"><stop offset="10%" stop-color="rgba(49,230,109,1)"></stop><stop offset="90%" stop-color="rgba(230,199,49,1)"></stop></linearGradient><linearGradient id="TeamPortfolio" y1="0%" y2="0%" x1="0%" x2="100%"><stop offset="10%" stop-color="rgba(49,230,109,1)"></stop><stop offset="90%" stop-color="rgba(230,230,49,1)"></stop></linearGradient><linearGradient id="TeamIntelligence" y1="0%" y2="0%" x1="0%" x2="100%"><stop offset="10%" stop-color="rgba(49,230,109,1)"></stop><stop offset="90%" stop-color="rgba(230,109,49,1)"></stop></linearGradient><linearGradient id="ActivityEntitlement" y1="0%" y2="0%" x1="0%" x2="100%"><stop offset="10%" stop-color="rgba(200,204,70,1)"></stop><stop offset="90%" stop-color="rgba(49,230,109,1)"></stop></linearGradient><linearGradient id="ActivityProposition" y1="0%" y2="0%" x1="0%" x2="100%"><stop offset="10%" stop-color="rgba(200,204,70,1)"></stop><stop offset="90%" stop-color="rgba(230,199,49,1)"></stop></linearGradient><linearGradient id="ActivityPortfolio" y1="0%" y2="0%" x1="0%" x2="100%"><stop offset="10%" stop-color="rgba(200,204,70,1)"></stop><stop offset="90%" stop-color="rgba(230,230,49,1)"></stop></linearGradient><linearGradient id="ActivityIntelligence" y1="0%" y2="0%" x1="0%" x2="100%"><stop offset="10%" stop-color="rgba(200,204,70,1)"></stop><stop offset="90%" stop-color="rgba(230,109,49,1)"></stop></linearGradient><linearGradient id="PartnerEntitlement" y1="0%" y2="0%" x1="0%" x2="100%"><stop offset="10%" stop-color="rgba(49,230,109,1)"></stop><stop offset="90%" stop-color="rgba(49,230,109,1)"></stop></linearGradient><linearGradient id="PartnerProposition" y1="0%" y2="0%" x1="0%" x2="100%"><stop offset="10%" stop-color="rgba(49,230,109,1)"></stop><stop offset="90%" stop-color="rgba(230,199,49,1)"></stop></linearGradient><linearGradient id="PartnerPortfolio" y1="0%" y2="0%" x1="0%" x2="100%"><stop offset="10%" stop-color="rgba(49,230,109,1)"></stop><stop offset="90%" stop-color="rgba(230,230,49,1)"></stop></linearGradient><linearGradient id="PartnerIntelligence" y1="0%" y2="0%" x1="0%" x2="100%"><stop offset="10%" stop-color="rgba(49,230,109,1)"></stop><stop offset="90%" stop-color="rgba(230,109,49,1)"></stop></linearGradient><linearGradient id="KanbanEntitlement" y1="0%" y2="0%" x1="0%" x2="100%"><stop offset="10%" stop-color="rgba(230,230,49,1)"></stop><stop offset="90%" stop-color="rgba(49,230,109,1)"></stop></linearGradient><linearGradient id="KanbanProposition" y1="0%" y2="0%" x1="0%" x2="100%"><stop offset="10%" stop-color="rgba(230,230,49,1)"></stop><stop offset="90%" stop-color="rgba(230,199,49,1)"></stop></linearGradient><linearGradient id="KanbanPortfolio" y1="0%" y2="0%" x1="0%" x2="100%"><stop offset="10%" stop-color="rgba(230,230,49,1)"></stop><stop offset="90%" stop-color="rgba(230,230,49,1)"></stop></linearGradient><linearGradient id="KanbanIntelligence" y1="0%" y2="0%" x1="0%" x2="100%"><stop offset="10%" stop-color="rgba(230,230,49,1)"></stop><stop offset="90%" stop-color="rgba(230,109,49,1)"></stop></linearGradient></defs><g id="CollaborateInformationSvgG" transform="scale(1,1)" style=""><path d="M306.3666666666666,   99.07624999999999L225.2362859098451,99.07624999999999 A79.261,79.261 0, 1,0 225.2362859098451,165.12708333333333L306.3666666666666,   165.12708333333333 L306.3666666666666,99.07624999999999M186.20874999999998,132.10166666666666 A33.025416666666665,33.025416666666665 0, 1,1 186.20874999999998,132.10066666666665" stroke-linejoin="round" fill="rgba(38,179,85,1)"></path><path d="M56.14320833333325,-97.24288933325775A112.28641666666665,112.28641666666665,0,0,0,-56.14320833333338,-97.2428893332577L-39.63050000000003,-68.64203952935837A79.261,79.261,0,0,1,39.63049999999995,-68.64203952935841Z" fill="rgba(49,230,109,1)" stroke="none" transform="translate(153.1833333333333,132.10166666666666)"></path><text x="153.18333333333328" y="43.32795833333333" transform="rotate(0 153.18333333333328 43.32795833333333)" text-anchor="middle" font-size="14px" font-family="FontAwesome" fill="#000000" style="z-index: 4;">Team</text><path d="M189.78199016695527,61.79630101812761 C185.96963008011966,69.11977660651709 153.1833333333333,97.33897547743055 225.32654166666663,97.33897547743055" stroke-linejoin="round" fill="none" stroke="rgba(49,230,109,1)" stroke-width="1"></path><path d="M183.5152048660227,58.87405104028957 C180.3556349147009,66.50192766803718 153.1833333333333,98.81823893229166 225.32654166666663,98.81823893229166" stroke-linejoin="round" fill="none" stroke="rgba(49,230,109,1)" stroke-width="1"></path><path d="M177.01757570784144,56.509107433411444 C174.53484212716353,64.38333235354219 153.1833333333333,100.29750238715278 225.32654166666663,100.29750238715278" stroke-linejoin="round" fill="none" stroke="rgba(49,230,109,1)" stroke-width="1"></path><path d="M170.33855357368125,54.71946884633361 C168.55155146531166,62.78011445261831 153.1833333333333,101.77676584201389 225.32654166666663,101.77676584201389" stroke-linejoin="round" fill="none" stroke="rgba(49,230,109,1)" stroke-width="1"></path><path d="M163.52896985488687,53.518755509317074 C162.4512993838917,61.70447542154099 153.1833333333333,103.256029296875 225.32654166666663,103.256029296875" stroke-linejoin="round" fill="none" stroke="rgba(49,230,109,1)" stroke-width="1"></path><path d="M156.6406495952972,52.916105575867036 C156.28051248467594,61.164601522825336 153.1833333333333,104.73529275173611 225.32654166666663,104.73529275173611" stroke-linejoin="round" fill="none" stroke="rgba(49,230,109,1)" stroke-width="1"></path><path d="M149.7260170713694,52.916105575867036 C150.08615418199065,61.164601522825336 153.1833333333333,106.21455620659722 225.32654166666663,106.21455620659722" stroke-linejoin="round" fill="none" stroke="rgba(49,230,109,1)" stroke-width="1"></path><path d="M142.8376968117798,53.518755509317074 C143.91536728277495,61.70447542154099 153.1833333333333,107.69381966145833 225.32654166666663,107.69381966145833" stroke-linejoin="round" fill="none" stroke="rgba(49,230,109,1)" stroke-width="1"></path><path d="M136.02811309298534,54.719468846333626 C137.81511520135493,62.78011445261832 153.1833333333333,109.17308311631945 225.32654166666663,109.17308311631945" stroke-linejoin="round" fill="none" stroke="rgba(49,230,109,1)" stroke-width="1"></path><path d="M129.34909095882506,56.50910743341147 C131.831824539503,64.38333235354222 153.1833333333333,110.65234657118056 225.32654166666663,110.65234657118056" stroke-linejoin="round" fill="none" stroke="rgba(49,230,109,1)" stroke-width="1"></path><path d="M122.85146180064395,58.87405104028956 C126.01103175196576,66.50192766803717 153.1833333333333,112.13161002604167 225.32654166666663,112.13161002604167" stroke-linejoin="round" fill="none" stroke="rgba(49,230,109,1)" stroke-width="1"></path><path d="M116.58467649971125,61.79630101812765 C120.39703658654688,69.11977660651712 153.1833333333333,113.61087348090278 225.32654166666663,113.61087348090278" stroke-linejoin="round" fill="none" stroke="rgba(49,230,109,1)" stroke-width="1"></path><path d="M-56.14320833333338,-97.2428893332577A112.28641666666665,112.28641666666665,0,0,0,-112.28641666666665,1.3751120075855932e-14L-79.261,9.706672994721836e-15A79.261,79.261,0,0,1,-39.63050000000003,-68.64203952935837Z" fill="rgba(200,204,70,1)" stroke="none" transform="translate(153.1833333333333,132.10166666666666)"></path><text x="76.30304672851634" y="87.7148125" transform="rotate(-60 76.30304672851634 87.7148125)" text-anchor="middle" font-size="14px" font-family="FontAwesome" fill="#000000" style="z-index: 4;">Activity</text><path d="M110.59642907615569,65.25361728009155 C115.03256493627835,72.21695575785978 153.1833333333333,115.0901369357639 225.32654166666663,115.0901369357639" stroke-linejoin="round" fill="none" stroke="rgba(200,204,70,1)" stroke-width="1"></path><path d="M104.93229370867309,69.21968756184309 C109.95844366957519,75.76989371859554 153.1833333333333,116.569400390625 225.32654166666663,116.569400390625" stroke-linejoin="round" fill="none" stroke="rgba(200,204,70,1)" stroke-width="1"></path><path d="M99.63537788750845,73.66432767375943 C105.2132899131152,79.7515504855206 153.1833333333333,118.04866384548612 225.32654166666663,118.04866384548612" stroke-linejoin="round" fill="none" stroke="rgba(200,204,70,1)" stroke-width="1"></path><path d="M94.74599434042604,78.55371122084185 C100.83321715218722,84.13162324644861 153.1833333333333,119.52792730034723 225.32654166666663,119.52792730034723" stroke-linejoin="round" fill="none" stroke="rgba(200,204,70,1)" stroke-width="1"></path><path d="M90.30135422850972,83.85062704200645 C96.85156038526219,88.87677700290857 153.1833333333333,121.00719075520834 225.32654166666663,121.00719075520834" stroke-linejoin="round" fill="none" stroke="rgba(200,204,70,1)" stroke-width="1"></path><path d="M86.33528394675817,89.51476240948908 C93.29862242452641,93.95089826961174 153.1833333333333,122.48645421006945 225.32654166666663,122.48645421006945" stroke-linejoin="round" fill="none" stroke="rgba(200,204,70,1)" stroke-width="1"></path><path d="M82.87796768479427,95.50300983304464 C90.20144327318376,99.31536991988028 153.1833333333333,123.96571766493057 225.32654166666663,123.96571766493057" stroke-linejoin="round" fill="none" stroke="rgba(200,204,70,1)" stroke-width="1"></path><path d="M79.9557177069562,101.76979513397733 C87.58359433470382,104.92936508529914 153.1833333333333,125.44498111979168 225.32654166666663,125.44498111979168" stroke-linejoin="round" fill="none" stroke="rgba(200,204,70,1)" stroke-width="1"></path><path d="M77.5907741000781,108.26742429215847 C85.46499902020885,110.75015787283641 153.1833333333333,126.92424457465279 225.32654166666663,126.92424457465279" stroke-linejoin="round" fill="none" stroke="rgba(200,204,70,1)" stroke-width="1"></path><path d="M75.80113551300028,114.94644642631869 C83.86178111928497,116.73344853468826 153.1833333333333,128.4035080295139 225.32654166666663,128.4035080295139" stroke-linejoin="round" fill="none" stroke="rgba(200,204,70,1)" stroke-width="1"></path><path d="M74.60042217598372,121.75603014511317 C82.78614208820764,122.83370061610833 153.1833333333333,129.88277148437498 225.32654166666663,129.88277148437498" stroke-linejoin="round" fill="none" stroke="rgba(200,204,70,1)" stroke-width="1"></path><path d="M73.99777224253369,128.64435040470275 C82.24626818949199,129.00448751532397 153.1833333333333,131.36203493923608 225.32654166666663,131.36203493923608" stroke-linejoin="round" fill="none" stroke="rgba(200,204,70,1)" stroke-width="1"></path><path d="M-112.28641666666665,1.3751120075855932e-14A112.28641666666665,112.28641666666665,0,0,0,-56.143208333333355,97.24288933325771L-39.63050000000001,68.64203952935839A79.261,79.261,0,0,1,-79.261,9.706672994721836e-15Z" fill="rgba(49,230,109,1)" stroke="none" transform="translate(153.1833333333333,132.10166666666666)"></path><text x="67.20977998877972" y="181.73852083333333" transform="rotate(60 67.20977998877972 181.73852083333333)" text-anchor="middle" font-size="14px" font-family="FontAwesome" fill="#000000" style="z-index: 4;">Partner</text><path d="M73.99777224253369,135.55898292863057 C82.24626818949199,135.19884581800932 153.1833333333333,132.84129839409718 225.32654166666663,132.84129839409718" stroke-linejoin="round" fill="none" stroke="rgba(49,230,109,1)" stroke-width="1"></path><path d="M74.60042217598372,142.44730318822016 C82.78614208820764,141.36963271722502 153.1833333333333,134.32056184895828 225.32654166666663,134.32056184895828" stroke-linejoin="round" fill="none" stroke="rgba(49,230,109,1)" stroke-width="1"></path><path d="M75.80113551300029,149.25688690701466 C83.86178111928497,147.46988479864507 153.1833333333333,135.79982530381938 225.32654166666663,135.79982530381938" stroke-linejoin="round" fill="none" stroke="rgba(49,230,109,1)" stroke-width="1"></path><path d="M77.59077410007811,155.93590904117485 C85.46499902020886,153.45317546049694 153.1833333333333,137.27908875868047 225.32654166666663,137.27908875868047" stroke-linejoin="round" fill="none" stroke="rgba(49,230,109,1)" stroke-width="1"></path><path d="M79.95571770695622,162.43353819935604 C87.58359433470383,159.27396824803424 153.1833333333333,138.75835221354157 225.32654166666663,138.75835221354157" stroke-linejoin="round" fill="none" stroke="rgba(49,230,109,1)" stroke-width="1"></path><path d="M82.87796768479429,168.70032350028868 C90.20144327318377,164.88796341345306 153.1833333333333,140.23761566840267 225.32654166666663,140.23761566840267" stroke-linejoin="round" fill="none" stroke="rgba(49,230,109,1)" stroke-width="1"></path><path d="M86.33528394675818,174.68857092384425 C93.29862242452643,170.25243506372158 153.1833333333333,141.71687912326377 225.32654166666663,141.71687912326377" stroke-linejoin="round" fill="none" stroke="rgba(49,230,109,1)" stroke-width="1"></path><path d="M90.30135422850972,180.35270629132685 C96.85156038526218,175.32655633042475 153.1833333333333,143.19614257812486 225.32654166666663,143.19614257812486" stroke-linejoin="round" fill="none" stroke="rgba(49,230,109,1)" stroke-width="1"></path><path d="M94.74599434042608,185.6496221124915 C100.83321715218725,180.07171008688476 153.1833333333333,144.67540603298596 225.32654166666663,144.67540603298596" stroke-linejoin="round" fill="none" stroke="rgba(49,230,109,1)" stroke-width="1"></path><path d="M99.63537788750847,190.5390056595739 C105.21328991311522,184.45178284781272 153.1833333333333,146.15466948784706 225.32654166666663,146.15466948784706" stroke-linejoin="round" fill="none" stroke="rgba(49,230,109,1)" stroke-width="1"></path><path d="M104.9322937086731,194.98364577149025 C109.95844366957522,188.43343961473778 153.1833333333333,147.63393294270816 225.32654166666663,147.63393294270816" stroke-linejoin="round" fill="none" stroke="rgba(49,230,109,1)" stroke-width="1"></path><path d="M110.59642907615573,198.9497160532418 C115.03256493627839,191.98637757547357 153.1833333333333,149.11319639756925 225.32654166666663,149.11319639756925" stroke-linejoin="round" fill="none" stroke="rgba(49,230,109,1)" stroke-width="1"></path><path d="M-56.143208333333355,97.24288933325771A112.28641666666665,112.28641666666665,0,0,0,56.14320833333331,97.24288933325772L39.63049999999999,68.6420395293584A79.261,79.261,0,0,1,-39.63050000000001,68.64203952935839Z" fill="rgba(230,230,49,1)" stroke="none" transform="translate(153.1833333333333,132.10166666666666)"></path><text x="153.1833333333333" y="231.375375" transform="rotate(0 153.1833333333333 231.375375)" text-anchor="middle" font-size="14px" font-family="FontAwesome" fill="#000000" style="z-index: 4;">Kanban</text><path d="M116.58467649971129,202.4070323152057 C120.39703658654693,195.0835567268162 153.1833333333333,150.59245985243035 225.32654166666663,150.59245985243035" stroke-linejoin="round" fill="none" stroke="rgba(230,230,49,1)" stroke-width="1"></path><path d="M122.85146180064393,205.32928229304375 C126.01103175196575,197.70140566529614 153.1833333333333,152.07172330729145 225.32654166666663,152.07172330729145" stroke-linejoin="round" fill="none" stroke="rgba(230,230,49,1)" stroke-width="1"></path><path d="M129.34909095882512,207.6942258999219 C131.83182453950306,199.82000097979113 153.1833333333333,153.55098676215255 225.32654166666663,153.55098676215255" stroke-linejoin="round" fill="none" stroke="rgba(230,230,49,1)" stroke-width="1"></path><path d="M136.02811309298534,209.4838644869997 C137.81511520135493,201.423218880715 153.1833333333333,155.03025021701364 225.32654166666663,155.03025021701364" stroke-linejoin="round" fill="none" stroke="rgba(230,230,49,1)" stroke-width="1"></path><path d="M142.8376968117798,210.68457782401623 C143.91536728277498,202.49885791179233 153.1833333333333,156.50951367187474 225.32654166666663,156.50951367187474" stroke-linejoin="round" fill="none" stroke="rgba(230,230,49,1)" stroke-width="1"></path><path d="M149.72601707136943,211.28722775746627 C150.08615418199065,203.03873181050798 153.1833333333333,157.98877712673584 225.32654166666663,157.98877712673584" stroke-linejoin="round" fill="none" stroke="rgba(230,230,49,1)" stroke-width="1"></path><path d="M156.64064959529722,211.28722775746627 C156.280512484676,203.03873181050798 153.1833333333333,159.46804058159694 225.32654166666663,159.46804058159694" stroke-linejoin="round" fill="none" stroke="rgba(230,230,49,1)" stroke-width="1"></path><path d="M163.52896985488684,210.68457782401623 C162.45129938389167,202.49885791179233 153.1833333333333,160.94730403645804 225.32654166666663,160.94730403645804" stroke-linejoin="round" fill="none" stroke="rgba(230,230,49,1)" stroke-width="1"></path><path d="M170.33855357368128,209.4838644869997 C168.5515514653117,201.423218880715 153.1833333333333,162.42656749131913 225.32654166666663,162.42656749131913" stroke-linejoin="round" fill="none" stroke="rgba(230,230,49,1)" stroke-width="1"></path><path d="M177.0175757078415,207.69422589992186 C174.53484212716359,199.8200009797911 153.1833333333333,163.90583094618023 225.32654166666663,163.90583094618023" stroke-linejoin="round" fill="none" stroke="rgba(230,230,49,1)" stroke-width="1"></path><path d="M183.51520486602269,205.32928229304375 C180.3556349147009,197.70140566529614 153.1833333333333,165.38509440104133 225.32654166666663,165.38509440104133" stroke-linejoin="round" fill="none" stroke="rgba(230,230,49,1)" stroke-width="1"></path><path d="M189.78199016695535,202.4070323152057 C185.9696300801197,195.0835567268162 153.1833333333333,166.86435785590243 225.32654166666663,166.86435785590243" stroke-linejoin="round" fill="none" stroke="rgba(230,230,49,1)" stroke-width="1"></path><g transform="translate(225.32654166666663,96.59934375)"><g><g stroke="url(#TeamEntitlement)" fill="none"><path d="M24,2.2188951822916736C40.520062499999995,2.2188951822916736 40.520062499999995,2.3188951822916737 57.04012499999999,2.3188951822916737" style="stroke-width: 3.43779;"><title>Team → Entitlement</title></path></g><g stroke="url(#TeamProposition)" fill="none"><path d="M24,6.656685546875007C40.520062499999995,6.656685546875007 40.520062499999995,20.070056640625012 57.04012499999999,20.070056640625012" style="stroke-width: 3.43779;"><title>Team → Proposition</title></path></g><g stroke="url(#TeamPortfolio)" fill="none"><path d="M24,11.09447591145834C40.520062499999995,11.09447591145834 40.520062499999995,37.82121809895834 57.04012499999999,37.82121809895834" style="stroke-width: 3.43779;"><title>Team → Portfolio</title></path></g><g stroke="url(#TeamIntelligence)" fill="none"><path d="M24,15.532266276041673C40.520062499999995,15.532266276041673 40.520062499999995,55.57237955729167 57.04012499999999,55.57237955729167" style="stroke-width: 3.43779;"><title>Team → Intelligence</title></path></g><g stroke="url(#ActivityEntitlement)" fill="none"><path d="M24,19.97005664062501C40.520062499999995,19.97005664062501 40.520062499999995,6.756685546875007 57.04012499999999,6.756685546875007" style="stroke-width: 3.43779;"><title>Activity → Entitlement</title></path></g><g stroke="url(#ActivityProposition)" fill="none"><path d="M24,24.407847005208342C40.520062499999995,24.407847005208342 40.520062499999995,24.507847005208344 57.04012499999999,24.507847005208344" style="stroke-width: 3.43779;"><title>Activity → Proposition</title></path></g><g stroke="url(#ActivityPortfolio)" fill="none"><path d="M24,28.845637369791675C40.520062499999995,28.845637369791675 40.520062499999995,42.259008463541676 57.04012499999999,42.259008463541676" style="stroke-width: 3.43779;"><title>Activity → Portfolio</title></path></g><g stroke="url(#ActivityIntelligence)" fill="none"><path d="M24,33.28342773437501C40.520062499999995,33.28342773437501 40.520062499999995,60.010169921875004 57.04012499999999,60.010169921875004" style="stroke-width: 3.43779;"><title>Activity → Intelligence</title></path></g><g stroke="url(#PartnerEntitlement)" fill="none"><path d="M24,37.72121809895834C40.520062499999995,37.72121809895834 40.520062499999995,11.194475911458339 57.04012499999999,11.194475911458339" style="stroke-width: 3.43779;"><title>Partner → Entitlement</title></path></g><g stroke="url(#PartnerProposition)" fill="none"><path d="M24,42.159008463541674C40.520062499999995,42.159008463541674 40.520062499999995,28.945637369791676 57.04012499999999,28.945637369791676" style="stroke-width: 3.43779;"><title>Partner → Proposition</title></path></g><g stroke="url(#PartnerPortfolio)" fill="none"><path d="M24,46.596798828125C40.520062499999995,46.596798828125 40.520062499999995,46.696798828125004 57.04012499999999,46.696798828125004" style="stroke-width: 3.43779;"><title>Partner → Portfolio</title></path></g><g stroke="url(#PartnerIntelligence)" fill="none"><path d="M24,51.03458919270834C40.520062499999995,51.03458919270834 40.520062499999995,64.44796028645833 57.04012499999999,64.44796028645833" style="stroke-width: 3.43779;"><title>Partner → Intelligence</title></path></g><g stroke="url(#KanbanEntitlement)" fill="none"><path d="M24,55.47237955729167C40.520062499999995,55.47237955729167 40.520062499999995,15.632266276041673 57.04012499999999,15.632266276041673" style="stroke-width: 3.43779;"><title>Kanban → Entitlement</title></path></g><g stroke="url(#KanbanProposition)" fill="none"><path d="M24,59.910169921875C40.520062499999995,59.910169921875 40.520062499999995,33.38342773437501 57.04012499999999,33.38342773437501" style="stroke-width: 3.43779;"><title>Kanban → Proposition</title></path></g><g stroke="url(#KanbanPortfolio)" fill="none"><path d="M24,64.34796028645833C40.520062499999995,64.34796028645833 40.520062499999995,51.13458919270834 57.04012499999999,51.13458919270834" style="stroke-width: 3.43779;"><title>Kanban → Portfolio</title></path></g><g stroke="url(#KanbanIntelligence)" fill="none"><path d="M24,68.78575065104165C40.520062499999995,68.78575065104165 40.520062499999995,68.88575065104165 57.04012499999999,68.88575065104165" style="stroke-width: 3.43779;"><title>Kanban → Intelligence</title></path></g></g><g><g class="node" transform="translate(0,7.105427357601002e-15)" style="-webkit-tap-highlight-color: rgba(0, 0, 0, 0);"><rect height="17.751161458333332" width="24" fill="rgba(49,230,109,1)"><title>Team</title></rect></g><g class="node" transform="translate(0,17.751161458333343)" style="-webkit-tap-highlight-color: rgba(0, 0, 0, 0);"><rect height="17.751161458333332" width="24" fill="rgba(200,204,70,1)"><title>Activity</title></rect></g><g class="node" transform="translate(0,35.50232291666667)" style="-webkit-tap-highlight-color: rgba(0, 0, 0, 0);"><rect height="17.751161458333332" width="24" fill="rgba(49,230,109,1)"><title>Partner</title></rect></g><g class="node" transform="translate(0,53.253484375)" style="-webkit-tap-highlight-color: rgba(0, 0, 0, 0);"><rect height="17.751161458333332" width="24" fill="rgba(230,230,49,1)"><title>Kanban</title></rect></g><g class="node" transform="translate(57.04012499999999,7.105427357601002e-15)" style="-webkit-tap-highlight-color: rgba(0, 0, 0, 0);"><rect height="17.751161458333332" width="24" fill="rgba(49,230,109,1)"><title>Entitlement</title></rect></g><g class="node" transform="translate(57.04012499999999,17.751161458333343)" style="-webkit-tap-highlight-color: rgba(0, 0, 0, 0);"><rect height="17.751161458333332" width="24" fill="rgba(230,199,49,1)"><title>Proposition</title></rect></g><g class="node" transform="translate(57.04012499999999,35.50232291666667)" style="-webkit-tap-highlight-color: rgba(0, 0, 0, 0);"><rect height="17.751161458333332" width="24" fill="rgba(230,230,49,1)"><title>Portfolio</title></rect></g><g class="node" transform="translate(57.04012499999999,53.253484375)" style="-webkit-tap-highlight-color: rgba(0, 0, 0, 0);"><rect height="17.751161458333332" width="24" fill="rgba(230,109,49,1)"><title>Intelligence</title></rect></g></g></g><text x="153.1833333333333" y="144.10166666666666" id="CollaborateInfoIconSvg" text-anchor="middle" font-size="2em" font-family="FontAwesome" style="z-index: 4;"></text><text x="69.04012499999999" y="261.56129999999996" id="CollaborateInfoTextSvg" fill="black" text-anchor="middle" font-size="1.4em" font-family="FontAwesome" style="z-index: 4;">Collaborate</text><rect x="144.1833333333333" y="240.20333333333332" width="18" height="24" fill="rgba(230,230,49,1)" stroke="none"></rect></g></svg>