<svg id="DeliverInformationSvg" width="306.3666666666666" height="264.2033333333333" xmlns="http://www.w3.org/2000/svg" style=""><defs></defs><g id="DeliverInformationSvgG" transform="scale(1,1)" style=""><rect x="24" y="24" width="258.3666666666666" height="216.20333333333332" rx="24" ry="24" fill="rgba(230,230,81,1)" stroke="none"></rect><rect x="48" y="48" width="210.36666666666662" height="168.20333333333332" rx="24" ry="24" fill="rgba(97, 56, 77, 1.0 )" stroke="none"></rect><rect x="0" y="96.59934375" width="24" height="17.751161458333332" fill="rgba(49,230,109,1)" stroke="none"></rect><rect x="0" y="114.35050520833333" width="24" height="17.751161458333332" fill="rgba(230,169,49,1)" stroke="none"></rect><rect x="0" y="132.10166666666666" width="24" height="17.751161458333332" fill="rgba(230,49,49,1)" stroke="none"></rect><rect x="0" y="149.852828125" width="24" height="17.751161458333332" fill="rgba(230,109,49,1)" stroke="none"></rect><rect x="282.3666666666666" y="96.59934375" width="24" height="17.751161458333332" fill="rgba(49,230,109,1)" stroke="none"></rect><rect x="282.3666666666666" y="114.35050520833333" width="24" height="17.751161458333332" fill="rgba(230,169,49,1)" stroke="none"></rect><rect x="282.3666666666666" y="132.10166666666666" width="24" height="17.751161458333332" fill="rgba(230,49,49,1)" stroke="none"></rect><rect x="282.3666666666666" y="149.852828125" width="24" height="17.751161458333332" fill="rgba(230,109,49,1)" stroke="none"></rect><rect x="64.92233333333331" y="0" width="18" height="24" fill="rgba(49,230,109,1)" stroke="none"></rect><rect x="144.1833333333333" y="0" width="18" height="24" fill="rgba(230,169,49,1)" stroke="none"></rect><rect x="223.4443333333333" y="0" width="18" height="24" fill="rgba(230,109,49,1)" stroke="none"></rect><path d="M126.76299999999998,132.10166666666666L100.34266666666664,86.34030698042773L47.50199999999995,86.34030698042774L21.08166666666665,132.10166666666666L47.501999999999995,177.8630263529056L100.34266666666664,177.8630263529056L126.76299999999998,132.10166666666666Z" id="SupportInfoHexPath" stroke-width="1" stroke="black" fill="rgba(49,230,109,1)"></path><text id="SupportInfoHexText" x="73.92233333333331" y="148.10166666666666" text-anchor="middle" font-size="14px" font-family="FontAwesome" style="z-index: 4;">Support</text><text x="73.92233333333331" y="130.10166666666666" id="SupportInfoHexIcon" text-anchor="middle" font-size="1.6em" font-family="FontAwesome"></text><path d="M206.02399999999997,86.34030698066226L179.60366666666664,40.57894729442335L126.76299999999995,40.57894729442336L100.34266666666664,86.34030698066228L126.76299999999999,132.1016666669012L179.60366666666664,132.1016666669012L206.02399999999997,86.34030698066228Z" id="NetworkInfoHexPath" stroke-width="1" stroke="black" fill="rgba(230,169,49,1)"></path><text id="NetworkInfoHexText" x="153.1833333333333" y="102.34030698066228" text-anchor="middle" font-size="14px" font-family="FontAwesome" style="z-index: 4;">Network</text><text x="153.1833333333333" y="84.34030698066228" id="NetworkInfoHexIcon" text-anchor="middle" font-size="1.6em" font-family="FontAwesome"></text><path d="M206.02399999999997,177.86302635267106L179.60366666666664,132.10166666643212L126.76299999999995,132.10166666643215L100.34266666666664,177.86302635267106L126.76299999999999,223.62438603891L179.60366666666664,223.62438603891L206.02399999999997,177.86302635267106Z" id="SecurityInfoHexPath" stroke-width="1" stroke="black" fill="rgba(230,49,49,1)"></path><text id="SecurityInfoHexText" x="153.1833333333333" y="193.86302635267106" text-anchor="middle" font-size="14px" font-family="FontAwesome" style="z-index: 4;">Security</text><text x="153.1833333333333" y="175.86302635267106" id="SecurityInfoHexIcon" text-anchor="middle" font-size="1.6em" font-family="FontAwesome"></text><path d="M285.28499999999997,132.10166666666666L258.86466666666666,86.34030698042773L206.02399999999994,86.34030698042774L179.60366666666664,132.10166666666666L206.02399999999997,177.8630263529056L258.86466666666666,177.8630263529056L285.28499999999997,132.10166666666666Z" id="WarehouseInfoHexPath" stroke-width="1" stroke="black" fill="rgba(230,109,49,1)"></path><text id="WarehouseInfoHexText" x="232.4443333333333" y="148.10166666666666" text-anchor="middle" font-size="14px" font-family="FontAwesome" style="z-index: 4;">Warehouse</text><text x="232.4443333333333" y="130.10166666666666" id="WarehouseInfoHexIcon" text-anchor="middle" font-size="1.6em" font-family="FontAwesome"></text><rect x="78.18333333333331" y="211.36266666666666" width="150" height="24" fill="none" stroke="none"></rect><text x="153.1833333333333" y="237.36266666666666" fill="black" text-anchor="middle" font-size="1.2em" font-family="FontAwesome">Deliver</text></g></svg>