<svg id="DiscoverInformationSvg" width="366.1233333333333" height="264.2033333333333" xmlns="http://www.w3.org/2000/svg" style=""><defs><linearGradient id="WhiteBlack" y1="0%" y2="0%" x1="0%" x2="100%"><stop offset="10%" stop-color="white"></stop><stop offset="90%" stop-color="black"></stop></linearGradient><linearGradient id="EntitlementVision" y1="0%" y2="0%" x1="0%" x2="100%"><stop offset="10%" stop-color="rgba(49,230,109,1)"></stop><stop offset="90%" stop-color="rgba(230,199,49,1)"></stop></linearGradient><linearGradient id="EntitlementCommunity" y1="0%" y2="0%" x1="0%" x2="100%"><stop offset="10%" stop-color="rgba(49,230,109,1)"></stop><stop offset="90%" stop-color="rgba(49,230,109,1)"></stop></linearGradient><linearGradient id="EntitlementChannel" y1="0%" y2="0%" x1="0%" x2="100%"><stop offset="10%" stop-color="rgba(49,230,109,1)"></stop><stop offset="90%" stop-color="rgba(230,169,49,1)"></stop></linearGradient><linearGradient id="EntitlementAssumption" y1="0%" y2="0%" x1="0%" x2="100%"><stop offset="10%" stop-color="rgba(49,230,109,1)"></stop><stop offset="90%" stop-color="rgba(230,230,49,1)"></stop></linearGradient><linearGradient id="PropositionVision" y1="0%" y2="0%" x1="0%" x2="100%"><stop offset="10%" stop-color="rgba(230,199,49,1)"></stop><stop offset="90%" stop-color="rgba(230,199,49,1)"></stop></linearGradient><linearGradient id="PropositionCommunity" y1="0%" y2="0%" x1="0%" x2="100%"><stop offset="10%" stop-color="rgba(230,199,49,1)"></stop><stop offset="90%" stop-color="rgba(49,230,109,1)"></stop></linearGradient><linearGradient id="PropositionChannel" y1="0%" y2="0%" x1="0%" x2="100%"><stop offset="10%" stop-color="rgba(230,199,49,1)"></stop><stop offset="90%" stop-color="rgba(230,169,49,1)"></stop></linearGradient><linearGradient id="PropositionAssumption" y1="0%" y2="0%" x1="0%" x2="100%"><stop offset="10%" stop-color="rgba(230,199,49,1)"></stop><stop offset="90%" stop-color="rgba(230,230,49,1)"></stop></linearGradient><linearGradient id="PortfolioVision" y1="0%" y2="0%" x1="0%" x2="100%"><stop offset="10%" stop-color="rgba(230,230,49,1)"></stop><stop offset="90%" stop-color="rgba(230,199,49,1)"></stop></linearGradient><linearGradient id="PortfolioCommunity" y1="0%" y2="0%" x1="0%" x2="100%"><stop offset="10%" stop-color="rgba(230,230,49,1)"></stop><stop offset="90%" stop-color="rgba(49,230,109,1)"></stop></linearGradient><linearGradient id="PortfolioChannel" y1="0%" y2="0%" x1="0%" x2="100%"><stop offset="10%" stop-color="rgba(230,230,49,1)"></stop><stop offset="90%" stop-color="rgba(230,169,49,1)"></stop></linearGradient><linearGradient id="PortfolioAssumption" y1="0%" y2="0%" x1="0%" x2="100%"><stop offset="10%" stop-color="rgba(230,230,49,1)"></stop><stop offset="90%" stop-color="rgba(230,230,49,1)"></stop></linearGradient><linearGradient id="IntelligenceVision" y1="0%" y2="0%" x1="0%" x2="100%"><stop offset="10%" stop-color="rgba(230,109,49,1)"></stop><stop offset="90%" stop-color="rgba(230,199,49,1)"></stop></linearGradient><linearGradient id="IntelligenceCommunity" y1="0%" y2="0%" x1="0%" x2="100%"><stop offset="10%" stop-color="rgba(230,109,49,1)"></stop><stop offset="90%" stop-color="rgba(49,230,109,1)"></stop></linearGradient><linearGradient id="IntelligenceChannel" y1="0%" y2="0%" x1="0%" x2="100%"><stop offset="10%" stop-color="rgba(230,109,49,1)"></stop><stop offset="90%" stop-color="rgba(230,169,49,1)"></stop></linearGradient><linearGradient id="IntelligenceAssumption" y1="0%" y2="0%" x1="0%" x2="100%"><stop offset="10%" stop-color="rgba(230,109,49,1)"></stop><stop offset="90%" stop-color="rgba(230,230,49,1)"></stop></linearGradient></defs><g id="DiscoverInformationSvgG" transform="scale(1,1)" style=""><path d="M0,   99.07624999999999L111.00871409015487,99.07624999999999 A79.261,79.261 0, 1,1 111.00871409015487,165.12708333333333L0,   165.12708333333333 L0,99.07624999999999M150.03624999999997,132.10166666666666 A33.025416666666665,33.025416666666665 0, 1,0 150.03624999999997,132.10066666666665" stroke-linejoin="round" fill="rgba(230,120,120,1)"></path><path d="M-56.14320833333338,-97.2428893332577A112.28641666666665,112.28641666666665,0,0,1,56.14320833333325,-97.24288933325775L39.63049999999995,-68.64203952935841A79.261,79.261,0,0,0,-39.63050000000003,-68.64203952935837Z" fill="rgba(230,199,49,1)" stroke="none" transform="translate(183.06166666666664,132.10166666666666)"></path><text x="183.0616666666666" y="43.32795833333333" transform="rotate(0 183.0616666666666 43.32795833333333)" text-anchor="middle" font-size="14px" font-family="FontAwesome" fill="#000000" style="z-index: 4;">Vision</text><path d="M146.46300983304457,61.79630101812765 C150.2753699198802,69.11977660651712 183.06166666666664,97.33897547743055 126.91845833333332,97.33897547743055" stroke-linejoin="round" fill="none" stroke="rgba(230,199,49,1)" stroke-width="1"></path><path d="M152.7297951339773,58.87405104028956 C155.8893650852991,66.50192766803717 183.06166666666664,98.81823893229166 126.91845833333332,98.81823893229166" stroke-linejoin="round" fill="none" stroke="rgba(230,199,49,1)" stroke-width="1"></path><path d="M159.2274242921584,56.50910743341147 C161.71015787283633,64.38333235354222 183.06166666666664,100.29750238715278 126.91845833333332,100.29750238715278" stroke-linejoin="round" fill="none" stroke="rgba(230,199,49,1)" stroke-width="1"></path><path d="M165.90644642631867,54.719468846333626 C167.69344853468826,62.78011445261832 183.06166666666664,101.77676584201389 126.91845833333332,101.77676584201389" stroke-linejoin="round" fill="none" stroke="rgba(230,199,49,1)" stroke-width="1"></path><path d="M172.71603014511314,53.518755509317074 C173.79370061610828,61.70447542154099 183.06166666666664,103.256029296875 126.91845833333332,103.256029296875" stroke-linejoin="round" fill="none" stroke="rgba(230,199,49,1)" stroke-width="1"></path><path d="M179.60435040470273,52.916105575867036 C179.96448751532398,61.164601522825336 183.06166666666664,104.73529275173611 126.91845833333332,104.73529275173611" stroke-linejoin="round" fill="none" stroke="rgba(230,199,49,1)" stroke-width="1"></path><path d="M186.51898292863052,52.916105575867036 C186.15884581800927,61.164601522825336 183.06166666666664,106.21455620659722 126.91845833333332,106.21455620659722" stroke-linejoin="round" fill="none" stroke="rgba(230,199,49,1)" stroke-width="1"></path><path d="M193.4073031882202,53.518755509317074 C192.32963271722502,61.70447542154099 183.06166666666664,107.69381966145833 126.91845833333332,107.69381966145833" stroke-linejoin="round" fill="none" stroke="rgba(230,199,49,1)" stroke-width="1"></path><path d="M200.21688690701458,54.71946884633361 C198.429884798645,62.78011445261831 183.06166666666664,109.17308311631945 126.91845833333332,109.17308311631945" stroke-linejoin="round" fill="none" stroke="rgba(230,199,49,1)" stroke-width="1"></path><path d="M206.89590904117478,56.509107433411444 C204.41317546049686,64.38333235354219 183.06166666666664,110.65234657118056 126.91845833333332,110.65234657118056" stroke-linejoin="round" fill="none" stroke="rgba(230,199,49,1)" stroke-width="1"></path><path d="M213.39353819935604,58.87405104028957 C210.23396824803422,66.50192766803718 183.06166666666664,112.13161002604167 126.91845833333332,112.13161002604167" stroke-linejoin="round" fill="none" stroke="rgba(230,199,49,1)" stroke-width="1"></path><path d="M219.6603235002886,61.79630101812761 C215.847963413453,69.11977660651709 183.06166666666664,113.61087348090278 126.91845833333332,113.61087348090278" stroke-linejoin="round" fill="none" stroke="rgba(230,199,49,1)" stroke-width="1"></path><path d="M56.14320833333325,-97.24288933325775A112.28641666666665,112.28641666666665,0,0,1,112.28641666666665,-2.7502240151711865e-14L79.261,-1.941334598944367e-14A79.261,79.261,0,0,0,39.63049999999995,-68.64203952935841Z" fill="rgba(49,230,109,1)" stroke="none" transform="translate(183.06166666666664,132.10166666666666)"></path><text x="259.9419532714836" y="87.71481249999995" transform="rotate(60 259.9419532714836 87.71481249999995)" text-anchor="middle" font-size="14px" font-family="FontAwesome" fill="#000000" style="z-index: 4;">Community</text><path d="M225.64857092384426,65.25361728009153 C221.21243506372159,72.21695575785978 183.06166666666664,115.0901369357639 126.91845833333332,115.0901369357639" stroke-linejoin="round" fill="none" stroke="rgba(49,230,109,1)" stroke-width="1"></path><path d="M231.31270629132683,69.21968756184307 C226.28655633042473,75.76989371859554 183.06166666666664,116.569400390625 126.91845833333332,116.569400390625" stroke-linejoin="round" fill="none" stroke="rgba(49,230,109,1)" stroke-width="1"></path><path d="M236.60962211249148,73.6643276737594 C231.03171008688471,79.75155048552058 183.06166666666664,118.04866384548612 126.91845833333332,118.04866384548612" stroke-linejoin="round" fill="none" stroke="rgba(49,230,109,1)" stroke-width="1"></path><path d="M241.49900565957387,78.55371122084179 C235.4117828478127,84.13162324644856 183.06166666666664,119.52792730034723 126.91845833333332,119.52792730034723" stroke-linejoin="round" fill="none" stroke="rgba(49,230,109,1)" stroke-width="1"></path><path d="M245.9436457714902,83.85062704200644 C239.39343961473776,88.87677700290854 183.06166666666664,121.00719075520834 126.91845833333332,121.00719075520834" stroke-linejoin="round" fill="none" stroke="rgba(49,230,109,1)" stroke-width="1"></path><path d="M249.90971605324177,89.51476240948904 C242.94637757547352,93.9508982696117 183.06166666666664,122.48645421006945 126.91845833333332,122.48645421006945" stroke-linejoin="round" fill="none" stroke="rgba(49,230,109,1)" stroke-width="1"></path><path d="M253.36703231520568,95.50300983304466 C246.04355672681618,99.31536991988028 183.06166666666664,123.96571766493057 126.91845833333332,123.96571766493057" stroke-linejoin="round" fill="none" stroke="rgba(49,230,109,1)" stroke-width="1"></path><path d="M256.28928229304375,101.7697951339773 C248.66140566529612,104.92936508529911 183.06166666666664,125.44498111979168 126.91845833333332,125.44498111979168" stroke-linejoin="round" fill="none" stroke="rgba(49,230,109,1)" stroke-width="1"></path><path d="M258.6542258999218,108.26742429215841 C250.78000097979108,110.75015787283635 183.06166666666664,126.92424457465279 126.91845833333332,126.92424457465279" stroke-linejoin="round" fill="none" stroke="rgba(49,230,109,1)" stroke-width="1"></path><path d="M260.4438644869997,114.94644642631869 C252.383218880715,116.73344853468826 183.06166666666664,128.4035080295139 126.91845833333332,128.4035080295139" stroke-linejoin="round" fill="none" stroke="rgba(49,230,109,1)" stroke-width="1"></path><path d="M261.6445778240162,121.75603014511314 C253.4588579117923,122.8337006161083 183.06166666666664,129.88277148437498 126.91845833333332,129.88277148437498" stroke-linejoin="round" fill="none" stroke="rgba(49,230,109,1)" stroke-width="1"></path><path d="M262.24722775746625,128.6443504047028 C253.99873181050796,129.00448751532406 183.06166666666664,131.36203493923608 126.91845833333332,131.36203493923608" stroke-linejoin="round" fill="none" stroke="rgba(49,230,109,1)" stroke-width="1"></path><path d="M112.28641666666665,-2.7502240151711865e-14A112.28641666666665,112.28641666666665,0,0,1,56.1432083333333,97.24288933325774L39.63049999999998,68.6420395293584A79.261,79.261,0,0,0,79.261,-1.941334598944367e-14Z" fill="rgba(230,169,49,1)" stroke="none" transform="translate(183.06166666666664,132.10166666666666)"></path><text x="269.0352200112203" y="181.73852083333327" transform="rotate(300 269.0352200112203 181.73852083333327)" text-anchor="middle" font-size="14px" font-family="FontAwesome" fill="#000000" style="z-index: 4;">Channel</text><path d="M262.24722775746625,135.55898292863054 C253.99873181050796,135.1988458180093 183.06166666666664,132.84129839409718 126.91845833333332,132.84129839409718" stroke-linejoin="round" fill="none" stroke="rgba(230,169,49,1)" stroke-width="1"></path><path d="M261.6445778240162,142.44730318822013 C253.4588579117923,141.369632717225 183.06166666666664,134.32056184895828 126.91845833333332,134.32056184895828" stroke-linejoin="round" fill="none" stroke="rgba(230,169,49,1)" stroke-width="1"></path><path d="M260.44386448699964,149.25688690701466 C252.383218880715,147.46988479864507 183.06166666666664,135.79982530381938 126.91845833333332,135.79982530381938" stroke-linejoin="round" fill="none" stroke="rgba(230,169,49,1)" stroke-width="1"></path><path d="M258.65422589992187,155.9359090411748 C250.7800009797911,153.45317546049688 183.06166666666664,137.27908875868047 126.91845833333332,137.27908875868047" stroke-linejoin="round" fill="none" stroke="rgba(230,169,49,1)" stroke-width="1"></path><path d="M256.28928229304375,162.43353819935598 C248.66140566529614,159.27396824803418 183.06166666666664,138.75835221354157 126.91845833333332,138.75835221354157" stroke-linejoin="round" fill="none" stroke="rgba(230,169,49,1)" stroke-width="1"></path><path d="M253.36703231520568,168.70032350028868 C246.04355672681618,164.88796341345306 183.06166666666664,140.23761566840267 126.91845833333332,140.23761566840267" stroke-linejoin="round" fill="none" stroke="rgba(230,169,49,1)" stroke-width="1"></path><path d="M249.90971605324177,174.68857092384425 C242.94637757547352,170.25243506372158 183.06166666666664,141.71687912326377 126.91845833333332,141.71687912326377" stroke-linejoin="round" fill="none" stroke="rgba(230,169,49,1)" stroke-width="1"></path><path d="M245.94364577149028,180.3527062913268 C239.39343961473782,175.3265563304247 183.06166666666664,143.19614257812486 126.91845833333332,143.19614257812486" stroke-linejoin="round" fill="none" stroke="rgba(230,169,49,1)" stroke-width="1"></path><path d="M241.4990056595739,185.6496221124915 C235.41178284781273,180.07171008688474 183.06166666666664,144.67540603298596 126.91845833333332,144.67540603298596" stroke-linejoin="round" fill="none" stroke="rgba(230,169,49,1)" stroke-width="1"></path><path d="M236.6096221124915,190.5390056595739 C231.03171008688474,184.4517828478127 183.06166666666664,146.15466948784706 126.91845833333332,146.15466948784706" stroke-linejoin="round" fill="none" stroke="rgba(230,169,49,1)" stroke-width="1"></path><path d="M231.3127062913268,194.98364577149027 C226.2865563304247,188.4334396147378 183.06166666666664,147.63393294270816 126.91845833333332,147.63393294270816" stroke-linejoin="round" fill="none" stroke="rgba(230,169,49,1)" stroke-width="1"></path><path d="M225.64857092384426,198.94971605324176 C221.2124350637216,191.9863775754735 183.06166666666664,149.11319639756925 126.91845833333332,149.11319639756925" stroke-linejoin="round" fill="none" stroke="rgba(230,169,49,1)" stroke-width="1"></path><path d="M56.1432083333333,97.24288933325774A112.28641666666665,112.28641666666665,0,0,1,-56.14320833333341,97.24288933325766L-39.63050000000006,68.64203952935836A79.261,79.261,0,0,0,39.63049999999998,68.6420395293584Z" fill="rgba(230,230,49,1)" stroke="none" transform="translate(183.06166666666664,132.10166666666666)"></path><text x="183.06166666666667" y="231.375375" transform="rotate(360 183.06166666666667 231.375375)" text-anchor="middle" font-size="14px" font-family="FontAwesome" fill="#000000" style="z-index: 4;">Assumption</text><path d="M219.6603235002887,202.40703231520564 C215.84796341345307,195.08355672681617 183.06166666666664,150.59245985243035 126.91845833333332,150.59245985243035" stroke-linejoin="round" fill="none" stroke="rgba(230,230,49,1)" stroke-width="1"></path><path d="M213.39353819935602,205.32928229304378 C210.2339682480342,197.70140566529614 183.06166666666664,152.07172330729145 126.91845833333332,152.07172330729145" stroke-linejoin="round" fill="none" stroke="rgba(230,230,49,1)" stroke-width="1"></path><path d="M206.89590904117483,207.6942258999219 C204.4131754604969,199.82000097979113 183.06166666666664,153.55098676215255 126.91845833333332,153.55098676215255" stroke-linejoin="round" fill="none" stroke="rgba(230,230,49,1)" stroke-width="1"></path><path d="M200.21688690701467,209.48386448699966 C198.4298847986451,201.42321888071498 183.06166666666664,155.03025021701364 126.91845833333332,155.03025021701364" stroke-linejoin="round" fill="none" stroke="rgba(230,230,49,1)" stroke-width="1"></path><path d="M193.40730318822017,210.68457782401623 C192.329632717225,202.49885791179233 183.06166666666664,156.50951367187474 126.91845833333332,156.50951367187474" stroke-linejoin="round" fill="none" stroke="rgba(230,230,49,1)" stroke-width="1"></path><path d="M186.51898292863055,211.28722775746627 C186.15884581800933,203.03873181050798 183.06166666666664,157.98877712673584 126.91845833333332,157.98877712673584" stroke-linejoin="round" fill="none" stroke="rgba(230,230,49,1)" stroke-width="1"></path><path d="M179.60435040470284,211.28722775746627 C179.96448751532407,203.03873181050798 183.06166666666664,159.46804058159694 126.91845833333332,159.46804058159694" stroke-linejoin="round" fill="none" stroke="rgba(230,230,49,1)" stroke-width="1"></path><path d="M172.71603014511317,210.68457782401623 C173.7937006161083,202.49885791179233 183.06166666666664,160.94730403645804 126.91845833333332,160.94730403645804" stroke-linejoin="round" fill="none" stroke="rgba(230,230,49,1)" stroke-width="1"></path><path d="M165.90644642631864,209.48386448699966 C167.69344853468823,201.423218880715 183.06166666666664,162.42656749131913 126.91845833333332,162.42656749131913" stroke-linejoin="round" fill="none" stroke="rgba(230,230,49,1)" stroke-width="1"></path><path d="M159.22742429215845,207.69422589992186 C161.71015787283636,199.8200009797911 183.06166666666664,163.90583094618023 126.91845833333332,163.90583094618023" stroke-linejoin="round" fill="none" stroke="rgba(230,230,49,1)" stroke-width="1"></path><path d="M152.72979513397738,205.3292822930438 C155.88936508529918,197.7014056652962 183.06166666666664,165.38509440104133 126.91845833333332,165.38509440104133" stroke-linejoin="round" fill="none" stroke="rgba(230,230,49,1)" stroke-width="1"></path><path d="M146.46300983304462,202.4070323152057 C150.27536991988023,195.0835567268162 183.06166666666664,166.86435785590243 126.91845833333332,166.86435785590243" stroke-linejoin="round" fill="none" stroke="rgba(230,230,49,1)" stroke-width="1"></path><g transform="translate(0,96.59934375)"><g><g stroke="url(#EntitlementVision)" fill="none"><path d="M24,2.2188951822916736C63.45922916666666,2.2188951822916736 63.45922916666666,2.3188951822916737 102.91845833333332,2.3188951822916737" style="stroke-width: 3.43779;"><title>Entitlement → Vision</title></path></g><g stroke="url(#EntitlementCommunity)" fill="none"><path d="M24,6.656685546875007C63.45922916666666,6.656685546875007 63.45922916666666,20.070056640625012 102.91845833333332,20.070056640625012" style="stroke-width: 3.43779;"><title>Entitlement → Community</title></path></g><g stroke="url(#EntitlementChannel)" fill="none"><path d="M24,11.09447591145834C63.45922916666666,11.09447591145834 63.45922916666666,37.82121809895834 102.91845833333332,37.82121809895834" style="stroke-width: 3.43779;"><title>Entitlement → Channel</title></path></g><g stroke="url(#EntitlementAssumption)" fill="none"><path d="M24,15.532266276041673C63.45922916666666,15.532266276041673 63.45922916666666,55.57237955729167 102.91845833333332,55.57237955729167" style="stroke-width: 3.43779;"><title>Entitlement → Assumption</title></path></g><g stroke="url(#PropositionVision)" fill="none"><path d="M24,19.97005664062501C63.45922916666666,19.97005664062501 63.45922916666666,6.756685546875007 102.91845833333332,6.756685546875007" style="stroke-width: 3.43779;"><title>Proposition → Vision</title></path></g><g stroke="url(#PropositionCommunity)" fill="none"><path d="M24,24.407847005208342C63.45922916666666,24.407847005208342 63.45922916666666,24.507847005208344 102.91845833333332,24.507847005208344" style="stroke-width: 3.43779;"><title>Proposition → Community</title></path></g><g stroke="url(#PropositionChannel)" fill="none"><path d="M24,28.845637369791675C63.45922916666666,28.845637369791675 63.45922916666666,42.259008463541676 102.91845833333332,42.259008463541676" style="stroke-width: 3.43779;"><title>Proposition → Channel</title></path></g><g stroke="url(#PropositionAssumption)" fill="none"><path d="M24,33.28342773437501C63.45922916666666,33.28342773437501 63.45922916666666,60.010169921875004 102.91845833333332,60.010169921875004" style="stroke-width: 3.43779;"><title>Proposition → Assumption</title></path></g><g stroke="url(#PortfolioVision)" fill="none"><path d="M24,37.72121809895834C63.45922916666666,37.72121809895834 63.45922916666666,11.194475911458339 102.91845833333332,11.194475911458339" style="stroke-width: 3.43779;"><title>Portfolio → Vision</title></path></g><g stroke="url(#PortfolioCommunity)" fill="none"><path d="M24,42.159008463541674C63.45922916666666,42.159008463541674 63.45922916666666,28.945637369791676 102.91845833333332,28.945637369791676" style="stroke-width: 3.43779;"><title>Portfolio → Community</title></path></g><g stroke="url(#PortfolioChannel)" fill="none"><path d="M24,46.596798828125C63.45922916666666,46.596798828125 63.45922916666666,46.696798828125004 102.91845833333332,46.696798828125004" style="stroke-width: 3.43779;"><title>Portfolio → Channel</title></path></g><g stroke="url(#PortfolioAssumption)" fill="none"><path d="M24,51.03458919270834C63.45922916666666,51.03458919270834 63.45922916666666,64.44796028645833 102.91845833333332,64.44796028645833" style="stroke-width: 3.43779;"><title>Portfolio → Assumption</title></path></g><g stroke="url(#IntelligenceVision)" fill="none"><path d="M24,55.47237955729167C63.45922916666666,55.47237955729167 63.45922916666666,15.632266276041673 102.91845833333332,15.632266276041673" style="stroke-width: 3.43779;"><title>Intelligence → Vision</title></path></g><g stroke="url(#IntelligenceCommunity)" fill="none"><path d="M24,59.910169921875C63.45922916666666,59.910169921875 63.45922916666666,33.38342773437501 102.91845833333332,33.38342773437501" style="stroke-width: 3.43779;"><title>Intelligence → Community</title></path></g><g stroke="url(#IntelligenceChannel)" fill="none"><path d="M24,64.34796028645833C63.45922916666666,64.34796028645833 63.45922916666666,51.13458919270834 102.91845833333332,51.13458919270834" style="stroke-width: 3.43779;"><title>Intelligence → Channel</title></path></g><g stroke="url(#IntelligenceAssumption)" fill="none"><path d="M24,68.78575065104165C63.45922916666666,68.78575065104165 63.45922916666666,68.88575065104165 102.91845833333332,68.88575065104165" style="stroke-width: 3.43779;"><title>Intelligence → Assumption</title></path></g></g><g><g class="node" transform="translate(0,7.105427357601002e-15)" style="-webkit-tap-highlight-color: rgba(0, 0, 0, 0);"><rect height="17.751161458333332" width="24" fill="rgba(49,230,109,1)"><title>Entitlement</title></rect></g><g class="node" transform="translate(0,17.751161458333343)" style="-webkit-tap-highlight-color: rgba(0, 0, 0, 0);"><rect height="17.751161458333332" width="24" fill="rgba(230,199,49,1)"><title>Proposition</title></rect></g><g class="node" transform="translate(0,35.50232291666667)" style="-webkit-tap-highlight-color: rgba(0, 0, 0, 0);"><rect height="17.751161458333332" width="24" fill="rgba(230,230,49,1)"><title>Portfolio</title></rect></g><g class="node" transform="translate(0,53.253484375)" style="-webkit-tap-highlight-color: rgba(0, 0, 0, 0);"><rect height="17.751161458333332" width="24" fill="rgba(230,109,49,1)"><title>Intelligence</title></rect></g><g class="node" transform="translate(102.91845833333332,7.105427357601002e-15)" style="-webkit-tap-highlight-color: rgba(0, 0, 0, 0);"><rect height="17.751161458333332" width="24" fill="rgba(230,199,49,1)"><title>Vision</title></rect></g><g class="node" transform="translate(102.91845833333332,17.751161458333343)" style="-webkit-tap-highlight-color: rgba(0, 0, 0, 0);"><rect height="17.751161458333332" width="24" fill="rgba(49,230,109,1)"><title>Community</title></rect></g><g class="node" transform="translate(102.91845833333332,35.50232291666667)" style="-webkit-tap-highlight-color: rgba(0, 0, 0, 0);"><rect height="17.751161458333332" width="24" fill="rgba(230,169,49,1)"><title>Channel</title></rect></g><g class="node" transform="translate(102.91845833333332,53.253484375)" style="-webkit-tap-highlight-color: rgba(0, 0, 0, 0);"><rect height="17.751161458333332" width="24" fill="rgba(230,230,49,1)"><title>Assumption</title></rect></g></g></g><text x="183.06166666666664" y="144.10166666666666" id="DiscoverInfoIconSvg" text-anchor="middle" font-size="2em" font-family="FontAwesome" style="z-index: 4;"></text><text x="114.91845833333332" y="264.2033333333333" id="DiscoverInfoTextSvg" fill="black" text-anchor="middle" font-size="1.4em" font-family="FontAwesome" style="z-index: 4;">Discover</text><rect x="174.06166666666664" y="240.20333333333332" width="18" height="24" fill="rgba(230,230,49,1)" stroke="none"></rect></g></svg>