<svg id="EvolveKnowSvg" width="293.02" height="264.2033333333333" xmlns="http://www.w3.org/2000/svg"><defs><linearGradient id="WhiteBlack" y1="0%" y2="0%" x1="0%" x2="100%"><stop offset="10%" stop-color="white"></stop><stop offset="90%" stop-color="black"></stop></linearGradient><linearGradient id="AwarenessTeach" y1="0%" y2="0%" x1="0%" x2="100%"><stop offset="10%" stop-color="#339966"></stop><stop offset="90%" stop-color="#99FF99"></stop></linearGradient><linearGradient id="AwarenessCampus" y1="0%" y2="0%" x1="0%" x2="100%"><stop offset="10%" stop-color="#339966"></stop><stop offset="90%" stop-color="#FFCC99"></stop></linearGradient><linearGradient id="AwarenessPreserve" y1="0%" y2="0%" x1="0%" x2="100%"><stop offset="10%" stop-color="#339966"></stop><stop offset="90%" stop-color="#CC6666"></stop></linearGradient><linearGradient id="AwarenessLibrary" y1="0%" y2="0%" x1="0%" x2="100%"><stop offset="10%" stop-color="#339966"></stop><stop offset="90%" stop-color="#FF9999"></stop></linearGradient><linearGradient id="BalanceTeach" y1="0%" y2="0%" x1="0%" x2="100%"><stop offset="10%" stop-color="#99FFCC"></stop><stop offset="90%" stop-color="#99FF99"></stop></linearGradient><linearGradient id="BalanceCampus" y1="0%" y2="0%" x1="0%" x2="100%"><stop offset="10%" stop-color="#99FFCC"></stop><stop offset="90%" stop-color="#FFCC99"></stop></linearGradient><linearGradient id="BalancePreserve" y1="0%" y2="0%" x1="0%" x2="100%"><stop offset="10%" stop-color="#99FFCC"></stop><stop offset="90%" stop-color="#CC6666"></stop></linearGradient><linearGradient id="BalanceLibrary" y1="0%" y2="0%" x1="0%" x2="100%"><stop offset="10%" stop-color="#99FFCC"></stop><stop offset="90%" stop-color="#FF9999"></stop></linearGradient><linearGradient id="ImproveTeach" y1="0%" y2="0%" x1="0%" x2="100%"><stop offset="10%" stop-color="#33CC66"></stop><stop offset="90%" stop-color="#99FF99"></stop></linearGradient><linearGradient id="ImproveCampus" y1="0%" y2="0%" x1="0%" x2="100%"><stop offset="10%" stop-color="#33CC66"></stop><stop offset="90%" stop-color="#FFCC99"></stop></linearGradient><linearGradient id="ImprovePreserve" y1="0%" y2="0%" x1="0%" x2="100%"><stop offset="10%" stop-color="#33CC66"></stop><stop offset="90%" stop-color="#CC6666"></stop></linearGradient><linearGradient id="ImproveLibrary" y1="0%" y2="0%" x1="0%" x2="100%"><stop offset="10%" stop-color="#33CC66"></stop><stop offset="90%" stop-color="#FF9999"></stop></linearGradient></defs><g id="EvolveKnowG" style=""><path d="M293.02,   100.5L219.59837116805926,100.5 A80.39999999999999,80.39999999999999 0, 1,0 219.59837116805926,167.5L293.02,   167.5 L293.02,100.5M180.01,134 A33.5,33.5 0, 1,1 180.01,133.999" stroke-linejoin="round" fill="#66CC99"></path><path d="M56.94999999999992,-98.6402934910476A113.89999999999999,113.89999999999999,0,0,0,-87.2524620712516,-73.21350874329681L-61.589973226765835,-51.68012381879775A80.39999999999999,80.39999999999999,0,0,1,40.19999999999994,-69.62844246426889Z" fill="#339966" stroke="none" transform="translate(146.51,134)"></path><text x="130.8556167833262" y="45.219581065949455" transform="rotate(-10 130.8556167833262 45.219581065949455)" text-anchor="middle" font-size="14px" font-family="Arial" fill="#000000" style="z-index: 4;">Awareness</text><path d="M182.5934540881172,62.15193571799769 C178.83476095393831,69.63610908070626 146.51,98.98784722222223 219.45999999999998,98.98784722222223" stroke-linejoin="round" fill="none" stroke="#339966" stroke-width="1"></path><path d="M174.0084195233837,58.44871328881297 C171.14400082303123,66.31863898789494 146.51,100.98854166666668 219.45999999999998,100.98854166666668" stroke-linejoin="round" fill="none" stroke="#339966" stroke-width="1"></path><path d="M165.05151600769216,55.76719240538216 C163.12010809022422,63.91644319648819 146.51,102.98923611111113 219.45999999999998,102.98923611111113" stroke-linejoin="round" fill="none" stroke="#339966" stroke-width="1"></path><path d="M155.84387029566847,54.14363603754779 C154.87159213986965,62.46200728363657 146.51,104.98993055555557 219.45999999999998,104.98993055555557" stroke-linejoin="round" fill="none" stroke="#339966" stroke-width="1"></path><path d="M146.50999999999996,53.60000000000001 C146.51,61.97500000000001 146.51,106.99062500000002 219.45999999999998,106.99062500000002" stroke-linejoin="round" fill="none" stroke="#339966" stroke-width="1"></path><path d="M137.17612970433143,54.14363603754779 C138.14840786013025,62.46200728363657 146.51,108.99131944444447 219.45999999999998,108.99131944444447" stroke-linejoin="round" fill="none" stroke="#339966" stroke-width="1"></path><path d="M127.96848399230771,55.76719240538219 C129.89989190977565,63.91644319648822 146.51,110.99201388888892 219.45999999999998,110.99201388888892" stroke-linejoin="round" fill="none" stroke="#339966" stroke-width="1"></path><path d="M119.01158047661617,58.44871328881298 C121.87599917696866,66.31863898789497 146.51,112.99270833333337 219.45999999999998,112.99270833333337" stroke-linejoin="round" fill="none" stroke="#339966" stroke-width="1"></path><path d="M110.42654591188281,62.151935717997674 C114.1852390460617,69.63610908070625 146.51,114.99340277777782 219.45999999999998,114.99340277777782" stroke-linejoin="round" fill="none" stroke="#339966" stroke-width="1"></path><path d="M102.32947816310715,66.82677996239995 C106.93161585445014,73.82399038298328 146.51,116.99409722222227 219.45999999999998,116.99409722222227" stroke-linejoin="round" fill="none" stroke="#339966" stroke-width="1"></path><path d="M94.82987618120222,72.4100267732342 C100.21322241232699,78.82564898435562 146.51,118.99479166666671 219.45999999999998,118.99479166666671" stroke-linejoin="round" fill="none" stroke="#339966" stroke-width="1"></path><path d="M88.02915921752685,78.82617231535387 C94.12091346570114,84.5734460325045 146.51,120.99548611111116 219.45999999999998,120.99548611111116" stroke-linejoin="round" fill="none" stroke="#339966" stroke-width="1"></path><path d="M-87.2524620712516,-73.21350874329681A113.89999999999999,113.89999999999999,0,0,0,-87.25246207125157,73.21350874329684L-61.589973226765814,51.68012381879777A80.39999999999999,80.39999999999999,0,0,1,-61.589973226765835,-51.68012381879775Z" fill="#99FFCC" stroke="none" transform="translate(146.51,134)"></path><text x="56.36" y="134" transform="rotate(-90 56.36 134)" text-anchor="middle" font-size="14px" font-family="Arial" fill="#000000" style="z-index: 4;">Balance</text><path d="M82.01929530249444,85.98844922709604 C88.73707704181794,90.98965243260687 146.51,122.99618055555561 219.45999999999998,122.99618055555561" stroke-linejoin="round" fill="none" stroke="#99FFCC" stroke-width="1"></path><path d="M76.88155753573113,93.8 C84.1345202924258,97.9875 146.51,124.99687500000006 219.45999999999998,124.99687500000006" stroke-linejoin="round" fill="none" stroke="#99FFCC" stroke-width="1"></path><path d="M72.68542500682597,102.15518681045178 C80.37548490194827,105.47235485102972 146.51,126.99756944444451 219.45999999999998,126.99756944444451" stroke-linejoin="round" fill="none" stroke="#99FFCC" stroke-width="1"></path><path d="M69.4876432098347,110.94102009002833 C77.51080537547692,113.34299716398371 146.51,128.99826388888894 219.45999999999998,128.99826388888894" stroke-linejoin="round" fill="none" stroke="#99FFCC" stroke-width="1"></path><path d="M67.33145665781848,120.03868651557876 C75.57922158929573,121.4929900035393 146.51,130.99895833333338 219.45999999999998,130.99895833333338" stroke-linejoin="round" fill="none" stroke="#99FFCC" stroke-width="1"></path><path d="M66.24602407499003,129.3251557555977 C74.6068549005119,129.81211869772295 146.51,132.9996527777778 219.45999999999998,132.9996527777778" stroke-linejoin="round" fill="none" stroke="#99FFCC" stroke-width="1"></path><path d="M66.24602407499003,138.6748442444022 C74.6068549005119,138.187881302277 146.51,135.00034722222225 219.45999999999998,135.00034722222225" stroke-linejoin="round" fill="none" stroke="#99FFCC" stroke-width="1"></path><path d="M67.33145665781845,147.9613134844211 C75.5792215892957,146.5070099964606 146.51,137.00104166666668 219.45999999999998,137.00104166666668" stroke-linejoin="round" fill="none" stroke="#99FFCC" stroke-width="1"></path><path d="M69.48764320983467,157.05897990997158 C77.51080537547689,154.6570028360162 146.51,139.00173611111111 219.45999999999998,139.00173611111111" stroke-linejoin="round" fill="none" stroke="#99FFCC" stroke-width="1"></path><path d="M72.68542500682594,165.84481318954812 C80.37548490194824,162.5276451489702 146.51,141.00243055555555 219.45999999999998,141.00243055555555" stroke-linejoin="round" fill="none" stroke="#99FFCC" stroke-width="1"></path><path d="M76.88155753573108,174.1999999999999 C84.13452029242576,170.0124999999999 146.51,143.00312499999998 219.45999999999998,143.00312499999998" stroke-linejoin="round" fill="none" stroke="#99FFCC" stroke-width="1"></path><path d="M82.01929530249441,182.01155077290392 C88.73707704181791,177.0103475673931 146.51,145.00381944444442 219.45999999999998,145.00381944444442" stroke-linejoin="round" fill="none" stroke="#99FFCC" stroke-width="1"></path><path d="M-87.25246207125157,73.21350874329684A113.89999999999999,113.89999999999999,0,0,0,56.94999999999998,98.64029349104756L40.19999999999999,69.62844246426886A80.39999999999999,80.39999999999999,0,0,1,-61.589973226765814,51.68012381879777Z" fill="#33CC66" stroke="none" transform="translate(146.51,134)"></path><text x="129.03231091782345" y="233.12090034067873" transform="rotate(10 129.03231091782345 233.12090034067873)" text-anchor="middle" font-size="14px" font-family="Arial" fill="#000000" style="z-index: 4;">Improve</text><path d="M88.02915921752688,189.17382768464617 C94.12091346570116,183.42655396749552 146.51,147.00451388888885 219.45999999999998,147.00451388888885" stroke-linejoin="round" fill="none" stroke="#33CC66" stroke-width="1"></path><path d="M94.82987618120222,195.58997322676584 C100.213222412327,189.1743510156444 146.51,149.0052083333333 219.45999999999998,149.0052083333333" stroke-linejoin="round" fill="none" stroke="#33CC66" stroke-width="1"></path><path d="M102.32947816310718,201.17322003760006 C106.9316158544502,194.17600961701675 146.51,151.00590277777772 219.45999999999998,151.00590277777772" stroke-linejoin="round" fill="none" stroke="#33CC66" stroke-width="1"></path><path d="M110.42654591188281,205.84806428200233 C114.18523904606168,198.36389091929374 146.51,153.00659722222215 219.45999999999998,153.00659722222215" stroke-linejoin="round" fill="none" stroke="#33CC66" stroke-width="1"></path><path d="M119.0115804766162,209.551286711187 C121.87599917696868,201.68136101210501 146.51,155.0072916666666 219.45999999999998,155.0072916666666" stroke-linejoin="round" fill="none" stroke="#33CC66" stroke-width="1"></path><path d="M127.96848399230775,212.2328075946178 C129.8998919097757,204.08355680351178 146.51,157.00798611111102 219.45999999999998,157.00798611111102" stroke-linejoin="round" fill="none" stroke="#33CC66" stroke-width="1"></path><path d="M137.17612970433146,213.8563639624522 C138.14840786013025,205.53799271636342 146.51,159.00868055555546 219.45999999999998,159.00868055555546" stroke-linejoin="round" fill="none" stroke="#33CC66" stroke-width="1"></path><path d="M146.51,214.39999999999998 C146.51,206.02499999999998 146.51,161.0093749999999 219.45999999999998,161.0093749999999" stroke-linejoin="round" fill="none" stroke="#33CC66" stroke-width="1"></path><path d="M155.84387029566852,213.8563639624522 C154.87159213986973,205.53799271636342 146.51,163.01006944444433 219.45999999999998,163.01006944444433" stroke-linejoin="round" fill="none" stroke="#33CC66" stroke-width="1"></path><path d="M165.05151600769224,212.2328075946178 C163.1201080902243,204.08355680351178 146.51,165.01076388888876 219.45999999999998,165.01076388888876" stroke-linejoin="round" fill="none" stroke="#33CC66" stroke-width="1"></path><path d="M174.00841952338382,209.551286711187 C171.14400082303135,201.68136101210501 146.51,167.0114583333332 219.45999999999998,167.0114583333332" stroke-linejoin="round" fill="none" stroke="#33CC66" stroke-width="1"></path><path d="M182.59345408811726,205.84806428200227 C178.83476095393837,198.3638909192937 146.51,169.01215277777763 219.45999999999998,169.01215277777763" stroke-linejoin="round" fill="none" stroke="#33CC66" stroke-width="1"></path><g transform="translate(219.45999999999998,97.98750000000001)"><g><g stroke="url(#AwarenessTeach)" fill="none"><path class="link" d="M24,3.0010416666666733C36.78,3.0010416666666733 36.78,3.1010416666666805 49.56,3.1010416666666805" style="stroke-width: 5.00208;"><title>Awareness → Teach</title></path></g><g stroke="url(#AwarenessCampus)" fill="none"><path class="link" d="M24,9.003125000000006C36.78,9.003125000000006 36.78,21.107291666666676 49.56,21.107291666666676" style="stroke-width: 5.00208;"><title>Awareness → Campus</title></path></g><g stroke="url(#AwarenessPreserve)" fill="none"><path class="link" d="M24,15.005208333333337C36.78,15.005208333333337 36.78,39.11354166666667 49.56,39.11354166666667" style="stroke-width: 5.00208;"><title>Awareness → Preserve</title></path></g><g stroke="url(#AwarenessLibrary)" fill="none"><path class="link" d="M24,21.00729166666667C36.78,21.00729166666667 36.78,57.119791666666664 49.56,57.119791666666664" style="stroke-width: 5.00208;"><title>Awareness → Library</title></path></g><g stroke="url(#BalanceTeach)" fill="none"><path class="link" d="M24,27.009375000000006C36.78,27.009375000000006 36.78,9.103125000000013 49.56,9.103125000000013" style="stroke-width: 5.00208;"><title>Balance → Teach</title></path></g><g stroke="url(#BalanceCampus)" fill="none"><path class="link" d="M24,33.01145833333334C36.78,33.01145833333334 36.78,27.109375000000007 49.56,27.109375000000007" style="stroke-width: 5.00208;"><title>Balance → Campus</title></path></g><g stroke="url(#BalancePreserve)" fill="none"><path class="link" d="M24,39.01354166666667C36.78,39.01354166666667 36.78,45.115625 49.56,45.115625" style="stroke-width: 5.00208;"><title>Balance → Preserve</title></path></g><g stroke="url(#BalanceLibrary)" fill="none"><path class="link" d="M24,45.015625C36.78,45.015625 36.78,63.121874999999996 49.56,63.121874999999996" style="stroke-width: 5.00208;"><title>Balance → Library</title></path></g><g stroke="url(#ImproveTeach)" fill="none"><path class="link" d="M24,51.01770833333333C36.78,51.01770833333333 36.78,15.105208333333344 49.56,15.105208333333344" style="stroke-width: 5.00208;"><title>Improve → Teach</title></path></g><g stroke="url(#ImproveCampus)" fill="none"><path class="link" d="M24,57.01979166666666C36.78,57.01979166666666 36.78,33.11145833333334 49.56,33.11145833333334" style="stroke-width: 5.00208;"><title>Improve → Campus</title></path></g><g stroke="url(#ImprovePreserve)" fill="none"><path class="link" d="M24,63.021874999999994C36.78,63.021874999999994 36.78,51.11770833333333 49.56,51.11770833333333" style="stroke-width: 5.00208;"><title>Improve → Preserve</title></path></g><g stroke="url(#ImproveLibrary)" fill="none"><path class="link" d="M24,69.02395833333333C36.78,69.02395833333333 36.78,69.12395833333332 49.56,69.12395833333332" style="stroke-width: 5.00208;"><title>Improve → Library</title></path></g></g><g><g class="node" transform="translate(0,7.105427357601002e-15)" style="-webkit-tap-highlight-color: rgba(0, 0, 0, 0);"><rect height="24.00833333333333" width="24" fill="#339966"><title>Awareness</title></rect></g><g class="node" transform="translate(0,24.00833333333334)" style="-webkit-tap-highlight-color: rgba(0, 0, 0, 0);"><rect height="24.00833333333333" width="24" fill="#99FFCC"><title>Balance</title></rect></g><g class="node" transform="translate(0,48.016666666666666)" style="-webkit-tap-highlight-color: rgba(0, 0, 0, 0);"><rect height="24.00833333333333" width="24" fill="#33CC66"><title>Improve</title></rect></g><g class="node" transform="translate(49.56,1.4210854715202004e-14)" style="-webkit-tap-highlight-color: rgba(0, 0, 0, 0);"><rect height="18.006249999999998" width="24" fill="#99FF99"><title>Teach</title></rect></g><g class="node" transform="translate(49.56,18.00625000000001)" style="-webkit-tap-highlight-color: rgba(0, 0, 0, 0);"><rect height="18.006249999999998" width="24" fill="#FFCC99"><title>Campus</title></rect></g><g class="node" transform="translate(49.56,36.0125)" style="-webkit-tap-highlight-color: rgba(0, 0, 0, 0);"><rect height="18.006249999999998" width="24" fill="#CC6666"><title>Preserve</title></rect></g><g class="node" transform="translate(49.56,54.01875)" style="-webkit-tap-highlight-color: rgba(0, 0, 0, 0);"><rect height="18.006249999999998" width="24" fill="#FF9999"><title>Library</title></rect></g></g></g><text x="146.51" y="146" id="EvolveKnowIconSvg" text-anchor="middle" font-size="2em" font-family="FontAwesome" style="z-index: 4;"></text><text x="146.51" y="246.56" id="EvolveKnowTextSvg" fill="wheat" text-anchor="middle" font-size="1.4em" font-family="Arial" style="z-index: 4;">Evolve</text></g></svg>