<svg enable-background="new 0 0 260 260" viewBox="0 0 260 260" xmlns="http://www.w3.org/2000/svg"
     class="svg-icon svg-icon-reactive-trait svg-icon-scalable">
  <circle r="130" cy="130" cx="130" fill="#fff"/><circle r="120" cy="130" cx="130" fill="#D2B48C"/>
  <path d="M209 131c-26-15-46-3-52 18-1-18-16-50-59-38-6-15-17-15-27-2-6.5-8.1-32.1-12.9-50 6.5-.6 4.8-1 9.6-1 14.5 0 29.4 11.4 57 32.2 77.8 20.8 20.8 48.4 32.2 77.8 32.2s57-11.4 77.8-32.2c20.8-20.8 32.2-48.4 32.2-77.8 0-4.4-.3-8.8-.8-13.2-9.3-3.2-21.4-1.4-30.2 14.2z" fill="#F5ABAB"/><path d="M163 161c-17-36-51-20-60 4-18.2-21.9-52.7-29.2-81.2-14.8 4 21.7 14.4 41.7 30.4 57.6 20.8 20.8 48.4 32.2 77.8 32.2s57-11.4 77.8-32.2c15.8-15.8 26.1-35.5 30.2-56.9-20.6-13.6-46.8-18.9-75 10.1z" fill="#fff"/>
</svg>