<svg enable-background="new 0 0 260 260" viewBox="0 0 260 260" xmlns="http://www.w3.org/2000/svg"
     class="svg-icon svg-icon-reactive-trait svg-icon-resiliant">
  <path d="M130 255c-68.9 0-125-56.1-125-125s56.1-125 125-125 125 56.1 125 125-56.1 125-125 125z" fill="#D2B48C"/>
  <path d="M130 10c66.3 0 120 53.7 120 120s-53.7 120-120 120-120-53.7-120-120 53.7-120 120-120m0-10c-34.7 0-67.4 13.5-91.9 38.1s-38.1 57.2-38.1 91.9 13.5 67.4 38.1 91.9 57.2 38.1 91.9 38.1 67.4-13.5 91.9-38.1 38.1-57.2 38.1-91.9-13.5-67.4-38.1-91.9-57.2-38.1-91.9-38.1zM179.7 130c-2.6 0-4.7 1.9-5 4.5-2.3 22.7-21.4 40.5-44.8 40.5s-42.5-17.8-44.8-40.5c-.3-2.6-2.4-4.5-5-4.5h-55c-2.8 0-5.1 2.4-5 5.2 1.9 41.1 26.3 78.2 67.4 96.8l.4.2c44 16.5 89.3 6.1 119.9-24.4 19.5-19.5 30.8-45.2 32.1-72.6.1-2.8-2.2-5.2-5-5.2h-55.2z" fill="#fff"/>
  <circle r="35" cy="130" cx="130" fill="#fff"/></svg>